<svg id="Layer_1" data-name="Layer 1" xmlns="http://www.w3.org/2000/svg" viewBox="0 0 170.66 193.8"><defs><style>.cls-1{isolation:isolate;}.cls-2{fill:#e5b04a;}.cls-3{fill:#ded9e5;}.cls-4{fill:#e5c2aa;}.cls-5{fill:#e5cab7;}.cls-6{fill:#2e1c0d;}.cls-7{fill:#f7f2ff;}.cls-8{fill:#e56c6c;}.cls-9{fill:#6588ba;}.cls-10{fill:#e1ecff;}.cls-11{fill:#533218;}.cls-12{fill:none;}.cls-13{fill:#f0b186;}.cls-14{fill:#2a2b42;}.cls-15{fill:#d5e1f2;}.cls-16{fill:#ffc452;}.cls-17{fill:#faa81b;}.cls-18{fill:#301d0f;}.cls-19{fill:#4b2a13;}.cls-20{fill:#e7a57a;}.cls-21{fill:#331f0f;}.cls-22{fill:#4b4b60;}.cls-23{fill:#7098cf;}.cls-24{fill:#f74e63;}.cls-25{fill:#fff;}.cls-26{fill:#fdeae0;}.cls-27{fill:#ff9c9c;}.cls-28{fill:#fad0d8;}.cls-29{fill:#cbc8e0;}.cls-30{fill:#c46e78;}.cls-31{fill:#7689c4;}.cls-32{fill:#626eaf;}.cls-33{fill:#eeeef7;}.cls-34{fill:#714e56;}.cls-35{fill:#333;}.cls-36{fill:#4d4e4e;}.cls-37{fill:#525966;}.cls-38{fill:#858fa1;}.cls-39{fill:#8c9fff;}.cls-40{fill:#ffb1b1;}.cls-41{fill:#c27770;}.cls-42{fill:#785f5f;}.cls-43{fill:#67a5ec;}.cls-44{fill:#4d4981;}.cls-45{fill:#3b3963;}.cls-46{fill:#ba654b;}.cls-47{fill:#fd6f8d;}</style></defs><g class="cls-1"><path class="cls-2" d="M120.53,32.55l.08.05a1.16,1.16,0,0,1,.21.16v.1a7.22,7.22,0,0,0,.56,2.71A4.05,4.05,0,0,0,122.83,37a2.4,2.4,0,0,0,2,.41c.84-.35.61-1.76.58-1.94l.49.28.29.17c-.62,1.57,0,2.14-.07,2.65,1.32,3.43-.58,2.22-.47,5.57a7.39,7.39,0,0,0,.44,1.85l.07.21-6.06-3.51a5.42,5.42,0,0,0,.48-1.75c.39-2.16-1.38-4.29-.89-5.53a4.18,4.18,0,0,0,.48-2.77c0-.16,0-.25,0-.26Z" transform="translate(-19.02 -9.15)"/><path class="cls-3" d="M126.12,46.14s0-.07-.07-.2l1.85,1a5.45,5.45,0,0,1-1.5-.61Z" transform="translate(-19.02 -9.15)"/><path class="cls-4" d="M119.65,35.36c-.49,1.24,1.28,3.37.89,5.53a5.29,5.29,0,0,1-.48,1.74l-.84-.48-1-.59c0-.07,0-.14,0-.21-.24-4.59.49-8.29,1.16-8.86a1.54,1.54,0,0,1,.8.1A4.18,4.18,0,0,1,119.65,35.36Z" transform="translate(-19.02 -9.15)"/><path class="cls-5" d="M123.33,26.71a6.39,6.39,0,0,0,2.82,4.58c0,.11,0,.22,0,.32a2.1,2.1,0,0,1-.71,1.75,1.51,1.51,0,0,1-1.06.26,2.87,2.87,0,0,1-1.08-.38,5.64,5.64,0,0,1-.81-.6A6.63,6.63,0,0,1,121,30.39a5,5,0,0,1-.46-2.06C122.31,28.52,122.9,28.87,123.33,26.71Z" transform="translate(-19.02 -9.15)"/><path class="cls-4" d="M124.6,34.9a4.56,4.56,0,0,0,.77.52c0,.18.26,1.59-.58,1.94a2.4,2.4,0,0,1-2-.41,4.05,4.05,0,0,1-1.45-1.38,7.22,7.22,0,0,1-.56-2.71c.52.23,1.05.5,1.4.67.43-.05.3-.86.29-.89a5.64,5.64,0,0,0,.81.6,2.87,2.87,0,0,0,1.08.38c-.24.92,0,1.18.13,1.26Z" transform="translate(-19.02 -9.15)"/><path class="cls-4" d="M126.15,35.87c2.18,1.65,2.21,9.87,2.2,11.13v.16l-.45-.24-1.85-1a7.39,7.39,0,0,1-.44-1.85c-.11-3.35,1.79-2.14.47-5.57C126.16,38,125.53,37.44,126.15,35.87Z" transform="translate(-19.02 -9.15)"/><path class="cls-6" d="M121,30.39a6.63,6.63,0,0,0,1.56,2.25s.14.84-.29.89c-.35-.17-.88-.44-1.4-.67v-.1a1.16,1.16,0,0,0-.21-.16A5.81,5.81,0,0,0,121,30.39Z" transform="translate(-19.02 -9.15)"/><path class="cls-7" d="M126.47,22.61a11.54,11.54,0,0,1,5.21,9l0,11.66c0,2.52-1.38,3.9-3.3,3.69,0-1.26,0-9.48-2.2-11.13l-.29-.17a10.07,10.07,0,0,1-.4-2.34,2.1,2.1,0,0,0,.71-1.75c0-.1,0-.21,0-.32.48-.52.15-2.77-1.74-4.59a1.38,1.38,0,0,0,0-.22,2.43,2.43,0,0,0-1.09-1.89c-.6-.34-1.09-.06-1.1.63a1.1,1.1,0,0,0,0,.18c-1.36-.32-2.89.09-1.77,2.93a5,5,0,0,0,.46,2.06,5.81,5.81,0,0,1-.34,2.21l-.08-.05-.44-.22s0,.1,0,.26a1.54,1.54,0,0,0-.8-.1c-.67.57-1.4,4.27-1.16,8.86a11.7,11.7,0,0,1-3.88-8.06l0-11.66c0-3.31,2.37-4.66,5.24-3Z" transform="translate(-19.02 -9.15)"/><path class="cls-6" d="M123.25,25.8l.09.05a8.51,8.51,0,0,1,1.07.85c1.89,1.82,2.22,4.07,1.74,4.59a6.39,6.39,0,0,1-2.82-4.58c-.43,2.16-1,1.81-2.84,1.62-1.12-2.84.41-3.25,1.77-2.93A3.67,3.67,0,0,1,123.25,25.8Z" transform="translate(-19.02 -9.15)"/><path class="cls-8" d="M125.89,19.33a.69.69,0,0,1,.31.54V20c0,.19-.14.27-.31.18L118.67,16a.69.69,0,0,1-.31-.53v-.1c0-.19.14-.27.31-.17Z" transform="translate(-19.02 -9.15)"/><path class="cls-9" d="M126.77,18.16a.65.65,0,0,1,.3.53v.1c0,.19-.14.27-.3.17l-8.1-4.67a.68.68,0,0,1-.3-.53v-.09c0-.2.14-.28.31-.18Z" transform="translate(-19.02 -9.15)"/><path class="cls-10" d="M129.66,17,116.9,9.63c-2-1.12-3.54-.22-3.54,2l-.07,23.7a7.73,7.73,0,0,0,3.52,6.1l12.76,7.37c2,1.13,3.53.22,3.54-2l.07-23.7A7.79,7.79,0,0,0,129.66,17Zm-11.29-3.33c0-.2.14-.28.31-.18l8.09,4.67a.65.65,0,0,1,.3.53v.1c0,.19-.14.27-.3.17l-8.1-4.67a.68.68,0,0,1-.3-.53v-.09m0,1.67c0-.19.14-.27.31-.17l7.22,4.16a.69.69,0,0,1,.31.54V20c0,.19-.14.27-.31.18L118.67,16a.69.69,0,0,1-.31-.53v-.1m0,1.33c0-.2.14-.28.31-.18l4.76,2.75a.69.69,0,0,1,.31.53v.1c0,.19-.14.27-.31.17l-4.76-2.75a.67.67,0,0,1-.31-.53v-.09m-1.68-5.32a2.67,2.67,0,0,1,1.21,2.08c0,.77-.55,1.08-1.21.69a2.6,2.6,0,0,1-1.2-2.08c0-.76.54-1.07,1.2-.69m15,32c0,2.52-1.38,3.9-3.3,3.69v.16l-.45-.24a5.45,5.45,0,0,1-1.5-.61l-6.89-4-.29-.17-.36-.2-.68-.39c0-.07,0-.14,0-.21h0a11.7,11.7,0,0,1-3.88-8.06l0-11.66c0-3.31,2.37-4.66,5.24-3l6.9,4a11.54,11.54,0,0,1,5.21,9l0,11.66" transform="translate(-19.02 -9.15)"/><path class="cls-3" d="M119.22,42.15l.84.48h0l-.55-.32Z" transform="translate(-19.02 -9.15)"/><path class="cls-6" d="M125.86,35.7l-.5-.29h0a4.56,4.56,0,0,1-.77-.52l-.07,0c-.12-.08-.37-.34-.12-1.26a1.5,1.5,0,0,0,1-.26A10.07,10.07,0,0,0,125.86,35.7Z" transform="translate(-19.02 -9.15)"/><path class="cls-11" d="M123.34,24.59a2.43,2.43,0,0,1,1.09,1.89,1.38,1.38,0,0,1,0,.22,8.51,8.51,0,0,0-1.07-.85l-.09-.05a3.67,3.67,0,0,0-1-.4,1.1,1.1,0,0,1,0-.18C122.25,24.53,122.74,24.25,123.34,24.59Z" transform="translate(-19.02 -9.15)"/><path class="cls-8" d="M123.43,19.24a.69.69,0,0,1,.31.53v.1c0,.19-.14.27-.31.17l-4.76-2.75a.67.67,0,0,1-.31-.53v-.09c0-.2.14-.28.31-.18Z" transform="translate(-19.02 -9.15)"/></g><path class="cls-2" d="M116.68,11.35a2.67,2.67,0,0,1,1.21,2.08c0,.77-.55,1.08-1.21.69a2.6,2.6,0,0,1-1.2-2.08C115.48,11.28,116,11,116.68,11.35Z" transform="translate(-19.02 -9.15)"/><polygon class="cls-12" points="137.59 129.39 137.58 129.4 137.59 129.4 137.59 129.39"/><path class="cls-12" d="M154.66,49.53l-.12.13v0Z" transform="translate(-19.02 -9.15)"/><path class="cls-12" d="M148.78,39l1-.06A4.57,4.57,0,0,0,148.78,39Z" transform="translate(-19.02 -9.15)"/><path class="cls-12" d="M159.13,66.84a42,42,0,0,0-1.94,8.65,4.42,4.42,0,0,1,.45.46c1.45-.78,2.55-1.33,2.55-1.33Z" transform="translate(-19.02 -9.15)"/><path class="cls-13" d="M151.36,104.57c.1,1.73.22,3.56.33,4.67.25,2.58,2.14,19.78,2.14,21.54,0,1.48-.53,5.6-.7,6.91h0a5,5,0,0,0,3.48.86h0a9,9,0,0,0,.85-3.32c.2-1.89-.19-2.5-.08-3.51l.11-1.77c-1.08-3.06.87-16.73-.52-21.74a11.26,11.26,0,0,1,.19-3.6A26.17,26.17,0,0,1,151.36,104.57Z" transform="translate(-19.02 -9.15)"/><path class="cls-13" d="M143.7,102.27a44.25,44.25,0,0,0,.78,6c.85,3.87,4.63,19.09,4.53,20.22s-.09,4.75-2.08,6.83h0s.34,1.49,2.25,1c.61-.31.85-1.23.95-1.56a6,6,0,0,1,1.34-2.6c1-1.23,1.64-1.91,1.68-2.67a.65.65,0,0,0-.07-.21,9,9,0,0,1-1.18-3c-.1-.85-1.44-16.26-2-19.13a13.45,13.45,0,0,1-.09-2.79,25.1,25.1,0,0,1-3.14-.85A27.14,27.14,0,0,1,143.7,102.27Z" transform="translate(-19.02 -9.15)"/><path class="cls-14" d="M153.18,131.88c-.94.76-1.65,1.1-2.09,1.85.32,0,.91,0,1,.37a18.12,18.12,0,0,1,.22,1.86.48.48,0,0,0,.43-.08,7.22,7.22,0,0,1,.43-3,4.32,4.32,0,0,0,.5-1.69A1.48,1.48,0,0,1,153.18,131.88Z" transform="translate(-19.02 -9.15)"/><path class="cls-14" d="M146.26,138.48c-.59,0-.9-.57-1-1a1,1,0,0,0,.14.86c.92,1,3.74.22,4.68-.56a1.69,1.69,0,0,0,.56-1.14A6.12,6.12,0,0,1,146.26,138.48Z" transform="translate(-19.02 -9.15)"/><path class="cls-15" d="M150.13,134.69c-.1.33-.34,1.25-.95,1.56-1.91.52-2.25-1-2.25-1h0a4.83,4.83,0,0,0-1.72,2.23c.15.4.46,1,1,1a6.12,6.12,0,0,0,4.33-1.81,13.62,13.62,0,0,1,.24-2.38,3.63,3.63,0,0,1,.26-.56c.44-.75,1.15-1.09,2.09-1.85a1.48,1.48,0,0,0,.5-.72,2,2,0,0,0-.53-1.74h0c0,.76-.64,1.44-1.68,2.67A6,6,0,0,0,150.13,134.69Z" transform="translate(-19.02 -9.15)"/><path class="cls-14" d="M154.07,141.86c-.49.07-.92-.56-1.21-1.15.22,1.06.72,1.81,1.1,1.71,3.28-1,3.7-3.87,3.73-6A12.87,12.87,0,0,1,157,139,5,5,0,0,1,154.07,141.86Z" transform="translate(-19.02 -9.15)"/><path class="cls-15" d="M157.47,135.22a9,9,0,0,1-.85,3.32h0a5,5,0,0,1-3.48-.86h0a5.15,5.15,0,0,0-.27,3c.29.59.72,1.22,1.21,1.15A5,5,0,0,0,157,139a12.87,12.87,0,0,0,.72-2.66v-.48c0-2.2.73-3.94.57-4.77a1.84,1.84,0,0,0-.76-1.19l-.11,1.77C157.28,132.72,157.67,133.33,157.47,135.22Z" transform="translate(-19.02 -9.15)"/><path class="cls-16" d="M154.4,81.62a0,0,0,0,1,0,0,.93.93,0,0,0,0-.14Z" transform="translate(-19.02 -9.15)"/><path class="cls-16" d="M157.17,104.6h.17a9.61,9.61,0,0,0,7.73-4.47C164,89.89,162,83.66,160.2,80c-2.65.82-5.51,1.31-5.78,1.56,0,.1,0,.13,0,0s-4.06.87-5.55,2.21-4.64-.45-3.81-.71,1.08-3.13,2.68-3.7a23.47,23.47,0,0,1,5.18-.68c1.41-.95,3.26-2,4.74-2.79a4.42,4.42,0,0,0-.45-.46,3.5,3.5,0,0,1-.71.56c-2,1.25-7.16,2.28-13.13-4.15v-.16c-4.51,4.31-7.81,17.21-7.81,24.18a15.19,15.19,0,0,0,2.11,2.41,20.63,20.63,0,0,0,3.39,2.53,26.79,26.79,0,0,0,2.66,1.41,27.14,27.14,0,0,0,3,1.19,25.1,25.1,0,0,0,3.14.85c.51.11,1,.19,1.52.26A26.17,26.17,0,0,0,157.17,104.6Z" transform="translate(-19.02 -9.15)"/><path class="cls-16" d="M154.4,81.62c0,.09,0,.06,0,0A0,0,0,0,0,154.4,81.62Z" transform="translate(-19.02 -9.15)"/><path class="cls-16" d="M156.48,76.05c.78-7.71,2.32-10.55,2.32-10.55l.33,1.34,1.06,7.78s-1.1.55-2.55,1.33-3.33,1.84-4.74,2.79a3.19,3.19,0,0,1,1.5,2.7.93.93,0,0,1,0,.14c.27-.25,3.13-.74,5.78-1.56,2.29-.71,4.42-1.68,4.59-3,.71-2.62-1.55-17.53-2.26-19-.49-1-3.64-2.64-5.89-3.76a3.76,3.76,0,0,1-.17.72c.77,1.92,1,4.92-1.38,6.17-1.3,2.4-4.42,2-4.42,2a4.16,4.16,0,0,0,1.91-1.45h-.52c.35-.27.68-.55,1-.83a5,5,0,0,0,.08-3.17,5.91,5.91,0,0,1-1.12.11c-2.59,0-4.68-1.8-4.68-4a3.65,3.65,0,0,1,.48-1.78c-1.34-.11-1.79-.63-2-1.08-.06-.11-.11-.22-.16-.33a7,7,0,0,1-.64,2.82l-.06.13c-1,2-1.35,3.53-.89,4.45a8.36,8.36,0,0,1-1.32-1.49,2.93,2.93,0,0,0,0,2.54,2.76,2.76,0,0,1-.64-1.29c-1.51,3.59,0,4.52.68,5.55h0c4.62,4.23,11.61,3.79,11.61,3.79-4.25,1.34-8.55-.12-10.11-.73a24.09,24.09,0,0,0-.94,5.32v.16C149.32,78.33,154.45,77.3,156.48,76.05Z" transform="translate(-19.02 -9.15)"/><path class="cls-17" d="M158.8,65.5s-1.54,2.84-2.32,10.55a3.5,3.5,0,0,0,.71-.56,42,42,0,0,1,1.94-8.65Z" transform="translate(-19.02 -9.15)"/><path class="cls-17" d="M154.4,67.15s-7,.44-11.61-3.79h0a2.58,2.58,0,0,1,.18.32c.55,1.28.47,6.25.38,8.06a24.09,24.09,0,0,1,.94-5.32C145.85,67,150.15,68.49,154.4,67.15Z" transform="translate(-19.02 -9.15)"/><path class="cls-13" d="M156.47,55a3.76,3.76,0,0,0,.17-.72L156,54c.07.17.14.33.22.49A5.67,5.67,0,0,1,156.47,55Z" transform="translate(-19.02 -9.15)"/><path class="cls-18" d="M152.06,61.75h.52a3.3,3.3,0,0,0,.46-.83C152.74,61.2,152.41,61.48,152.06,61.75Z" transform="translate(-19.02 -9.15)"/><path class="cls-19" d="M142.78,56.56a3.93,3.93,0,0,1-.56-1.17,5.77,5.77,0,0,0-.18,2c0,.13,0,.25.07.37a2.76,2.76,0,0,0,.64,1.29A2.93,2.93,0,0,1,142.78,56.56Z" transform="translate(-19.02 -9.15)"/><path class="cls-13" d="M154.4,81.44a3.19,3.19,0,0,0-1.5-2.7,23.47,23.47,0,0,0-5.18.68c-1.6.57-1.85,3.45-2.68,3.7s2.32,2,3.81.71,5.55-2.21,5.55-2.21Z" transform="translate(-19.02 -9.15)"/><path class="cls-13" d="M125.61,66.39c-1-.23-3.32-2.84-4.11-1.56-.44,1.19.67,1.81-1.55,1.28-.8-.34-2-.36-1,1.44,1,1,1.45,2.08,6.39,1.9A5.62,5.62,0,0,1,125.61,66.39Z" transform="translate(-19.02 -9.15)"/><path class="cls-16" d="M136.87,66.39s2-.74,4.38-4.32a9.61,9.61,0,0,1,2.9-3.33c.11-.11,2.9-3.88,2.86-6.22,0-1.63-2.86-2.11-2.86-2.11s-3.58-.6-5.37,5c-1.73,3.35-3.27,5.74-3.27,5.74s-8.58,4.77-9.69,5.26a.37.37,0,0,1-.21,0,5.62,5.62,0,0,0-.32,3.06c.5,0,1,0,1.64-.1C130.88,68.43,136.87,66.39,136.87,66.39Z" transform="translate(-19.02 -9.15)"/><path class="cls-13" d="M152.71,54.46a2.19,2.19,0,0,1-.85.17A2.52,2.52,0,0,1,149.47,52a8.82,8.82,0,0,1-1.67,0,3.65,3.65,0,0,0-.48,1.78c0,2.22,2.09,4,4.68,4a5.91,5.91,0,0,0,1.12-.11c0-.1-.05-.2-.08-.3A8.2,8.2,0,0,1,152.71,54.46Z" transform="translate(-19.02 -9.15)"/><path class="cls-20" d="M151.86,54.63a2.19,2.19,0,0,0,.85-.17,9.23,9.23,0,0,1,1.82-4.77v0a8,8,0,0,1-2.28,1.85,21.44,21.44,0,0,1-2.79.51A2.52,2.52,0,0,0,151.86,54.63Z" transform="translate(-19.02 -9.15)"/><path class="cls-18" d="M155.5,60.06a4.59,4.59,0,0,1-.41,1.12c2.39-1.25,2.15-4.25,1.38-6.17a5.67,5.67,0,0,0-.24-.55c-.08-.16-.15-.32-.22-.49a10.78,10.78,0,0,1-.12-5.45h0C153.23,54.41,156.32,56.44,155.5,60.06Z" transform="translate(-19.02 -9.15)"/><path class="cls-19" d="M155.89,48.52a1.93,1.93,0,0,1-.44.09s-.32.41-.79.92l-.13.16a9.23,9.23,0,0,0-1.82,4.77,8.2,8.2,0,0,0,.33,3c0,.1.05.2.08.3a5,5,0,0,1-.08,3.17,3.3,3.3,0,0,1-.46.83,4.16,4.16,0,0,1-1.91,1.45s3.12.38,4.42-2a4.59,4.59,0,0,0,.41-1.12C156.32,56.44,153.23,54.41,155.89,48.52Z" transform="translate(-19.02 -9.15)"/><path class="cls-18" d="M145.34,49.81a5.6,5.6,0,0,1-1.11,1.61c-.47.54-1,1.09-1.55,1.78a3.5,3.5,0,0,0-.34.58,2.44,2.44,0,0,0-.12,1.61,3.93,3.93,0,0,0,.56,1.17,8.36,8.36,0,0,0,1.32,1.49c-.46-.92-.1-2.48.89-4.45l.06-.13a7,7,0,0,0,.64-2.82C145.56,50.36,145.44,50.08,145.34,49.81Z" transform="translate(-19.02 -9.15)"/><path class="cls-13" d="M145.34,49.81c.1.27.22.55.35.84.05.11.1.22.16.33.16.45.61,1,2,1.08a8.82,8.82,0,0,0,1.67,0,21.44,21.44,0,0,0,2.79-.51,8,8,0,0,0,2.28-1.85l.12-.13c.47-.51.79-.92.79-.92a1.93,1.93,0,0,0,.44-.09h0a1.9,1.9,0,0,0,1.4-1.69c-.19-1-1.42-1.52-2.42-.46a12.81,12.81,0,0,1-5.11-7.45h0l-1,.06a5.31,5.31,0,0,0-3.66,2.68h0a6.68,6.68,0,0,0-.1,2,8.47,8.47,0,0,0-.2,4.31,10.94,10.94,0,0,0,.38,1.4C145.24,49.54,145.29,49.67,145.34,49.81Z" transform="translate(-19.02 -9.15)"/><path class="cls-21" d="M148.78,39a4.57,4.57,0,0,1,1-.06h0a12.81,12.81,0,0,0,5.11,7.45c1-1.06,2.23-.58,2.42.46.58-.52,3.83-5-.52-8.73s-11.58-1.87-11.65,3.55h0A5.32,5.32,0,0,1,148.78,39Z" transform="translate(-19.02 -9.15)"/><path class="cls-19" d="M145.2,49.4a17.94,17.94,0,0,1-1,2,5.6,5.6,0,0,0,1.11-1.61C145.29,49.67,145.24,49.54,145.2,49.4Z" transform="translate(-19.02 -9.15)"/><path class="cls-22" d="M119.05,63.93s-2.36-1.18-2,.28l.39,1.46s0,1,2,1.64c1.69.76,4,1.76,4,1.76s.9.62,1.13-.26a26.06,26.06,0,0,0-1.07-2.54S120,64.3,119.05,63.93Z" transform="translate(-19.02 -9.15)"/><path class="cls-23" d="M119.8,64.47s-1.91-1-1.45.2l.29,1.07s0,.72,1.5,1.21c1.24.56,2.94,1.29,2.94,1.29s.66.46.83-.19a17.57,17.57,0,0,0-.78-1.87S120.51,64.74,119.8,64.47Z" transform="translate(-19.02 -9.15)"/><circle class="cls-24" cx="131.42" cy="12.31" r="6.53"/><path class="cls-25" d="M154.24,19.52a2.15,2.15,0,0,0-1-1.25,2.29,2.29,0,0,0-2.43.34,2.89,2.89,0,0,0-.4.38,4.75,4.75,0,0,0-.4-.38,2.3,2.3,0,0,0-2.44-.34,2.1,2.1,0,0,0-1,1.25,4.34,4.34,0,0,0,1.2,4.22,9.56,9.56,0,0,0,2.59,1.88A9.72,9.72,0,0,0,153,23.74,4.39,4.39,0,0,0,154.24,19.52Z" transform="translate(-19.02 -9.15)"/><path class="cls-26" d="M81.06,69.84a11.11,11.11,0,1,0-14.44,10.6h0L70,85.86l3.34-5.42h0A11.12,11.12,0,0,0,81.06,69.84Z" transform="translate(-19.02 -9.15)"/><rect class="cls-26" y="59.28" width="24.14" height="10.89" rx="3"/><circle class="cls-27" cx="4.42" cy="64.72" r="3.09"/><rect class="cls-25" x="9.49" y="62.55" width="11.15" height="1.25" rx="0.63"/><rect class="cls-25" x="9.49" y="65.64" width="6.84" height="1.25" rx="0.63"/><rect class="cls-26" x="142.75" y="18.05" width="27.9" height="12.59" rx="3"/><circle class="cls-27" cx="147.85" cy="24.35" r="3.57"/><rect class="cls-25" x="153.73" y="21.84" width="12.89" height="1.45" rx="0.71"/><rect class="cls-25" x="153.73" y="25.41" width="7.91" height="1.45" rx="0.71"/><path class="cls-28" d="M74,95.15c-.56-1.46-1.9-1.82-2-1.07A5.4,5.4,0,0,1,70.19,97a5.19,5.19,0,0,0-1.65,4.31l-.81,3.55a2.71,2.71,0,0,1,3.52,1.74s.2-1.94.65-4.74C73,100.71,74.53,96.61,74,95.15Z" transform="translate(-19.02 -9.15)"/><path class="cls-29" d="M40,94.61c-1.25,1.37-3.93,6.08-3.18,20.85a18.94,18.94,0,0,0,2.92,6.48C38.35,114.13,37.87,97.81,40,94.61Z" transform="translate(-19.02 -9.15)"/><path class="cls-30" d="M52.66,180.31a4.76,4.76,0,0,1-2.46-.8,9.84,9.84,0,0,1-.5,3.19,9.8,9.8,0,0,0-.14,3.86s.33,1.08,2.36,1.18,4.07-1,5.52-1.6a12.58,12.58,0,0,1,4.28-.46,3.14,3.14,0,0,0,.29-2.05,3.81,3.81,0,0,0-1.29-2.18h0c-.42,0-.82.06-1.21.07l.45.7a.29.29,0,0,1-.09.39.28.28,0,0,1-.39-.08l-.57-.91a.21.21,0,0,1,0-.1l-.52,0,.36.57a.28.28,0,0,1-.08.39h0a.29.29,0,0,1-.39-.09l-.58-.9,0-.05-.52-.11.35.55a.28.28,0,1,1-.48.3l-.57-.9a.28.28,0,0,1,0-.2,1.49,1.49,0,0,1-.86-1.37A4.35,4.35,0,0,1,52.66,180.31Z" transform="translate(-19.02 -9.15)"/><path class="cls-25" d="M62,183.63a3.14,3.14,0,0,1-.29,2.05,12.58,12.58,0,0,0-4.28.46c-1.45.62-3.48,1.7-5.52,1.6s-2.36-1.18-2.36-1.18a1.76,1.76,0,0,0,.89,2c1.06.62,4.34-.15,5.42-.83a6.44,6.44,0,0,1,3.4-.83c1.14,0,4.86.08,5.5-3.49,0-.66,0-2.32-2.32-2.12l-1.73.15h0A3.81,3.81,0,0,1,62,183.63Z" transform="translate(-19.02 -9.15)"/><path class="cls-25" d="M56.42,181.25l.57.9a.28.28,0,1,0,.48-.3l-.35-.55-.23-.35a.28.28,0,0,0-.38-.09.27.27,0,0,0-.13.19A.28.28,0,0,0,56.42,181.25Z" transform="translate(-19.02 -9.15)"/><path class="cls-25" d="M58.24,182.36a.29.29,0,0,0,.39.09h0a.28.28,0,0,0,.08-.39l-.36-.57-.21-.33a.28.28,0,0,0-.5.25l0,.05Z" transform="translate(-19.02 -9.15)"/><path class="cls-25" d="M59.48,182.53a.28.28,0,0,0,.39.08.29.29,0,0,0,.09-.39l-.45-.7-.12-.2a.28.28,0,0,0-.52.2.21.21,0,0,0,0,.1Z" transform="translate(-19.02 -9.15)"/><path class="cls-25" d="M35.25,176.61a10.46,10.46,0,0,0,.28-1.31A10.46,10.46,0,0,1,35.25,176.61Z" transform="translate(-19.02 -9.15)"/><path class="cls-25" d="M43.08,175.53a3.46,3.46,0,0,1-1.33,1.73,7.71,7.71,0,0,0-2,2.3,3.12,3.12,0,0,1-3.16,1.81,2.06,2.06,0,0,1-1.7-1.59h0a2.23,2.23,0,0,0,.17,1.8,3,3,0,0,0,4,.24c1.67-1.17,1.44-2.59,2.42-3.52s2.23-1.92,2.2-3.86c0-1.67-1.25-3.21-2.54-2.93-.13.5-.25.91-.33,1.21A3.81,3.81,0,0,1,43.08,175.53Z" transform="translate(-19.02 -9.15)"/><path class="cls-25" d="M35.53,175.3l.06-.45Z" transform="translate(-19.02 -9.15)"/><path class="cls-25" d="M35.7,173.36c0,.39-.05.92-.11,1.49.06-.57.1-1.1.11-1.49Z" transform="translate(-19.02 -9.15)"/><path class="cls-30" d="M36.62,181.37a3.12,3.12,0,0,0,3.16-1.81,7.71,7.71,0,0,1,2-2.3,3.46,3.46,0,0,0,1.33-1.73,3.81,3.81,0,0,0-2.27-2.81l-.15.54s-.83,1.31-3.26.77a5.25,5.25,0,0,1-1.7-.67c0,.39-.05.92-.11,1.49l-.06.45a10.46,10.46,0,0,1-.28,1.31.93.93,0,0,1,0,.13.65.65,0,0,1,0,.13,9.2,9.2,0,0,0-.25,2.91h0A2.06,2.06,0,0,0,36.62,181.37Z" transform="translate(-19.02 -9.15)"/><path class="cls-31" d="M40.9,125.76a14.85,14.85,0,0,0-1.39,5.63c-.22,6.11.63,15.12.6,16.08a17,17,0,0,1-.83,5.07c-.62,1.78-4.58,19.62-4.58,19.62a2.16,2.16,0,0,0,1,1.2h0a5.25,5.25,0,0,0,1.7.67c2.43.54,3.26-.77,3.26-.77l.15-.54c.08-.3.2-.71.33-1.21,1.32-4.88,5-18.47,5.82-21.65l0,.16c0-3.89.09-12.35,0-14.21a9.75,9.75,0,0,1-4.6-2.41,24.45,24.45,0,0,0,7.52,1.95s.91,10.67,1,14.11a59.26,59.26,0,0,1-.08,8.8c-.29,2.2-1.33,20.47-1.33,20.47a2.34,2.34,0,0,0,.75.78,4.76,4.76,0,0,0,2.46.8,4.35,4.35,0,0,0,2.86-.63,2.21,2.21,0,0,0,.55-.51s1.85-21.11,2.27-26.09,1.32-29,1.32-29C59,126.22,56.43,131.65,40.9,125.76Z" transform="translate(-19.02 -9.15)"/><path class="cls-31" d="M47,149.71v0Z" transform="translate(-19.02 -9.15)"/><path class="cls-31" d="M47,149.64h0Z" transform="translate(-19.02 -9.15)"/><path class="cls-32" d="M46.91,135.81c.1,1.86.05,10.32,0,14.21l0-.16,0-.13v0l0-.06h0l.07-.26c.54-2.24,2.74-14,2.74-14a24.45,24.45,0,0,1-7.52-1.95A9.75,9.75,0,0,0,46.91,135.81Z" transform="translate(-19.02 -9.15)"/><path class="cls-33" d="M59.22,100.25a12.19,12.19,0,0,0-4-2.61,19.13,19.13,0,0,1-2.24-.7h0c-2.17.06-5.4.2-6.65-.91-.67-.67-.5-1.19-.23-1.52h0c-1.3-.23-3.81-1-5.49-.43a1.2,1.2,0,0,0-.61.53c-2.15,3.2-1.67,19.52-.26,27.33a11.7,11.7,0,0,0,1.14,3.82c15.53,5.89,18.1.46,18.76-1.7a53.08,53.08,0,0,0,.21-9.47,38.5,38.5,0,0,1-3.24-5.48C56,107.33,54.75,101,59.22,100.25Z" transform="translate(-19.02 -9.15)"/><path class="cls-28" d="M46.35,96c1.25,1.11,4.48,1,6.65.91h0l-.14-.06h0l-.11-.06h0l-.11-.06,0,0-.09-.06,0,0-.08-.06,0,0-.07-.06,0,0-.06-.07,0,0,0-.07,0,0,0-.07s0,0,0,0l0-.07s0,0,0,0,0,0,0-.08a.09.09,0,0,1,0,0s0-.05,0-.08a.43.43,0,0,0,0,0v-.09s0,0,0-.06,0-.06,0-.09v0s0-.07,0-.11a.09.09,0,0,1,0-.05.94.94,0,0,1,0-.16h0a2.62,2.62,0,0,1,.76-1.32,2,2,0,0,1,.41-.28l.12,0a3.42,3.42,0,0,1,.64-.22l.14,0,.3-.06.19,0,.46-.08.26,0,.26,0,.28,0c1.36-.19,1.64-2.53,1.56-4.48h0c0-.14,0-.28,0-.41a.81.81,0,0,0,0-.16,2,2,0,0,0,0-.25A8,8,0,0,0,57,85.93a9.63,9.63,0,0,0,0-1.53,7.63,7.63,0,0,1-1.87,1.75,19.6,19.6,0,0,1,.55,2.38l-.27.28s-.64-1.34-1.58-1.43a1.47,1.47,0,0,0-.61,2.76c-.74,1.27-2,2.8-5.71,2.63h0c0,1-.18,1.55-.63,1.77l-.06,0h-.49l-.08,0h0l-.11,0h0C45.85,94.84,45.68,95.36,46.35,96Z" transform="translate(-19.02 -9.15)"/><path class="cls-34" d="M53.24,90.14a1.47,1.47,0,0,1,.61-2.76c.94.09,1.58,1.43,1.58,1.43l.27-.28a19.6,19.6,0,0,0-.55-2.38A7.63,7.63,0,0,0,57,84.4a3.43,3.43,0,0,0,.47-3.77S45.27,75.5,44.75,85.91a6.74,6.74,0,0,0,1.41,3.62c.5.75.91,3.18,1.37,3.24h0C51.28,92.94,52.5,91.41,53.24,90.14Z" transform="translate(-19.02 -9.15)"/><path class="cls-33" d="M67.73,104.84l-.3.08c-.63.18-1.14,1.46-1.51,2.81a23.1,23.1,0,0,0,.77,6.6c-.88-1.86-1.46-3.14-1.46-3.14s-2.41-6.52-4.28-9c-.06-.09-.13-.17-.19-.25l-.06-.08c-.05,0-.09-.11-.14-.17l-.07-.08-.13-.16-.07-.08-.15-.16,0-.07-.18-.18,0,0q-.33-.34-.66-.66h0c-4.47.73-3.25,7.08-2.59,8.86a38.5,38.5,0,0,0,3.24,5.48s2.58,4.9,5.56,4.86a1.56,1.56,0,0,0,.56-.12,1.51,1.51,0,0,0,.28-.15,2.66,2.66,0,0,0,.55-.43,3.63,3.63,0,0,0,.27-.28l.13-.15a5.64,5.64,0,0,0,.4-.53l.26-.39c.21-.34.41-.71.61-1.1s.4-.81.58-1.24a31.61,31.61,0,0,0,2.11-7.36c0-.19,0-.37,0-.54a.86.86,0,0,0,0-.16c0-.1,0-.2,0-.29v-.13A2.71,2.71,0,0,0,67.73,104.84Z" transform="translate(-19.02 -9.15)"/><path class="cls-29" d="M65.92,107.73h0a29.39,29.39,0,0,0-.67,3.27h0v0h0v0h0v0h0s.58,1.28,1.46,3.14A23.1,23.1,0,0,1,65.92,107.73Z" transform="translate(-19.02 -9.15)"/><path d="M71.3,90.66a.46.46,0,0,1,.66-.31l2.24,1.29a.73.73,0,0,1,.26.85l-.17.49-.1.31-2.1,6a.46.46,0,0,1-.67.31l-2.23-1.29a.71.71,0,0,1-.26-.85Z" transform="translate(-19.02 -9.15)"/><path class="cls-35" d="M69.1,97.6a.46.46,0,0,0,.17.54l2.21,1.28a.29.29,0,0,0,.43-.2l2.37-6.81a.48.48,0,0,0-.17-.55l-.29-.16a0,0,0,0,0-.06,0v0a.15.15,0,0,1-.22.11l-1.25-.72a.27.27,0,0,1-.09-.29v0h0a.06.06,0,0,0,0-.07l-.29-.17a.3.3,0,0,0-.42.2Z" transform="translate(-19.02 -9.15)"/><ellipse class="cls-36" cx="72.5" cy="90.98" rx="0.06" ry="0.08" transform="translate(-24.06 -4.89) rotate(-3.25)"/><path class="cls-36" d="M72.73,91.11s0,0,0,.06l.47.27s0,0,0,0a0,0,0,0,0,0-.06l-.47-.27S72.74,91.09,72.73,91.11Z" transform="translate(-19.02 -9.15)"/><path class="cls-37" d="M71.86,99.63a.62.62,0,0,0,.23-.31l2.1-6,.1-.31.17-.49a.73.73,0,0,0-.26-.85L72,90.35a.38.38,0,0,0-.42,0h0l.18-.11h0a.42.42,0,0,1,.42,0l2.23,1.29a.73.73,0,0,1,.27.85l-.18.49-.1.31-2.1,6a.55.55,0,0,1-.24.31h0Z" transform="translate(-19.02 -9.15)"/><polygon class="cls-38" points="52.83 90.48 52.82 90.48 52.82 90.48 52.83 90.48"/><path class="cls-26" d="M60.29,49.34a9.27,9.27,0,1,0-14.57,7.59V56c0-2.72,1.8-5,4.07-5.23A3.2,3.2,0,0,1,48.33,48,2.9,2.9,0,0,1,51,44.9,2.9,2.9,0,0,1,53.61,48a3.2,3.2,0,0,1-1.46,2.79c2.27.26,4.07,2.51,4.07,5.23v1A9.27,9.27,0,0,0,60.29,49.34Zm-3.65-3.47H55.57V47h-.5V45.87H54v-.49h1.08V44.26h.5v1.12h1.07Z" transform="translate(-19.02 -9.15)"/><path class="cls-39" d="M52.15,50.81A3.2,3.2,0,0,0,53.61,48,2.9,2.9,0,0,0,51,44.9,2.9,2.9,0,0,0,48.33,48a3.2,3.2,0,0,0,1.46,2.79c-2.27.26-4.07,2.51-4.07,5.23v.89a9.27,9.27,0,0,0,10.5.08V56C56.22,53.32,54.42,51.07,52.15,50.81Z" transform="translate(-19.02 -9.15)"/><polygon class="cls-39" points="36.55 35.11 36.04 35.11 36.04 36.23 34.97 36.23 34.97 36.72 36.04 36.72 36.04 37.85 36.55 37.85 36.55 36.72 37.62 36.72 37.62 36.23 36.55 36.23 36.55 35.11"/><path class="cls-12" d="M133.84,126.73c-.57-.9,1.2-6.2,1.2-6.2a10.65,10.65,0,0,0-2.12-1.83c-1.12,3.21-.74,7.53-.45,9.88a7,7,0,0,0,.3,1.3l.54-.86S133.62,127.86,133.84,126.73Z" transform="translate(-19.02 -9.15)"/><path class="cls-40" d="M133.31,129l-.54.86c.64,2,1.84,4.1.66,6.74a7,7,0,0,1,.39,1.59,12.63,12.63,0,0,0,2.45-7.15A3.37,3.37,0,0,0,133.31,129Z" transform="translate(-19.02 -9.15)"/><path class="cls-40" d="M125.89,108.81l-.09-1.49a2.25,2.25,0,0,1-3.27-1.73c.64-.52,1.12-1.67.54-2.09-.77-.55-1.67-.06-2.28,1.16l-.38-.39a5.78,5.78,0,0,0,.35-2.08c-.13-.71-.9-1.61.52-3,.46-.45-.2-1.31-1.06-1.83a4.87,4.87,0,0,1-1-.82s-1.27.86-1.56,4c-.55,2.15-1.38,5.48.26,6.41,1.44.83,2.31,1,2.85,3.62a2.75,2.75,0,0,1,1.44-.56C124.39,109.72,125.73,109.15,125.89,108.81Z" transform="translate(-19.02 -9.15)"/><path class="cls-41" d="M112.52,202.35c-.41,0-.82-.08-1.22-.15C111.7,202.27,112.11,202.32,112.52,202.35Z" transform="translate(-19.02 -9.15)"/><path class="cls-41" d="M117.35,194.38h0s.13,1.15-2.26,1.72-6.36.29-7.51,2.54a3.91,3.91,0,0,0,3.37,2.82c2.31.42,6.7.13,7.47.29.79,0,5.55,1.31,6.38-1.06a2.41,2.41,0,0,1,0,.38c0,2.15-3.59,2-5.48,1.67-.33-.45-1.09-.56-2.08-.55,1,0,1.75.1,2.08.55,1.89.36,5.45.48,5.48-1.67s-.31-5.87-.76-6.69h0a7.11,7.11,0,0,1-3.35.89A5.35,5.35,0,0,1,117.35,194.38Z" transform="translate(-19.02 -9.15)"/><path class="cls-41" d="M112.52,202.35c.62,0,1.25,0,1.87,0C113.77,202.38,113.14,202.38,112.52,202.35Z" transform="translate(-19.02 -9.15)"/><path class="cls-41" d="M107.47,199.25c0,.85.66,2.16,3.14,2.8C108.13,201.41,107.49,200.1,107.47,199.25Z" transform="translate(-19.02 -9.15)"/><path class="cls-41" d="M115.6,202.28l-1.21.07Z" transform="translate(-19.02 -9.15)"/><path class="cls-41" d="M117.24,202.19c-.5,0-1,.05-1.64.09C116.19,202.24,116.74,202.2,117.24,202.19Z" transform="translate(-19.02 -9.15)"/><path class="cls-42" d="M119.32,202.74c1.89.36,5.45.48,5.48-1.67a2.41,2.41,0,0,0,0-.38c-.83,2.37-5.59,1.07-6.38,1.06-.77-.16-5.16.13-7.47-.29a3.91,3.91,0,0,1-3.37-2.82l-.06.13a1.73,1.73,0,0,0,0,.48c0,.85.66,2.16,3.14,2.8l.69.15c.4.07.81.12,1.22.15.62,0,1.25,0,1.87,0l1.21-.07c.59,0,1.14-.08,1.64-.09C118.23,202.18,119,202.29,119.32,202.74Z" transform="translate(-19.02 -9.15)"/><path class="cls-40" d="M101.8,128.27a9.09,9.09,0,0,1-1.71-3.43c-.18-1.49-.16-2.53-.53-2.49s-.85.36-.91,1.38-.08,1.57-.44,1.73-5.52-.85-6-.91-1.49.38-1.18.7,1.12.59,1.38,1a7.19,7.19,0,0,0,4,2.15c.85.23,3.54,2.79,3.54,2.79A3,3,0,0,1,101.8,128.27Z" transform="translate(-19.02 -9.15)"/><path class="cls-41" d="M126,188.1l0-.18Z" transform="translate(-19.02 -9.15)"/><path class="cls-41" d="M130,187.52a23.71,23.71,0,0,1-.55-2.61h0s-2.15-1-2.75-.54a4.21,4.21,0,0,0-.78,3.41,6.12,6.12,0,0,1,0-1.12,5.5,5.5,0,0,0,4.77,5c.82.19,2.09,2.16,4.16,2.23s2.29-1.3,2.29-1.3c.17-.79.5-2-.43-5.45h0a6.34,6.34,0,0,1-2.15,1C131.72,189,130.26,187.81,130,187.52Z" transform="translate(-19.02 -9.15)"/><path class="cls-41" d="M126.07,188.46c0-.06,0-.11,0-.16S126.06,188.4,126.07,188.46Z" transform="translate(-19.02 -9.15)"/><path class="cls-41" d="M126.19,188.82s0-.09,0-.13S126.18,188.77,126.19,188.82Z" transform="translate(-19.02 -9.15)"/><path class="cls-42" d="M134.8,193.87c-2.07-.07-3.34-2-4.16-2.23a5.5,5.5,0,0,1-4.77-5,6.12,6.12,0,0,0,0,1.12l0,.14,0,.18,0,.2s0,.1,0,.16.05.15.08.23,0,.08,0,.13.1.24.16.36c1,2.12,4.24,2.34,4.82,3.23a1.59,1.59,0,0,1,.14.74,4.91,4.91,0,0,0,4,1.71,1.75,1.75,0,0,0,1.76-2.29S136.87,194,134.8,193.87Z" transform="translate(-19.02 -9.15)"/><path class="cls-43" d="M125.59,163.68l0-.05Z" transform="translate(-19.02 -9.15)"/><path class="cls-43" d="M125.47,163.21v0Z" transform="translate(-19.02 -9.15)"/><path class="cls-43" d="M124.29,158.44h0Z" transform="translate(-19.02 -9.15)"/><path class="cls-43" d="M124.36,158.74l0-.09Z" transform="translate(-19.02 -9.15)"/><path class="cls-43" d="M124.24,158.25v0Z" transform="translate(-19.02 -9.15)"/><path class="cls-43" d="M124.2,158.12v0Z" transform="translate(-19.02 -9.15)"/><path class="cls-43" d="M124.86,160.69v0Z" transform="translate(-19.02 -9.15)"/><path class="cls-44" d="M118.52,140.73c-1.7.3-2.74-.1-3.28-.7h0s-.33,22.52,0,25.12,1.11,24.59,1.21,27.62a2.11,2.11,0,0,0,.9,1.61,5.35,5.35,0,0,0,3.33.89,7.11,7.11,0,0,0,3.35-.89A2,2,0,0,0,125,193c.24-1.73-.72-28.2-.86-29.88a44.37,44.37,0,0,1,.09-5l.29-10.11,4.09-1.87c.39,3.17-2,10.87-2.5,12.55a26.31,26.31,0,0,0-.39,5.45h0c.08.34.14.64.2.91.34,1.65,2.51,14.33,3.57,19.9a23.71,23.71,0,0,0,.55,2.61c.26.29,1.72,1.43,4.51.61a6.34,6.34,0,0,0,2.15-1,2.12,2.12,0,0,0,.94-1.52c0-.45-3.11-21.67-3.43-23.4-.29-1.55.56-18-.35-24a7,7,0,0,0-.39-1.59C132,139.84,121.55,140.18,118.52,140.73Z" transform="translate(-19.02 -9.15)"/><path class="cls-43" d="M125,161.2l0-.07Z" transform="translate(-19.02 -9.15)"/><path class="cls-43" d="M124.53,159.4v0Z" transform="translate(-19.02 -9.15)"/><path class="cls-43" d="M124.63,159.79v0Z" transform="translate(-19.02 -9.15)"/><path class="cls-43" d="M125.35,162.7v0Z" transform="translate(-19.02 -9.15)"/><path class="cls-43" d="M125.11,161.72l0-.08Z" transform="translate(-19.02 -9.15)"/><path class="cls-45" d="M126.07,158.65c.48-1.68,2.89-9.38,2.5-12.55L124.48,148l-.29,10.11v0l0,.09v0l0,.18h0l0,.21,0,.09c0,.17.1.37.16.6v.06c0,.11.06.23.1.36v0c.07.27.15.57.22.88v0c0,.14.07.29.11.44l0,.07c0,.14.07.29.1.44l0,.08c.08.31.16.62.23.92v.06c0,.14.07.29.11.43v.08c0,.14.07.28.1.42l0,.05q0,.23.09.42h0A26.31,26.31,0,0,1,126.07,158.65Z" transform="translate(-19.02 -9.15)"/><path class="cls-46" d="M120.22,97.37c.86.52,1.52,1.38,1.06,1.83-1.42,1.38-.65,2.28-.52,3a5.78,5.78,0,0,1-.35,2.08l.38.39c.61-1.22,1.51-1.71,2.28-1.16.58.42.1,1.57-.54,2.09a2.25,2.25,0,0,0,3.27,1.73c.19-1.09,2.76-2.5,4-3.79a2.77,2.77,0,0,0,.32-3.72c-.06-4.1-5.2-5.84-6.51-6.22s-3.3-.29-4.43-.77a2.39,2.39,0,0,0,0,3.73A4.87,4.87,0,0,0,120.22,97.37Z" transform="translate(-19.02 -9.15)"/><path class="cls-47" d="M141.25,117.76c-.19-1.59-4.52-6.23-5.94-7.12s-4-3.32-9-1.58h0a1.9,1.9,0,0,1,.41,1.09c0,.43-1.49,2-6.78,1.92,0,0-5.82,3.71-6.45,5s-4,10-4.81,14.05c-1.35-.38-4-2.14-5.27-1.92a8.09,8.09,0,0,1-1.63-1,3,3,0,0,0-1.88,2.91l1,1.06a8.13,8.13,0,0,0,2.14,2.48c1.56,1.27,5.7,4.69,8.3,4.35s3.8-5.48,3.8-5.48a47.09,47.09,0,0,1-.34,4.95,1.7,1.7,0,0,0,.43,1.49c.54.6,1.58,1,3.28.7,3-.55,13.47-.89,14.91-4.11,1.18-2.64,0-4.76-.66-6.74a7,7,0,0,1-.3-1.3c-.29-2.35-.67-6.67.45-9.88a10.65,10.65,0,0,1,2.12,1.83s-1.77,5.3-1.2,6.2c-.22,1.13-.53,2.29-.53,2.29a3.37,3.37,0,0,1,3,2,12,12,0,0,0,1.13-2.64s.67-.24,1.23-2.22S141.44,119.35,141.25,117.76Z" transform="translate(-19.02 -9.15)"/><path class="cls-25" d="M126.74,110.16a1.9,1.9,0,0,0-.41-1.09.64.64,0,0,0-.44-.26h0c-.16.34-1.5.91-3.72,1.18a2.75,2.75,0,0,0-1.44.56,2.14,2.14,0,0,0-.77,1.53C125.25,112.11,126.74,110.59,126.74,110.16Z" transform="translate(-19.02 -9.15)"/><rect class="cls-26" x="118.6" y="84.66" width="31.48" height="14.2" rx="3"/><circle class="cls-27" cx="124.36" cy="91.76" r="4.03"/><rect class="cls-25" x="130.98" y="88.93" width="14.54" height="1.63" rx="0.71"/><rect class="cls-25" x="130.98" y="92.96" width="8.93" height="1.63" rx="0.71"/></svg>