<svg id="Layer_1" data-name="Layer 1" xmlns="http://www.w3.org/2000/svg" viewBox="0 0 256.68 197.22"><defs><style>.cls-1{fill:#4d4c4d;}.cls-2{fill:#5f5470;}.cls-3{fill:#afc3e0;}.cls-4{fill:#e9e9e9;}.cls-5{fill:#827ebb;}.cls-6{fill:#9a95c8;}.cls-7{fill:#ccd1d9;}.cls-8{fill:#f9c5d1;}.cls-9{fill:#231438;}.cls-10{fill:#3a235f;}.cls-11{fill:#961b1e;}.cls-12{fill:#901a1c;}.cls-13{fill:#600c0c;}.cls-14{fill:#a11d21;}.cls-15{fill:#861719;}.cls-16{fill:#6b0d0e;}.cls-17{fill:#43296e;}.cls-18{fill:#ecb1b1;}.cls-19{fill:#eebbbc;}.cls-20{fill:#fff;}.cls-21{fill:#abafc8;}.cls-22{fill:#f7b042;}.cls-23{fill:#ffd589;}.cls-24{fill:#ffde9d;}.cls-25{fill:#494979;}.cls-26{fill:#585a88;}.cls-27{fill:#fad4d8;}.cls-28{fill:#494457;}.cls-29{fill:#bd6f75;}.cls-30{fill:#f0eff1;}.cls-31,.cls-51{fill:none;}.cls-32{fill:#f8c0c5;}.cls-33{fill:#2d283d;}.cls-34{fill:#c2c6d2;}.cls-35{fill:#ffc8bf;}.cls-36{fill:#b37c80;}.cls-37{fill:#8d595f;}.cls-38{fill:#e6e7ea;}.cls-39{fill:#4a425f;}.cls-40{fill:#f5f4f7;}.cls-41{fill:#332d4f;}.cls-42{fill:#fff8ea;}.cls-43{fill:#d5ddcb;}.cls-44{fill:#fff1c7;}.cls-45{fill:#a29976;}.cls-46{fill:#49a454;}.cls-47{fill:#afc4db;}.cls-48{fill:#f2f9fd;}.cls-49{fill:#e1e9f0;}.cls-50{fill:#5e051a;}.cls-51{stroke:#49a454;stroke-miterlimit:10;stroke-width:2px;}</style></defs><path class="cls-1" d="M60.19,88.54a6.29,6.29,0,0,1-5.73,0c-1.58-.91-1.57-2.4,0-3.32a6.32,6.32,0,0,1,5.73,0C61.79,86.14,61.78,87.63,60.19,88.54Z" transform="translate(-7.16 -8.44)"/><path class="cls-1" d="M29.62,99.58a6.29,6.29,0,0,1,5.73,0c1.58.91,1.57,2.4,0,3.32a6.35,6.35,0,0,1-5.73,0C28,102,28,100.49,29.62,99.58Z" transform="translate(-7.16 -8.44)"/><path class="cls-1" d="M79.18,99.58a6.29,6.29,0,0,1,5.73,0c1.58.91,1.57,2.4,0,3.32a6.32,6.32,0,0,1-5.73,0C77.58,102,77.59,100.49,79.18,99.58Z" transform="translate(-7.16 -8.44)"/><path class="cls-1" d="M54.32,113.93a6.29,6.29,0,0,1,5.73,0c1.58.92,1.57,2.4,0,3.32a6.29,6.29,0,0,1-5.73,0C52.72,116.33,52.73,114.85,54.32,113.93Z" transform="translate(-7.16 -8.44)"/><path class="cls-1" d="M59,110.94a3.66,3.66,0,0,1-3.32,0,1,1,0,0,1,0-1.92A3.66,3.66,0,0,1,59,109,1,1,0,0,1,59,110.94Z" transform="translate(-7.16 -8.44)"/><path class="cls-2" d="M22.5,128.19a3.66,3.66,0,0,1,3.32,0,1,1,0,0,1,0,1.93,3.66,3.66,0,0,1-3.32,0A1,1,0,0,1,22.5,128.19Z" transform="translate(-7.16 -8.44)"/><path class="cls-2" d="M88.71,128.19a3.66,3.66,0,0,1,3.32,0,1,1,0,0,1,0,1.93,3.66,3.66,0,0,1-3.32,0A1,1,0,0,1,88.71,128.19Z" transform="translate(-7.16 -8.44)"/><path class="cls-2" d="M55.49,147.37a3.69,3.69,0,0,1,3.33,0c.91.53.9,1.39,0,1.92a3.66,3.66,0,0,1-3.32,0A1,1,0,0,1,55.49,147.37Z" transform="translate(-7.16 -8.44)"/><polygon class="cls-2" points="21.26 92.8 14.64 120.71 19.34 120.71 29.37 92.8 21.26 92.8"/><polygon class="cls-2" points="78.93 92.8 85.55 120.71 80.85 120.71 70.82 92.8 78.93 92.8"/><polygon class="cls-1" points="54.23 78.44 46.12 78.44 47.85 101.54 52.55 101.54 54.23 78.44"/><polygon class="cls-2" points="45.95 107.15 47.64 139.89 52.33 139.89 54.07 107.15 45.95 107.15"/><path class="cls-3" d="M61.21,59v0a2.38,2.38,0,0,0,0-.26l.06-.25v-.07c0-.06,0-.13,0-.19s0-.18.08-.26l0-.09v-.06a.36.36,0,0,0,0-.11l.09-.25a1.34,1.34,0,0,1,.07-.18v-.06l.09-.23.1-.24,0,0,0-.05.06-.13.12-.25a.54.54,0,0,1,.07-.13l0-.07,0-.09c.07-.14.15-.27.23-.41h0a6.65,6.65,0,0,1,.39-.63l0,0c.09-.14.19-.27.28-.39v0l.2-.25.07-.09.06-.07.06-.08.18-.22,0,0,0-.05a.86.86,0,0,1,.13-.14l.14-.15,0,0,0,0c.07-.07.13-.14.21-.21l.06-.06.07-.06.08-.08.22-.19h0l.19-.16.11-.09.06,0,0,0a1.37,1.37,0,0,1,.21-.15l.06,0,.06,0,.09-.06.2-.13,0,0,.16-.08.06,0,.08-.05.06,0,.1,0,.07,0h0l.19-.08.2-.08h0l.07,0,.1,0,0,0,.08,0,.07,0,.07,0h.13l.08,0h.88l.23,0h0l.31.09h0l.13.05.06,0,.19.09L98.57,68.5l-.18-.1-.07,0-.13-.05,0,0-.32-.08h0l-.23,0h-.66l-.11,0-.1,0-.13,0-.09,0-.13,0-.09,0-.15,0-.07,0-.45.18-.07,0-.16.08-.08,0-.22.12-.34.21-.06,0-.31.22-.06,0L94,69.6l0,0-.31.27L93.6,70l-.3.29,0,0-.27.29,0,.05-.27.32-.06.07-.27.35-.32.45c-.13.21-.27.42-.39.63s-.19.34-.28.51l0,.07c-.09.17-.17.34-.25.52l0,0c-.08.18-.16.37-.23.55v0c-.07.18-.13.37-.19.55l0,.05c-.06.18-.11.37-.16.55v0c0,.19-.1.39-.13.58l-5,22.1L56.18,81.1Z" transform="translate(-7.16 -8.44)"/><polygon class="cls-4" points="78.12 89.58 49.02 72.66 23.09 87.63 52.2 104.54 78.12 89.58"/><path class="cls-5" d="M19.84,89.84C16.34,74.3,7.45,44.55,7.29,43.79c0-.16,0-.32,0-.48a.22.22,0,0,1,0-.08c0-.07,0-.13,0-.2a1.79,1.79,0,0,0,0-.23v-.15a1.7,1.7,0,0,1,0-.22s0-.1,0-.16v-.43s0-.06,0-.09,0-.23,0-.34a1,1,0,0,1,0-.17v0a4.93,4.93,0,0,1,0-.55v0a.57.57,0,0,1,0-.13l0-.43v0l0-.24c0-.1,0-.2,0-.3a.22.22,0,0,1,0-.08c0-.09,0-.19,0-.28a2.34,2.34,0,0,1,0-.26.29.29,0,0,1,0-.09c0-.1,0-.21.06-.32a1.57,1.57,0,0,1,0-.23s0-.06,0-.09.05-.24.08-.36,0-.15.05-.22a.14.14,0,0,1,0-.07L7.83,37s0-.11,0-.17v0c.06-.25.14-.49.22-.73v0a1,1,0,0,1,0-.1c.08-.26.17-.51.27-.76l0-.11,0-.06c.12-.31.25-.62.38-.93,0,0,.05-.11.08-.17.13-.3.28-.61.43-.9,0,0,0-.09.07-.13.16-.31.32-.61.49-.9l0,0q.25-.44.54-.87a.22.22,0,0,0,.05-.08l0,0c.18-.28.37-.54.57-.8l.05-.08.07-.08c.15-.2.31-.4.47-.59l0-.05h0l.48-.54,0,0,.13-.13.3-.31.07-.07.13-.12a3.07,3.07,0,0,1,.26-.25.6.6,0,0,0,.08-.08l.14-.12.22-.19.09-.08.16-.12.2-.16.08-.06.19-.15.18-.13.06,0a2.9,2.9,0,0,1,.29-.19l.11-.08h0l.42-.26,0,0L41.2,11.33c.12-.07.24-.14.37-.2l0,0,.17-.09.2-.1.05,0,.19-.09.17-.07.07,0,.19-.07.15-.06.08,0,.21-.07.13-.05.09,0,.21-.06.13,0,.08,0,.23,0,.13,0h.07l.25,0,.13,0h.06l.3,0,.12,0h.58l.42,0h.2l.13,0,.27,0h.11l.13,0,.24,0,.16.05.22.07h0l.29.1,9.57,3.79a1.75,1.75,0,0,0-.32-.12l-.22-.07-.17,0L56.43,14l-.15,0h-.09l-.27,0-.13,0-.19,0-.43,0h-.55l-.15,0-.3,0-.18,0-.25,0-.21,0-.23.06-.21.05-.21.06-.22.07-.21.07-.23.09-.19.07-.24.1-.18.09-.26.12-.17.09-.41.22L25.05,30l-.48.29-.11.08-.34.23-.18.13-.28.21-.2.16-.25.2-.22.19-.22.2-.26.25-.2.19-.3.31-.16.17-.48.54-.05.06c-.16.19-.31.39-.47.59l-.12.16-.57.8-.09.13c-.18.29-.37.58-.54.87l0,0c-.17.29-.33.59-.49.9l-.07.13c-.15.29-.29.6-.43.9l-.08.18c-.13.3-.26.61-.38.92L18,39c-.1.25-.19.5-.27.76l-.05.15c-.08.24-.15.48-.22.73a1.33,1.33,0,0,0-.05.19c-.05.16-.09.33-.13.49s-.05.2-.07.29-.05.24-.08.36l-.06.32-.06.32-.06.35c0,.09,0,.19,0,.28s0,.25-.05.38l0,.24c0,.16,0,.32,0,.47s0,.1,0,.14c0,.2,0,.4,0,.6a.81.81,0,0,1,0,.16v.64c0,.13,0,.26,0,.39s0,.14,0,.22l0,.39c0,.06,0,.12,0,.19l.06.56c.17.76,3.25,15.12,6.75,30.64l.49.19.36.17.11.07a1.88,1.88,0,0,1,.23.16l.12.09a1.71,1.71,0,0,1,.2.18l.12.11.18.21.08.08a.08.08,0,0,0,0,0l.15.21.07.11s0,0,0,0a.75.75,0,0,1,.07.12l.09.16,0,.08.05.1a.54.54,0,0,1,.05.11,2.44,2.44,0,0,1,.1.24L33.92,98.2l-9.58-3.79" transform="translate(-7.16 -8.44)"/><path class="cls-6" d="M25.05,30c-5.37,3.1-9,11-8.19,17.61.17.76,3.15,14.67,6.65,30.21C24.64,78,33.92,98.2,33.92,98.2l25.92-15,2.39-23.39a15.34,15.34,0,0,1,1.52-6c-.79-17.1-1.6-31.55-1.64-32.37-.87-6.59-6-9.44-11.34-6.34Z" transform="translate(-7.16 -8.44)"/><path class="cls-5" d="M49,106.75l4.71,17.31a2.11,2.11,0,0,0,0,.26v0l0,.22v0a1.05,1.05,0,0,0,.05.19v0l.06.17h0l.09.17a1.12,1.12,0,0,0,.17.2s0,0,0,0a1.56,1.56,0,0,0,.2.16l-29.1-16.92a.75.75,0,0,1-.2-.15l-.05,0a1.56,1.56,0,0,1-.16-.2h0a.51.51,0,0,1-.09-.16h0l0-.12a.14.14,0,0,0,0-.06v-.06l0-.12v-.07a.09.09,0,0,1,0-.05s0-.07,0-.11a.13.13,0,0,0,0-.06v-.05s0-.07,0-.11v-.11h0L19.84,89.84Z" transform="translate(-7.16 -8.44)"/><path class="cls-6" d="M49.44,95.18a10.82,10.82,0,0,0-4.9,8.49c0,2.91,1.94,4.2,4.41,3.08l4.71,17.31c0,1.49,1.07,2.09,2.35,1.35l32.68-18.87A5.2,5.2,0,0,0,91,102.49l4.63-22.68A11,11,0,0,0,100,71.65c0-3.12-2.21-4.38-4.93-2.81a9.36,9.36,0,0,0-2.72,2.52,11.33,11.33,0,0,0-2,4.56l-5,22.1L59.36,113,54.23,96.75a2.67,2.67,0,0,0-2.06-2.19A4,4,0,0,0,49.44,95.18Z" transform="translate(-7.16 -8.44)"/><path class="cls-7" d="M59.88,97.08a2.08,2.08,0,0,1,2.26-1.58c.9,1-.77,4.16-1.37,4.59a.81.81,0,0,1-.55.15C59.73,99.93,59.29,98.93,59.88,97.08Z" transform="translate(-7.16 -8.44)"/><path class="cls-8" d="M68.5,103.05a1.53,1.53,0,0,1-1.57-.52c-.78-.81.76-1.69.76-1.69Z" transform="translate(-7.16 -8.44)"/><path class="cls-6" d="M49.44,95.18a4,4,0,0,1,2.73-.62,2.67,2.67,0,0,1,2.06,2.19L59.36,113l-5,12.58a1.65,1.65,0,0,1-.69-1.5L49,106.75c-2.47,1.12-4.4-.17-4.41-3.08A10.82,10.82,0,0,1,49.44,95.18Z" transform="translate(-7.16 -8.44)"/><path class="cls-3" d="M15.44,86.53c0-.08,0-.15,0-.23s0-.08,0-.11v0a.25.25,0,0,0,0-.08l0-.24,0-.25h0a2.23,2.23,0,0,1,0-.23c0-.08,0-.17.05-.26a.29.29,0,0,1,0-.09v0l0-.11a2,2,0,0,1,.07-.26,1.05,1.05,0,0,1,.05-.19v-.07a2.58,2.58,0,0,0,.08-.26l.09-.25,0,0v0l.06-.16a2.44,2.44,0,0,1,.1-.24s0-.11.07-.17v0l0,0a2.56,2.56,0,0,1,.11-.24l.12-.26,0,0,0,0c0-.07.07-.13.1-.2l.15-.25a.54.54,0,0,1,.07-.13l0-.05c0-.08.09-.15.13-.22l.2-.31,0-.06.31-.44h0l.22-.29.18-.22h0l.19-.22.19-.21,0,0,0,0,.13-.14.21-.21.06-.06,0,0,.11-.09.21-.19.1-.08.05,0,.07-.06.22-.16.16-.12,0,0,0,0,.21-.13.21-.13.05,0,.15-.09.2-.1h0l.16-.07.18-.08h0l.2-.07.12,0,0,0h0l.2-.05.08,0h.06l.07,0,.21,0h0l.17,0h.48l.26,0h0l.3.08h0l.14,0,.06,0,.19.1L52.94,94.84l-.19-.1-.07,0-.13-.06h0a1.32,1.32,0,0,0-.3-.08h0l-.29,0h-.37l-.25,0h0l-.3,0-.06,0-.3.08h-.05l-.32.12h0l-.34.16h0l-.37.19a5.14,5.14,0,0,0-.49.32l0,0-.45.33,0,0c-.14.12-.28.24-.41.37l0,0c-.14.13-.28.27-.41.41l0,0c-.15.15-.28.3-.42.47h0l-.4.51h0c-.11.16-.23.32-.34.49l-.19.31c-.06.09-.12.18-.17.27l-.07.13c-.09.15-.17.3-.25.46l0,0a5,5,0,0,0-.27.57v0c-.09.19-.16.38-.23.57l0,0c-.07.19-.13.39-.19.58v0c-.06.19-.11.38-.15.56l0,.06c0,.19-.08.38-.11.58h0a5.54,5.54,0,0,0-.07.57v0c0,.19,0,.38,0,.57a4.75,4.75,0,0,0,0,.54v0c0,.16,0,.32.07.46v.06c0,.14.07.28.11.41a.19.19,0,0,0,0,.07c0,.12.09.23.13.34l0,0a2,2,0,0,0,.19.36l0,0a1.74,1.74,0,0,0,.19.26l.08.09.18.17.08.07.29.2L16.87,89.91a2.83,2.83,0,0,1-.28-.2l-.08-.07a1.62,1.62,0,0,1-.19-.18l-.07-.08a2.56,2.56,0,0,1-.2-.26l0,0h0a3.47,3.47,0,0,1-.18-.33v0l0,0-.09-.22a.56.56,0,0,1,0-.12l0-.08a.14.14,0,0,0,0-.06,2.27,2.27,0,0,1-.06-.25.29.29,0,0,1,0-.09V87.8a.29.29,0,0,1,0-.09,2,2,0,0,1,0-.24s0-.08,0-.13v-.1c0-.08,0-.15,0-.23v-.24h0Z" transform="translate(-7.16 -8.44)"/><path class="cls-9" d="M200,83.52c.15.09.31.17.47.25l.17.07.29.13.06,0,.11,0,.39.14.14,0,.09,0,.17,0,.4.1.11,0,.16,0,.35.06.13,0,.16,0,.32,0,.16,0h.14l.33,0h.93l.44,0h.26l.13,0,.45-.06.11,0h.06l.21,0,.36-.08.25-.07.33-.09.08,0,.39-.14.05,0,.42-.18.12-.06.44-.23.08,0,.33-.22.05,0c.12-.08.23-.17.34-.26l0,0,.06,0,.23-.24s0,0,.05,0l.12-.15.09-.12,0,0,.14-.22a.3.3,0,0,0,0-.08l0,0,.11-.24a.14.14,0,0,1,0-.06v-.05a2.5,2.5,0,0,0,.07-.26s0,0,0,0v-.05a2.45,2.45,0,0,0,0-.27v-.06l0-11,0,.34v0a1.57,1.57,0,0,1-.08.31v0c0,.1-.08.2-.13.3l0,.05a2.38,2.38,0,0,1-.18.3l0,0-.21.26s0,0-.05,0a2.65,2.65,0,0,1-.29.29l0,0c-.11.09-.22.18-.34.26l-.05,0-.41.26a3.68,3.68,0,0,1-.44.23l-.12.06-.41.18-.06,0-.46.16-.34.09-.25.07-.36.08-.26,0-.12,0a3.11,3.11,0,0,1-.44.06l-.14,0-.26,0-.43,0h-.94l-.33,0-.3,0-.32,0-.29,0-.35-.06-.27,0-.4-.1-.26-.07-.14,0-.39-.14L201,73c-.12,0-.23-.1-.35-.15l-.16-.07a5.39,5.39,0,0,1-.48-.25,3.26,3.26,0,0,1-1.92-2.67l0,11A3.26,3.26,0,0,0,200,83.52Z" transform="translate(-7.16 -8.44)"/><path class="cls-9" d="M253.55,94.77v0a1.77,1.77,0,0,1-.08.31v.05c0,.1-.08.2-.13.3l0,0a2.38,2.38,0,0,1-.18.3l0,0-.21.26s0,0-.05,0a4,4,0,0,1-.29.29l0,0c-.11.09-.22.18-.34.26l-.05,0-.41.26a3.68,3.68,0,0,1-.44.23l-.12.06-.41.18-.06,0-.47.16-.33.09-.26.07-.35.08L249,98l-.11,0a3.11,3.11,0,0,1-.44.06l-.14,0-.26,0-.44,0h-.93l-.33,0-.3,0-.32,0-.29,0-.35-.06-.27,0-.4-.1-.26-.07-.13,0-.4-.14-.11,0-.35-.14-.16-.08a5.39,5.39,0,0,1-.48-.25,3.26,3.26,0,0,1-1.92-2.67l0,11a3.26,3.26,0,0,0,1.92,2.68c.15.09.31.17.47.25l.17.07.29.13.06,0,.11,0,.39.14.14,0,.09,0,.17,0,.4.1.11,0,.16,0,.35.06.13,0,.16,0,.32,0,.15,0h.15l.33,0h.93l.44,0h.26l.13,0,.45-.06.11,0H249l.21,0,.35-.08.26-.07.33-.09.08,0,.39-.14.05,0,.42-.18.12-.06.44-.23.08,0,.33-.22.05,0a2.91,2.91,0,0,0,.33-.26l.05,0,.06,0,.23-.24,0-.05L253,107l.09-.12,0,0,.14-.22a.59.59,0,0,0,0-.08l0,0,.11-.24a.14.14,0,0,1,0-.06v0a2.5,2.5,0,0,0,.07-.26s0,0,0,0v0a2.45,2.45,0,0,0,0-.27v-.06l0-11Z" transform="translate(-7.16 -8.44)"/><path class="cls-9" d="M168.87,94.82a1.55,1.55,0,0,1-.07.31l0,.05a1.94,1.94,0,0,1-.13.3l0,0a1.83,1.83,0,0,1-.18.3l0,0a2.75,2.75,0,0,1-.22.26l0,0a4,4,0,0,1-.29.29l-.05,0a2.91,2.91,0,0,1-.33.26l-.05,0-.41.26a4.64,4.64,0,0,1-.44.23l-.12.06-.42.18-.05,0-.47.16-.33.1-.26.06-.36.08-.26,0-.11,0-.45.07h-.13l-.26,0c-.15,0-.29,0-.44,0h-1.26l-.3,0-.33,0-.29,0-.34-.06-.27,0-.41-.1-.25-.07-.14,0-.39-.14-.12,0-.34-.14-.17-.08-.48-.25a3.2,3.2,0,0,1-1.91-2.67l0,11a3.23,3.23,0,0,0,1.91,2.68l.48.25.17.07.29.13.05,0,.11,0,.4.14.14,0,.09,0,.16,0,.41.1.1,0,.17,0,.34.06.14,0H161l.33,0,.15,0h.14l.33,0h.94l.44,0h.26l.13,0,.45-.06.11,0h.05l.21,0,.36-.08.26-.07.33-.09.07,0,.4-.14.05,0,.42-.18.12-.06c.15-.07.29-.15.43-.23l.08,0c.12-.07.23-.15.33-.22l.06,0a2.91,2.91,0,0,0,.33-.26l.05,0,0,0c.09-.08.16-.16.24-.24l0-.05.13-.14a.83.83,0,0,0,.08-.12l0,0,.14-.22a.3.3,0,0,1,0-.08l0,0a2.56,2.56,0,0,0,.11-.24s0,0,0-.06l0,0c0-.08,0-.17.07-.26v-.09a1.41,1.41,0,0,0,0-.28v-.06l0-11a1.87,1.87,0,0,1,0,.34Z" transform="translate(-7.16 -8.44)"/><path class="cls-9" d="M211.34,119.34a1.55,1.55,0,0,1-.07.31l0,0a1.94,1.94,0,0,1-.13.3l0,0c0,.1-.12.2-.18.3l0,.05a1.71,1.71,0,0,1-.21.26l0,0a4,4,0,0,1-.29.29l-.05,0a2.91,2.91,0,0,1-.33.26l-.05,0a4.28,4.28,0,0,1-.42.26,3.55,3.55,0,0,1-.43.23l-.12.06-.42.18-.05,0-.47.16-.33.1-.26.06-.36.08-.26.05-.11,0-.45.07h-.13l-.26,0c-.15,0-.29,0-.44,0h-1.26l-.3,0-.33,0-.29,0a2,2,0,0,1-.34-.06l-.27-.05-.4-.1-.26-.07-.14,0-.39-.14-.12,0-.34-.14-.17-.08a4.23,4.23,0,0,1-.47-.25,3.22,3.22,0,0,1-1.92-2.67l0,11a3.23,3.23,0,0,0,1.91,2.67l.48.25.17.08.29.12.05,0,.12,0,.39.14.14,0,.09,0,.16,0,.41.1.1,0,.17,0,.34.06.14,0h.15l.32,0,.16,0h.14l.33,0h.94l.44,0h.26l.13,0,.45-.06.11,0h.05l.21,0,.36-.08.25-.07.34-.09.07,0,.4-.14.05,0,.42-.18.12-.06c.15-.07.29-.15.43-.23l.08,0,.33-.22.06,0a2.91,2.91,0,0,0,.33-.26l.05,0,.05-.05.24-.24,0,0,.13-.15a.76.76,0,0,0,.08-.11l0-.05.14-.22a.3.3,0,0,1,0-.08l0,0a2.56,2.56,0,0,0,.11-.24s0,0,0-.06l0,0c0-.08,0-.17.07-.26v-.1a1.24,1.24,0,0,0,0-.27v-.06l0-11a2,2,0,0,1,0,.34Z" transform="translate(-7.16 -8.44)"/><path class="cls-10" d="M200,72.56a10.11,10.11,0,0,0,9.18,0c2.53-1.46,2.51-3.85,0-5.31a10.11,10.11,0,0,0-9.18,0C197.48,68.71,197.49,71.09,200,72.56Z" transform="translate(-7.16 -8.44)"/><path class="cls-10" d="M251.66,91.77a10.11,10.11,0,0,0-9.18,0c-2.53,1.46-2.51,3.84,0,5.31a10.11,10.11,0,0,0,9.18,0C254.22,95.61,254.2,93.23,251.66,91.77Z" transform="translate(-7.16 -8.44)"/><path class="cls-10" d="M167,91.77a10.11,10.11,0,0,0-9.18,0c-2.52,1.46-2.51,3.85,0,5.31a10.13,10.13,0,0,0,9.19,0C169.55,95.62,169.54,93.23,167,91.77Z" transform="translate(-7.16 -8.44)"/><path class="cls-10" d="M209.46,116.29a10.09,10.09,0,0,0-9.17,0c-2.53,1.47-2.52,3.85,0,5.31a10.09,10.09,0,0,0,9.17,0C212,120.14,212,117.76,209.46,116.29Z" transform="translate(-7.16 -8.44)"/><path class="cls-11" d="M205.05,46.39l.14,0,.32-.13.09,0,.42-.13.26-.07h.08l.35-.07h0l.27,0h.8l.35,0,.11,0,.38.08h0a2.17,2.17,0,0,1,.36.12l.1,0,.28.14.09,0h0L200,40.85l0,0-.05,0a1.92,1.92,0,0,0-.29-.14l-.05,0,0,0-.36-.12h0a2.34,2.34,0,0,0-.38-.09h-.11l-.35,0h-.79l-.28,0h-.05a1.86,1.86,0,0,0-.34.06l-.08,0-.25.06h0l-.41.13-.1,0-.32.12-.05,0-.08,0-.36.16-.13.07-.48.25L160.27,61.2c-.2.11-.39.24-.59.37l-.1.07c-.19.13-.38.26-.56.4l-.11.09c-.19.14-.37.3-.55.46l0,0-.52.49-.06,0,0,0-.37.38,0,0-.38.42,0,0,0,0-.57.7h0l0,0c-.15.19-.29.39-.43.59l0,.06,0,0q-.21.28-.39.57l0,.06a.56.56,0,0,1-.05.08l-.3.49a.35.35,0,0,1,0,.08v0c-.11.19-.22.38-.32.57l0,0,0,.09-.24.46a.31.31,0,0,1,0,.1s0,0,0,0c-.1.2-.19.4-.27.59v0l0,.07c-.08.17-.15.35-.22.52l0,.09,0,.07c-.08.21-.15.42-.23.64v0s0,0,0,0c-.07.21-.13.43-.19.64l0,.08v0c-.07.26-.13.51-.19.77,0,0,0,0,0,.07a.29.29,0,0,0,0,.09l-.06.3a1.42,1.42,0,0,1,0,.2c0,.11,0,.21,0,.31a.77.77,0,0,0,0,.15v0c0,.22,0,.44-.06.65,0,.05,0,.09,0,.14,0,.22,0,.44,0,.66l0,13.59a6.62,6.62,0,0,0,.92,3.61,4,4,0,0,0,1.31,1.27l9.47,5.5c-1.37-.79-2.22-2.48-2.23-4.88l0-13.59c0-.21,0-.43,0-.65a.71.71,0,0,0,0-.14c0-.22,0-.43.07-.65a1.1,1.1,0,0,1,0-.18c0-.11,0-.21.05-.31a1.55,1.55,0,0,1,0-.21,2.93,2.93,0,0,1,.05-.29c0-.06,0-.11,0-.17.05-.25.12-.51.19-.76l0-.12c.06-.22.13-.43.2-.65a.64.64,0,0,0,0-.07c.07-.21.15-.42.23-.63l.06-.16.21-.53a.36.36,0,0,0,0-.09l.27-.59.08-.15c.07-.15.15-.31.23-.46s.05-.1.08-.14c.1-.2.2-.39.31-.58l.07-.1a4.94,4.94,0,0,1,.3-.49,1,1,0,0,1,.08-.14l.39-.58.07-.09c.14-.2.28-.39.43-.58l.05-.07c.18-.24.37-.47.56-.69l.07-.08.38-.42,0,0,.36-.37.09-.09.52-.48,0,0c.18-.16.37-.31.56-.46l.1-.08.56-.41.1-.07.6-.37,34.33-19.82.48-.26.14-.06Z" transform="translate(-7.16 -8.44)"/><path class="cls-12" d="M204.08,46.88c4.2-2.42,7.64-.46,7.66,4.36l0,13.59c0,4.82-3.4,10.75-7.6,13.17L169.84,97.82c-4.2,2.43-7.64.46-7.66-4.36l0-13.59a16.82,16.82,0,0,1,7.61-13.17Z" transform="translate(-7.16 -8.44)"/><path class="cls-13" d="M252.4,85.94s0,.11,0,.16,0,.1,0,.14l0,.17,0,.14a1.24,1.24,0,0,1,0,.16,1,1,0,0,1,0,.14,1.42,1.42,0,0,1,0,.16s0,.09-.05.13,0,.11-.07.17l-.06.13-.09.17s0,.08-.07.13l-.12.19-.07.11c-.05.08-.11.15-.16.22l-.06.08-.28.33-.08.08-.24.24-.12.11-.15.13-.15.13-.17.13-.16.12-.18.12-.17.12-.19.12-.25.15-34.49,20c-.15.1-.32.18-.49.27l-.14.07-.4.19-.13.06-.54.22-.08,0-.48.16-.19.07-.27.08-.22.06-.27.07-.22.06-.28.06-.23,0-.28.06-.21,0-.61.1h-.07l-.56.07-.2,0-.35,0h-.22l-.37,0h-1.26c-.35,0-.7,0-1,0h0c-.35,0-.7-.07-1-.12l-.13,0-.39-.06-.19,0a3,3,0,0,1-.32-.06l-.18,0-.36-.08-.2,0-.32-.08-.19-.06-.52-.16-.07,0-.57-.21-.12,0c-.24-.09-.48-.19-.71-.3l-.07,0c-.24-.11-.47-.24-.7-.37l-34.71-20c-2.11-1.22-3.17-2.83-3.16-4.43l0,11c0,1.6,1.05,3.21,3.16,4.43l34.71,20,.7.37.07,0c.23.1.47.21.71.3l.06,0,.06,0,.57.21.07,0,.52.16.08,0,.11,0,.32.08.2,0,.35.08.14,0h0l.32.06.19,0,.39.06.12,0h0c.34,0,.69.09,1,.12h0c.34,0,.69,0,1,.05H208l.37,0h.22l.35,0h.2l.56-.07h.07l.61-.09h.06l.15,0,.28-.06.23,0,.28-.06.22-.06.27-.07.22-.06.27-.08.11,0,.08,0L213,122l.08,0,.53-.22.14-.06.4-.19.14-.07c.17-.09.33-.17.49-.27l34.49-20,.13-.08.12-.07.19-.12.17-.12.18-.13.16-.12.17-.13.15-.12.15-.13.06-.06.06,0,.24-.24.08-.09c.1-.1.19-.21.28-.32h0l.05-.07.16-.22.07-.11.12-.2,0,0,0-.09a.8.8,0,0,0,.08-.16.83.83,0,0,0,.07-.13,1.22,1.22,0,0,1,.07-.17l0-.07a.25.25,0,0,1,0-.07l0-.15a1017477949149.15,1017477949149.15,0,0,0,.08-.3s0-.06,0-.09,0,0,0-.06l0-.16s0-.09,0-.14a.86.86,0,0,0,0-.16.38.38,0,0,0,0-.1v-.09l0-11Z" transform="translate(-7.16 -8.44)"/><path class="cls-14" d="M249.24,81.31c4.2,2.43,4.22,6.39,0,8.81l-34.49,20c-4.17,2.43-11,2.43-15.21,0l-34.71-20c-4.2-2.42-4.22-6.38,0-8.81l34.49-20c4.17-2.42,11-2.42,15.21,0Z" transform="translate(-7.16 -8.44)"/><path class="cls-15" d="M261.47,59.25v-.33a.71.71,0,0,0,0-.14v0c0-.14,0-.29,0-.43h0v-.07l0-.38v0l0-.18a2.28,2.28,0,0,0,0-.26v0l0-.22,0-.21v-.06a2.56,2.56,0,0,1,0-.27,1.29,1.29,0,0,1,0-.19v0c0-.1,0-.21-.07-.32l0-.17v0c-.05-.18-.09-.36-.14-.54h0v0c-.05-.19-.11-.37-.17-.56a.64.64,0,0,1,0-.07l0-.08c-.08-.25-.17-.49-.26-.73h0l0,0c-.08-.21-.16-.41-.25-.62a1,1,0,0,1-.07-.15q-.14-.31-.3-.63a.93.93,0,0,0-.05-.1l-.29-.55a.75.75,0,0,1-.07-.12L259,51l0,0,0-.06c-.16-.25-.33-.49-.5-.73l0,0-.06-.07-.35-.45-.05-.07,0,0c-.12-.15-.25-.29-.38-.44h0l-.06-.06-.3-.32,0,0a.57.57,0,0,0-.11-.11l-.21-.21-.05,0-.13-.12L256.5,48s0,0-.05-.05l-.15-.12-.15-.12,0,0-.18-.13-.13-.1,0,0-.33-.22h0l-.3-.19-.06,0L220.33,27l-.26-.15,0,0-.15-.07-.13-.07-.05,0-.15-.07-.12-.05-.07,0-.15-.06-.11,0-.06,0-.17-.05-.1,0h-.07l-.16,0-.1,0h-.07l-.18,0-.1,0H218l-.2,0-.11,0h0l-.25,0h-1a3,3,0,0,0-.43.06h0l-.1,0-.17,0-.14,0-.17.06h0l-.19.07-9.33,3.55.23-.08.17-.05.14,0,.17,0,.13,0,.43-.06h.5l.37,0h.1l.25,0,.15,0,.2,0,.15,0,.18.05.17,0,.16.05.17.05.17.06.17.06L210,30l.18.08.16.07.18.09.15.07.3.17,34.72,20,.36.23h0l.35.24.13.1.23.17.15.12.2.17.17.14.18.16.21.21.15.14.3.32.06.06c.13.15.26.29.38.44l.09.11.35.45.08.1c.17.24.34.48.5.73l.06.1c.13.19.24.39.36.59l.07.13c.1.18.2.36.29.55a.41.41,0,0,1,.05.09q.17.32.3.63a1,1,0,0,0,.07.15c.09.21.17.41.25.62l0,.05c.09.24.18.49.26.73l0,.15c.06.19.12.37.17.56v0c.05.18.09.36.14.54s0,.14,0,.21.05.21.07.31,0,.16.05.24a2.56,2.56,0,0,0,0,.27,2.51,2.51,0,0,0,0,.27l0,.23,0,.3,0,.18,0,.42v.06c0,.16,0,.32,0,.47a.71.71,0,0,1,0,.14v.33a1,1,0,0,1,0,.17c0,.1,0,.2,0,.3a1,1,0,0,1,0,.17c0,.1,0,.2,0,.3s0,.11,0,.16,0,.29-.05.44l-2.38,16.9c0,.17-.05.33-.08.49l0,.14c0,.11,0,.22-.07.33a.94.94,0,0,0,0,.16l-.09.31s0,.1,0,.15l-.12.34,0,.1c0,.11-.09.21-.13.32s0,.08-.05.11a.36.36,0,0,1,0,.09l-.17.35,0,.09-.21.35-.15.23-.06.1-.23.31-.06.07c-.07.08-.13.16-.2.23l-.1.11-.17.17-.12.11-.17.15-.12.09a1.33,1.33,0,0,1-.19.14l-.12.09-.2.12-.12.07a2.39,2.39,0,0,1-.22.12l-.11,0a2.07,2.07,0,0,1-.34.15l9.33-3.55a2.07,2.07,0,0,0,.34-.15l.11-.05.22-.12.12-.07.2-.12.12-.09a1.33,1.33,0,0,0,.19-.14l.12-.09.17-.16.12-.1.17-.18a.94.94,0,0,0,.1-.1c.07-.07.13-.15.2-.23l.06-.07h0a3.55,3.55,0,0,0,.23-.31l.06-.09.12-.18,0,0a4,4,0,0,0,.2-.35l0-.08h0c.06-.12.12-.23.17-.35a.59.59,0,0,1,0-.08h0a1.17,1.17,0,0,1,.05-.11c0-.11.09-.21.12-.31h0l0-.1c0-.1.07-.2.1-.3l0,0s0-.1,0-.15l.06-.21,0-.1a.94.94,0,0,1,0-.16l0-.14c0-.06,0-.13,0-.2l0-.13s0,0,0-.06,0-.27.07-.41v0l2.38-16.9c0-.13,0-.26,0-.38s0,0,0-.06,0-.11,0-.16,0-.12,0-.19v-.11a1,1,0,0,0,0-.17.57.57,0,0,0,0-.13v-.17A1,1,0,0,0,261.47,59.25Z" transform="translate(-7.16 -8.44)"/><path class="cls-16" d="M245.72,50.54c4.19,2.42,7,8.63,6.31,13.8l-2.38,16.9c-.73,5.17-4.76,7.41-9,5L206,66.19c-4.19-2.43-7-8.64-6.3-13.8l2.37-16.9c.73-5.17,4.76-7.41,8.95-5Z" transform="translate(-7.16 -8.44)"/><path class="cls-17" d="M224.43,8.77s-7.62.56-9,10.09,1.86,24,1.86,24,14.24,1.64,22.74-1.44a58.17,58.17,0,0,1-2.91-21.08C237.6,12.15,230,7.06,224.43,8.77Z" transform="translate(-7.16 -8.44)"/><path class="cls-18" d="M206.13,38.42S204,52.92,202,55.37s-15,15.56-15,15.56a9.31,9.31,0,0,0-3.83-.27,6,6,0,0,1-3.37.08c-1.08-.31-.08,1.48,2.06,1.68a12.15,12.15,0,0,1-5.43-.17c-1.12-.26,2,3.56,6.53,3.54a15,15,0,0,0,8-2.52s14.24-10.94,16.14-14.15,5.71-20.24,5.71-20.24Z" transform="translate(-7.16 -8.44)"/><path class="cls-18" d="M183.46,78.24s-9.63,6.74-12.08,10-12.46,44.93-14.3,47.79c0,0-5,6.84-9,9.85s-6.33,6-3.12,7.66,7.71-.05,10.42-3.37c2.09-2.3,3.27-2.86,4.49-3.11s3.68-3.17,2.61-6.23c-.05-3.58,15.93-41.77,17.66-42.89s18.59-14.08,18.59-14.08l-12.16-6.66Z" transform="translate(-7.16 -8.44)"/><path class="cls-19" d="M193.6,91.72s-17.8-1.68-18.87-1.3-10.34,11.26-19.53,18.38-12.18,9.42-13.06,11.72c-.31,1.49.88,4.9-1.34,6.16a7.71,7.71,0,0,1-6.93,0c-1.8-.92-6.08,1-11.86-1.39,0,0-4-1.66-2.71-5.64.87-2.61,7,.51,15.17-2,0,0,2.45,0,6.12-4.5s27.93-31.24,30.48-33,15.22-1,15.22-1l5.41-1.86,5.63,10.48Z" transform="translate(-7.16 -8.44)"/><path class="cls-17" d="M137.2,123.58c-8.39,1.15-13.14-1.49-12.68-3.06a2.73,2.73,0,0,1,2.11-1.82h0c-4,0-6.77-.72-7.33,1-1.32,4,2.71,5.64,2.71,5.64,5.78,2.37,10.06.47,11.86,1.39a7.71,7.71,0,0,0,6.93,0c2.22-1.26,1-4.67,1.34-6.16C140.72,121.09,140.38,123.12,137.2,123.58Z" transform="translate(-7.16 -8.44)"/><path class="cls-20" d="M206.13,38.42s2.14-9.46,6.15-9.5,13.68,2.76,18-.77c-.38,3.37-1.23,6.67.54,7.82s9.8,3,11,6.81,0,12.56,0,12.56a11.75,11.75,0,0,1-6.93-.57c-.84,3-7.93,14.82-8.24,17s2.45,18-9.11,20-18.58.51-23.86,0c1.57-3.68.86-11.61-7.31-12.65a5.18,5.18,0,0,0-2.83-.83s10.2-6.53,12.95-8.88S202,64.86,205.3,62c1.92-2.25,2.74-4.5,3-8.74a5.9,5.9,0,0,1-1-8.62,24.88,24.88,0,0,0,2.75-4.24A7,7,0,0,1,206.13,38.42Z" transform="translate(-7.16 -8.44)"/><path class="cls-18" d="M230.79,36c-1.77-1.15-.92-4.45-.54-7.82-2.07,1.71-5.41,1.93-8.75,1.72l-1.1,1.81s-4.5-1.11-4.14,5.47,8.32,9.13,15.11,5.1c2.76-1.64,2.95-4.8.89-5.59h0A10,10,0,0,1,230.79,36Z" transform="translate(-7.16 -8.44)"/><path class="cls-19" d="M217,16a27.07,27.07,0,0,0-.46,7.5c-1,2.3-.4,10.65,3.29,11.26s9.27-1.84,10.42-6.59c2.14-.38,3.25-1.53,3.48-3S232,23,230.94,24.25c0,0-8-2.34-10.8-9.92A6.11,6.11,0,0,1,217,16Z" transform="translate(-7.16 -8.44)"/><path class="cls-21" d="M226.42,58.86A9.25,9.25,0,0,1,215.85,57c-.92-1.15-2.14-2.53-3.57-2.65a7.29,7.29,0,0,1-4-1.11c0,.19,0,.37,0,.55h0c.78,1.22,3.53,1.75,4.3,1.87s1.19.76,1.76,1.49a12.21,12.21,0,0,0,10,4.37c1.23-.23,2.76.46,2.45,1.91-.64,5.21-5.43,10.89-5.43,10.89l1.76.79L226.6,74a20.87,20.87,0,0,1,0-2.31c.21-1.42,3.37-6.92,5.72-11.32l0-6.75.3-4.44C228.34,51.82,231.48,56.34,226.42,58.86Z" transform="translate(-7.16 -8.44)"/><path class="cls-19" d="M232.32,53.66s-2.22,13-3.37,15S211,71.2,206.61,72.11c-1-.81-7.62-.56-8.12-.62s-.8.28-.51.75a17.92,17.92,0,0,0,3.5.82l-8,3.78c-.81.38-.53,1.4,0,1.27s5.59-2.17,5.59-2.17,3.22,2.76,4.19,2.45,5.16-2.55,5.16-2.55,19.4,1.07,24-.46c2.82-.93,6.08-11.16,8-19.88-3.71.68-8.15-1.84-8.15-1.84" transform="translate(-7.16 -8.44)"/><path class="cls-17" d="M148.65,148.81c-1.91-.87-1.33-2.31-1.33-2.31-3.49,2.8-5.34,5.53-2.34,7.05,3.22,1.63,7.71-.05,10.42-3.37,2.09-2.3,3.27-2.86,4.49-3.11s3.68-3.17,2.61-6.23c0,0-2.94,2.23-4.32,3.46C156,146.21,150.56,149.7,148.65,148.81Z" transform="translate(-7.16 -8.44)"/><path class="cls-11" d="M256.76,77.12l.36-.17.13,0,.32-.12.1,0,.41-.13.27-.06.08,0,.35-.07h0l.28,0h.79l.36,0,.1,0a2.74,2.74,0,0,1,.39.09h0c.12,0,.24.08.36.12l.09,0,.29.14.09,0-9.47-5.5,0,0-.05,0a2.44,2.44,0,0,0-.28-.14l-.05,0h0l-.35-.13h0c-.12,0-.25-.06-.38-.09h-.11l-.35,0h-.8l-.27,0h-.06L249,71l-.08,0-.26.06h0c-.14,0-.28.08-.41.12l-.1,0-.32.12-.05,0-.08,0-.36.16-.14.07c-.16.08-.32.16-.48.26L212.34,91.76c-.2.11-.4.24-.59.37l-.11.07-.55.4-.11.09c-.19.14-.37.3-.56.46l0,0-.53.49-.05,0,0,0-.36.37,0,0-.37.41,0,0a.1.1,0,0,0,0,0q-.3.33-.57.69h0l0,0-.43.59,0,.06,0,0c-.13.19-.26.38-.38.58a.1.1,0,0,0,0,0,.41.41,0,0,0-.05.09,4.94,4.94,0,0,0-.3.49l-.05.07v0c-.11.19-.22.38-.32.57l0,0,0,.09c-.08.16-.16.31-.23.47l-.05.09,0,.06c-.09.19-.18.39-.26.58v0s0,0,0,.07-.15.35-.22.53a.2.2,0,0,1,0,.08.14.14,0,0,1,0,.07c-.08.22-.16.43-.23.64v0a.43.43,0,0,0,0,0c-.07.21-.14.43-.2.64a.29.29,0,0,0,0,.09v0c-.07.25-.13.51-.19.76,0,0,0,0,0,.07s0,.06,0,.09,0,.2-.06.3,0,.14,0,.21,0,.2-.05.3a.77.77,0,0,1,0,.15v0c0,.22-.05.44-.06.65a.71.71,0,0,0,0,.14c0,.22,0,.44,0,.66l0,13.59c0,2.39.86,4.08,2.24,4.88l9.47,5.51c-1.37-.8-2.22-2.49-2.23-4.89l0-13.59c0-.21,0-.43,0-.65,0,0,0-.09,0-.14l.06-.65,0-.18c0-.1,0-.21,0-.31l0-.21.06-.29,0-.16c.06-.26.12-.51.19-.77,0,0,0-.08,0-.12.06-.22.12-.43.19-.65l0-.06c.07-.22.14-.43.22-.64l.06-.16c.07-.17.15-.35.22-.53l0-.09.27-.59.07-.15.24-.46.07-.14c.1-.2.21-.39.32-.57l.06-.11.3-.49.09-.14.39-.58.06-.09.43-.58a.18.18,0,0,0,.05-.07l.57-.69.07-.08.38-.42,0,0,.37-.37.09-.09c.17-.16.34-.33.52-.48l0,0,.55-.46.11-.08.56-.41.1-.06.6-.38,34.33-19.82.48-.26Z" transform="translate(-7.16 -8.44)"/><path class="cls-12" d="M256.15,77.44c4.19-2.42,7.64-.46,7.65,4.36l0,13.59a16.84,16.84,0,0,1-7.6,13.17L221.9,128.39c-4.19,2.42-7.64.46-7.65-4.37l0-13.59c0-4.82,3.41-10.74,7.61-13.17Z" transform="translate(-7.16 -8.44)"/><ellipse class="cls-22" cx="132.82" cy="161.3" rx="62.23" ry="35.93"/><ellipse class="cls-23" cx="132.82" cy="158.9" rx="62.23" ry="35.93"/><ellipse class="cls-20" cx="132.82" cy="158.9" rx="49.16" ry="28.39"/><ellipse class="cls-24" cx="132.82" cy="158.9" rx="45.31" ry="26.16"/><path class="cls-25" d="M95.28,98.12l3.82-5s-9.2-1.62-27.3,6.07l.79.65h0l.38.31,0,0,.36.29,0,0,.34.27,0,0,.33.26.06,0,.32.24.07.06.3.23.09.07.29.22.09.07.27.2.11.08.26.19.12.09.24.17.13.09.24.17.12.09.24.16.13.09.25.18.1.06.35.23c.38-.36.79-.71,1.2-1s.64-.47,1-.69.66-.42,1-.61.69-.38,1-.55l1-.44.26-.1.93-.37,1-.34.17,0A34.54,34.54,0,0,1,95.28,98.12Z" transform="translate(-7.16 -8.44)"/><path class="cls-26" d="M51.19,101.48S62,111.36,87.86,124.39c2.1,1.13,3.07,3.38,4.49,8s10.29,32,10.29,32a7.75,7.75,0,0,0,5.75,1.12c3.52-.6,3.67-3.4,3.67-3.4l-8.69-39.65a14.28,14.28,0,0,0-3.6-5.4c-2.5-2.2-24.07-19.38-24.07-19.38L66.5,84.7Z" transform="translate(-7.16 -8.44)"/><path class="cls-27" d="M104.53,164.44a44.69,44.69,0,0,1,.41,5.51c1.2,1.76,9.18,7.19,10-.9a10.26,10.26,0,0,1-3.59-6.71A12,12,0,0,1,104.53,164.44Z" transform="translate(-7.16 -8.44)"/><path class="cls-28" d="M104.91,168.52s4.49,4.87,7.6,3.49c-.6-1.39,0-3.49,1.85-3.49.92.08,3.43,3.51,6.69,4.85s4.23,3.92,4.16,5.19c0,0,.34,1.16,0,1.58s-2,2.92-8,1c-3.9-1.24-3.19-2.36-6.18-3.45s-7.51-2.71-6.52-4.91C104.19,170.92,104.17,168.48,104.91,168.52Z" transform="translate(-7.16 -8.44)"/><path class="cls-29" d="M117.23,181.15c6,1.91,7.64-.6,8-1s0-1.58,0-1.58-.91,2.46-5.21,1.95-6.84-4-11.11-5.14a9.77,9.77,0,0,1-4.36-2.58c-1,2.2,3.52,3.82,6.52,4.91S113.33,179.91,117.23,181.15Z" transform="translate(-7.16 -8.44)"/><path class="cls-27" d="M85.14,115.62a45,45,0,0,1-3,4.63c-.12,2.12,2.92,11.28,8.46,5.34a10.25,10.25,0,0,1,1.22-7.51A12.06,12.06,0,0,1,85.14,115.62Z" transform="translate(-7.16 -8.44)"/><path class="cls-28" d="M83,119.1s.61,6.59,3.92,7.38c.37-1.46,2.11-2.77,3.59-1.64.68.62.59,4.87,2.37,7.91s1,5.69.14,6.65c0,0-.43,1.14-1,1.26s-3.36,1.11-7-4c-2.34-3.35-1.09-3.81-2.81-6.5s-4.32-6.71-2.2-7.85C80.93,120.56,82.4,118.62,83,119.1Z" transform="translate(-7.16 -8.44)"/><path class="cls-29" d="M85.07,136.61c3.6,5.16,6.44,4.17,7,4s1-1.26,1-1.26-2.21,1.41-5.32-1.61-3-7.36-5.7-10.84a9.89,9.89,0,0,1-1.9-4.69c-2.12,1.14.48,5.17,2.2,7.85S82.73,133.26,85.07,136.61Z" transform="translate(-7.16 -8.44)"/><path class="cls-26" d="M112.06,87.63c-3.3-2.7-30.87-4-30.87-4L59.66,87.93s6.56,6.65,12.93,11.87l-.79-.65c18.1-7.69,27.3-6.07,27.3-6.07l-3.82,5a34.54,34.54,0,0,0-9.85,1.46,34.54,34.54,0,0,1,9.85-1.46L83.69,115.5c3,4.6,8.59,5.3,8.59,5.3s10.59-13.79,16.08-20.38S115.35,90.33,112.06,87.63Z" transform="translate(-7.16 -8.44)"/><path class="cls-27" d="M111.05,56.16c.47-.74.73-1.21.48-1.65s-1.24.11-2.56.68c-2.11.92-4.93,2.25-6,1.73a3.81,3.81,0,0,0,1.42-2.54c0-.5-.89-.43-1.37.27s-3.88,2.77-4.13,3.66c-2.49,1.12-19.13,8.88-20,8.61s-6.65-11.43-6.65-11.43A7.46,7.46,0,0,1,70.87,57a14.34,14.34,0,0,1-6.23,2.76l0,0c.55,1,9.25,16.29,12.31,16.46a8.37,8.37,0,0,0,3.24-1.1c5.55-2.68,15.72-9.5,20.39-11.73.32-.15.61-.28.87-.38,4.44-1,6.92-1.58,8.08-4.18a1,1,0,0,0,0-.1A19.93,19.93,0,0,1,111.05,56.16Z" transform="translate(-7.16 -8.44)"/><path class="cls-20" d="M50.4,52.81c-3.15,1.8-11.77,2.28-16,5.73s-1.53,15-1.53,15a10.76,10.76,0,0,0,9.62-1.84s.68,34.09,10.47,29.3c4.49-4.8,7.74-13.63,17.3-14.66,9.07-1.83,11-2.72,11-2.72s-10.39-6.4-12.09-19S66.55,43.56,50.4,52.81Z" transform="translate(-7.16 -8.44)"/><path class="cls-30" d="M46.83,77.44c2.48-1.32,17.44-4,23.07-9a25.1,25.1,0,0,1-.8-3.73c-.13-1-.26-2-.4-2.94,0,0,0,5.63-4.69,7.53s-16.2,9.83-22.08-1l.52,3.47s.68,34.09,10.47,29.3a31.88,31.88,0,0,0,2.33-2.89h0s-5.54.19-6.68-3.81S43.83,79,46.83,77.44Z" transform="translate(-7.16 -8.44)"/><path class="cls-31" d="M42.45,71.72a12,12,0,0,1-1.68,1.06A7.55,7.55,0,0,0,42.45,71.72Z" transform="translate(-7.16 -8.44)"/><path class="cls-32" d="M44.63,47.22s1.8,3.85,1.4,6.57c-.53.2-2.18.93-2.18.93s1.78,4.44,8.64,3.07c1.45-.4,2.5,3.62,4.7,5.32.55,0-2.15-5.77-1.4-6.45s3.11-3,1.87-5.2C52.38,51.46,44.63,47.22,44.63,47.22Z" transform="translate(-7.16 -8.44)"/><path class="cls-27" d="M56.61,34.29s1.7,2,1.7,7.44C58.91,44.08,60,52,56.42,52.62s-8.8.05-11.79-5.4c-1.6-.1-4.47-2.52-3-4.45s3.34-8.48,3.34-8.48Z" transform="translate(-7.16 -8.44)"/><path class="cls-33" d="M39.76,36.06s1.5-10.71,14.16-6.52A15.46,15.46,0,0,0,58.15,31c.9.07,1,4.35-2.13,5.24s-9,.3-10,1.17a6.18,6.18,0,0,1-.41,4.19,4.53,4.53,0,0,0,.22,2.89l-.75.22s-.82-3.33-3.52-2C40.88,41.94,39.2,38.61,39.76,36.06Z" transform="translate(-7.16 -8.44)"/><path class="cls-34" d="M74.86,101.6l-.3-.23Z" transform="translate(-7.16 -8.44)"/><path class="cls-34" d="M74.49,101.31l-.32-.24Z" transform="translate(-7.16 -8.44)"/><path class="cls-34" d="M75.24,101.89l-.29-.22Z" transform="translate(-7.16 -8.44)"/><path class="cls-34" d="M76,102.43l-.26-.19Z" transform="translate(-7.16 -8.44)"/><path class="cls-34" d="M75.6,102.16l-.27-.2Z" transform="translate(-7.16 -8.44)"/><path class="cls-34" d="M74.11,101l-.33-.26Z" transform="translate(-7.16 -8.44)"/><path class="cls-34" d="M85.26,99.63l-1,.34Z" transform="translate(-7.16 -8.44)"/><path class="cls-34" d="M77.54,103.53l.35.23c.38-.36.79-.71,1.2-1-.41.32-.82.67-1.2,1Z" transform="translate(-7.16 -8.44)"/><path class="cls-34" d="M73.73,100.72l-.34-.27Z" transform="translate(-7.16 -8.44)"/><path class="cls-34" d="M73,100.11l-.38-.31Z" transform="translate(-7.16 -8.44)"/><path class="cls-34" d="M73.35,100.42l-.36-.29Z" transform="translate(-7.16 -8.44)"/><path class="cls-34" d="M83.07,100.44l-1,.44Z" transform="translate(-7.16 -8.44)"/><path class="cls-34" d="M77.44,103.47l-.25-.18Z" transform="translate(-7.16 -8.44)"/><path class="cls-34" d="M80.06,102c-.33.22-.65.45-1,.69C79.41,102.49,79.73,102.26,80.06,102Z" transform="translate(-7.16 -8.44)"/><path class="cls-34" d="M76.33,102.69l-.24-.17Z" transform="translate(-7.16 -8.44)"/><path class="cls-34" d="M82.11,100.88c-.35.17-.7.35-1,.55C81.41,101.23,81.76,101.05,82.11,100.88Z" transform="translate(-7.16 -8.44)"/><path class="cls-34" d="M81.07,101.43c-.35.19-.68.4-1,.61C80.39,101.83,80.72,101.62,81.07,101.43Z" transform="translate(-7.16 -8.44)"/><path class="cls-34" d="M84.26,100l-.93.37Z" transform="translate(-7.16 -8.44)"/><path class="cls-34" d="M76.7,103l-.24-.17Z" transform="translate(-7.16 -8.44)"/><path class="cls-34" d="M77.06,103.2l-.24-.16Z" transform="translate(-7.16 -8.44)"/><path class="cls-20" d="M60.91,48.91s7.59-1.64,12.59,8.45c-.89,3.7-5.8,5.3-8.59,6.2Z" transform="translate(-7.16 -8.44)"/><path class="cls-27" d="M41.48,69.87s6.27,15.68,8.74,17.83S69,96.94,69,96.94s7.49.41,8.1,8.21c-.44.82-2.49,4.2-3.44,2.65s-.5-3.3-2.65-4.39-4.12-1.38-4.32-2.33c-2.89-.6-17.91-4.06-22.25-8.71s-11-18.73-11-18.73Z" transform="translate(-7.16 -8.44)"/><path class="cls-20" d="M37.43,56.76a13.29,13.29,0,0,0-3.07,1.78c-4.27,3.44-1.53,15-1.53,15a10.76,10.76,0,0,0,9.62-1.84l-.52-3.47A31.5,31.5,0,0,0,37.43,56.76Z" transform="translate(-7.16 -8.44)"/><path class="cls-2" d="M126.24,126.94h0a1.8,1.8,0,0,0-1.06-1.47,5.55,5.55,0,0,0-5.08,0,1.78,1.78,0,0,0-1,1.47h0l2,51.25h0a.8.8,0,0,0,.48.66,2.48,2.48,0,0,0,2.28,0,.79.79,0,0,0,.47-.66Z" transform="translate(-7.16 -8.44)"/><path class="cls-2" d="M160.92,126.94h0a1.8,1.8,0,0,0-1.06-1.47,5.55,5.55,0,0,0-5.08,0,1.78,1.78,0,0,0-1.05,1.47h0l2,51.25h0a.8.8,0,0,0,.48.66,2.48,2.48,0,0,0,2.28,0,.79.79,0,0,0,.47-.66Z" transform="translate(-7.16 -8.44)"/><path class="cls-2" d="M143.58,100.2h0a1.79,1.79,0,0,0-1.06-1.48,5.61,5.61,0,0,0-5.08,0,1.8,1.8,0,0,0-1.05,1.48h0l2,51.25h0a.8.8,0,0,0,.48.66,2.54,2.54,0,0,0,2.28,0,.77.77,0,0,0,.47-.66Z" transform="translate(-7.16 -8.44)"/><path class="cls-6" d="M140,140.9c-23.18,0-42.06-10.61-42.86-23.88,0,.29,0,.58,0,.87,0,13.67,19.2,24.76,42.89,24.76s42.88-11.09,42.88-24.76q0-.44,0-.87C182,130.29,163.16,140.9,140,140.9Z" transform="translate(-7.16 -8.44)"/><ellipse class="cls-35" cx="132.82" cy="108.58" rx="42.85" ry="23.89"/><polygon class="cls-36" points="139.28 119.16 160.31 106.95 161.29 107.52 140.27 119.73 139.28 119.16"/><polygon class="cls-37" points="140.27 119.73 161.29 107.52 161.29 108.25 140.27 120.47 140.27 119.73"/><path class="cls-38" d="M146.46,122.74v4.86L133.25,120l-1.77-1a4.67,4.67,0,0,1-2.11-3.65c0-1.34,1-1.88,2.13-1.21l1.76,1Z" transform="translate(-7.16 -8.44)"/><polygon class="cls-20" points="139.3 114.3 160.32 102.08 160.31 106.95 139.28 119.16 139.3 114.3"/><polygon class="cls-37" points="140.28 114.13 161.31 101.92 161.3 102.65 140.28 114.87 140.28 114.13"/><path class="cls-37" d="M147.45,122.57v.74l-1-.57-13.2-7.62-1.76-1c-1.17-.67-2.12-.13-2.13,1.21a4.67,4.67,0,0,0,2.11,3.65l1.77,1,13.2,7.62,1,.57v.74l-16-9.21a6.08,6.08,0,0,1-2.75-4.76c0-1.75,1.25-2.45,2.77-1.58Z" transform="translate(-7.16 -8.44)"/><path class="cls-36" d="M152.52,101.15l-.09-.05,0,0,0,0,0,0,0,0h-.06l-.11,0h0l-.11,0h-.06l-.05,0h0l0,0h-.68l-.13,0h0l-.17,0h0l-.07,0h0l-.1.06-21,12.21.1,0,0,0,.07,0h0l.17,0h.75l.08,0h.05l.08,0h0l.13,0h0l.12,0,0,0,.09,0,0,0,.12.06,15.95,9.21,21-12.21Z" transform="translate(-7.16 -8.44)"/><path class="cls-39" d="M166.51,103.59l.93-.14-18.94-11-.64.09-.29,0-.26,0c-.32.05-.63.11-.95.18l-.62.15-.13,0-.14,0h0l-.08,0-.18,0-.23.06-1.29.43-.4.16-.57.21-.35.16-.21.09-1.09.51-.19.1c-.36.19-.72.38-1.06.58l18.95,11c.34-.2.7-.39,1.06-.58l.19-.1,1.08-.51.22-.09.92-.37.39-.16,1.3-.43.22-.06.18-.05.09,0,.14,0,.14,0,.62-.15c.31-.07.63-.13.94-.18Z" transform="translate(-7.16 -8.44)"/><path class="cls-38" d="M158.3,103a19.43,19.43,0,0,1,7.49-2.45l-.46,3.28-.61.14h0l-.14,0-.14,0-.09,0-.14,0h0l-.2.06a23.58,23.58,0,0,0-5.18,2.24,27.94,27.94,0,0,0-6.5,5.22l-.37.38V108.7A24.15,24.15,0,0,1,158.3,103Z" transform="translate(-7.16 -8.44)"/><path class="cls-40" d="M152.52,108l.08-.1.33-.37.07-.08.28-.31.13-.13c.08-.09.16-.19.25-.28l.15-.15.28-.29.15-.15.21-.2.2-.19.23-.21.2-.18.25-.22.22-.18a2.75,2.75,0,0,1,.26-.22l.23-.18.29-.23.22-.17.33-.22.22-.16.39-.26.19-.12c.2-.13.41-.25.62-.37s.61-.34.94-.51l.28-.14.79-.35c.1,0,.19-.09.29-.12.32-.14.66-.27,1-.39h0c.36-.13.73-.24,1.1-.34l.43-.11.63-.15.48-.1.64-.11c.29,0,.58-.1.88-.13l-18.95-11q-.33,0-.66.09l-.21,0-.65.11-.48.1-.62.15-.33.08-.1,0c-.38.1-.75.21-1.1.34h0c-.35.12-.69.25-1,.38l-.1,0-.18.09-.79.35-.29.14c-.32.17-.64.33-.94.51l-.61.37-.19.12c-.14.09-.27.17-.39.26l-.22.15-.33.24-.22.16-.3.23-.22.18-.27.22-.21.18-.25.22-.21.18-.23.21c-.06.06-.13.12-.19.19l-.22.2,0,0-.1.11-.29.29-.14.15-.26.27-.13.14-.27.31-.08.08-.32.37,0,0-.07.08-.26.31-.23.26-.15.17,18.95,11,.07-.08.08-.1c.07-.08.15-.16.22-.25Z" transform="translate(-7.16 -8.44)"/><polygon class="cls-41" points="129.65 114.06 110.7 103.05 110.23 101.96 129.18 112.97 129.65 114.06"/><path class="cls-39" d="M126.06,103.35l-.17.1a36.7,36.7,0,0,0-6.39,4.88c-.31.29-.63.59-1,.91a1.59,1.59,0,0,0-.13.13l-.1.09-.93.94,19,11c.35-.36.69-.7,1-1a.8.8,0,0,1,.13-.13c.32-.31.63-.62.95-.91a36.68,36.68,0,0,1,6.38-4.88l.18-.1Z" transform="translate(-7.16 -8.44)"/><path class="cls-41" d="M158.76,106.42a23.83,23.83,0,0,1,5.16-2.24l.22-.06.18-.05.09,0,.14,0,.14,0,.62-.15c.7-.15,1.41-.28,2.13-.37l-.46,1.63a21.67,21.67,0,0,0-8.16,2.79,25.54,25.54,0,0,0-6.93,5.85s-2.54-.38-6.93,2.15a38,38,0,0,0-8.15,6.63l-.47-1.09c.72-.75,1.43-1.44,2.11-2.07a36.68,36.68,0,0,1,6.38-4.88l.18-.1a15.65,15.65,0,0,1,6.39-2.28h.1l.39,0,.37-.41A27.94,27.94,0,0,1,158.76,106.42Z" transform="translate(-7.16 -8.44)"/><polygon class="cls-40" points="131.28 110.9 112.34 99.89 111.86 97.15 130.8 108.16 131.28 110.9"/><path class="cls-38" d="M145.45,110.4a10.83,10.83,0,0,1,6.43-1.7V112l-.39,0h-.1a15.39,15.39,0,0,0-6.34,2.25l-.05,0-.18.1a36.61,36.61,0,0,0-6.34,4.84l0,0L138,116.6A35.53,35.53,0,0,1,145.45,110.4Z" transform="translate(-7.16 -8.44)"/><path class="cls-20" d="M151.88,108.7l-18.95-11h-1.24l-.41,0h0l-.46.06h-.06l-.08,0-.32.06-.15,0-.44.1h-.06l-.58.17-.16.06-.51.19-.11,0-.06,0-.15.07-.35.15-.18.09-.36.18-.17.09-.55.3-.63.38-.08,0-.63.41-.11.08c-.21.15-.43.3-.65.47l-.12.08-.7.54-.08.06-.75.61,0,0c-.26.21-.52.44-.79.68l-.12.11-.8.73-.14.13c-.28.26-.55.53-.84.81,0,0,0,0,0,.05l-.09.09-.87.88,19,11c.29-.31.58-.6.87-.88l.14-.14.83-.81.15-.13c.27-.26.54-.5.8-.73l.12-.11c.26-.24.53-.47.79-.68l0,0c.25-.21.5-.42.75-.61l.07-.06.71-.54.11-.08c.22-.17.44-.32.66-.47l.11-.08.63-.41.08,0,.62-.38.56-.3.16-.09.37-.18.18-.09.35-.15.15-.07.16-.07.51-.19.17-.06.58-.17.05,0,.44-.1.16,0,.31-.06.14,0,.47-.06h0l.42,0h1.24Z" transform="translate(-7.16 -8.44)"/><path class="cls-42" d="M114.09,115.32a12,12,0,0,1-10.84,0,5.58,5.58,0,0,1-1.25-1l.45,6h0a3.13,3.13,0,0,0,1.83,2.54,9.68,9.68,0,0,0,8.77,0,3,3,0,0,0,1.8-2.54h0l.46-6A6.12,6.12,0,0,1,114.09,115.32Z" transform="translate(-7.16 -8.44)"/><path class="cls-42" d="M101,101.06l.29,3.88.21,2.8a5.17,5.17,0,0,0,1.76,1.57,11.91,11.91,0,0,0,10.84,0,5,5,0,0,0,1.72-1.54L116,105l.3-3.91Z" transform="translate(-7.16 -8.44)"/><path class="cls-43" d="M114.29,109.18l-.2.13a11.91,11.91,0,0,1-10.84,0l-.23-.15a5,5,0,0,1-1.53-1.42l.2,2.57.31,4a5.58,5.58,0,0,0,1.25,1,12,12,0,0,0,10.84,0,6.12,6.12,0,0,0,1.22-.94l.3-4,.2-2.57A5,5,0,0,1,114.29,109.18Z" transform="translate(-7.16 -8.44)"/><path class="cls-44" d="M114.05,97.92c3,1.74,3,4.55,0,6.28a11.91,11.91,0,0,1-10.84,0c-3-1.73-3-4.54,0-6.28A12,12,0,0,1,114.05,97.92Z" transform="translate(-7.16 -8.44)"/><path class="cls-45" d="M113.7,99.67c2.8,1.34,2.82,3.5,0,4.83a13.24,13.24,0,0,1-10.12,0c-2.81-1.33-2.82-3.5,0-4.83A13.36,13.36,0,0,1,113.7,99.67Z" transform="translate(-7.16 -8.44)"/><circle class="cls-46" cx="101.49" cy="105.14" r="4.11"/><path class="cls-47" d="M99.92,100.86c0-3.48,3.91-6.31,8.73-6.31s8.73,2.83,8.73,6.31-3.91,6.32-8.73,6.32S99.92,104.35,99.92,100.86Z" transform="translate(-7.16 -8.44)"/><path class="cls-48" d="M99.92,100.15c0-3.09,3.91-5.6,8.73-5.6s8.73,2.51,8.73,5.6-3.91,5.61-8.73,5.61S99.92,103.25,99.92,100.15Z" transform="translate(-7.16 -8.44)"/><ellipse class="cls-47" cx="101.46" cy="90.71" rx="6.47" ry="3.9"/><path class="cls-49" d="M102.57,99.75c0-1.82,2.72-3.29,6.08-3.29s6.08,1.47,6.08,3.29S112,103,108.65,103,102.57,101.57,102.57,99.75Z" transform="translate(-7.16 -8.44)"/><path class="cls-50" d="M107.23,100.46c0-.41.71-.74,1.6-.74s1.61.33,1.61.74-.72.75-1.61.75S107.23,100.87,107.23,100.46Z" transform="translate(-7.16 -8.44)"/><path class="cls-51" d="M108.69,101.17l3.92-9s.29-.78,1.92-.7,5.86.59,5.86.59" transform="translate(-7.16 -8.44)"/></svg>