<svg id="Layer_1" data-name="Layer 1" xmlns="http://www.w3.org/2000/svg" viewBox="0 0 84.95 102.04"><defs><style>.cls-1{fill:#fdd786;}.cls-2{fill:#f09b9a;}.cls-3{fill:#f2b9b8;}.cls-4{fill:#76a4ea;}.cls-5{fill:#b3b5bf;}.cls-6{fill:#97b4e8;}.cls-7{fill:#352727;}.cls-8{fill:#a1a4b2;}.cls-9{fill:#e6e6e6;}.cls-10{fill:#414344;}.cls-11{fill:#231f20;}.cls-12{fill:#ff8584;}</style></defs><path class="cls-1" d="M53,73.56C42,72.51,52,58,42.33,53.11S16.84,55.54,13.41,72.3s14.09,32.28,24.4,35.86,43.89,7.92,45.05-10.54S85.58,76.68,53,73.56Z" transform="translate(-12.97 -16.98)"/><path class="cls-2" d="M90,89A13.44,13.44,0,0,0,93,90.78a18.86,18.86,0,0,0,4.53.86c.87,0,.52,2.81-1.66,3.25-1.6.35-3.22-.3-3.84-.28s-4.33.42-4.93-.34S90,89,90,89Z" transform="translate(-12.97 -16.98)"/><path class="cls-3" d="M87.42,105.55s-.75,3.92-.1,5a22.14,22.14,0,0,0,5.13,5c1.46.74,2.57,2.7-1.13,3.47a7.54,7.54,0,0,1-4.86-1.69A18.79,18.79,0,0,0,83,115.14c-.65-.31-2.34-1.13-1.9-3.07a58.34,58.34,0,0,0,1.42-6.7Z" transform="translate(-12.97 -16.98)"/><path class="cls-4" d="M46.66,59.1s3.14,3.09,4.61,4.21a8.74,8.74,0,0,0,2.87,1.78c.7.17,9.31,2,11.9,2.89.08,1.37-1.47,2.58-1.47,2.58l-9.93,1.72L43.13,57.78Z" transform="translate(-12.97 -16.98)"/><path class="cls-5" d="M55.6,87.4a24.79,24.79,0,0,0,11.6,2.34c6.5-.33,14.22-1.74,14.67-1.63s-1.23,15.2-.58,16.73c.85,1.57,5.44,2.34,6.62.58,1.31-8.22,2.93-18,3.4-20.21S92,79.58,88.73,79c-.55-8.15.11-11.72-.89-14.08s-4.17-2-6.11-1.28S64,70.58,59,68.92C54.11,72,54,84.69,55.6,87.4Zm13.54-9.29c.92,0,9.92-4.44,11-4.89.29.07.81,5.13.81,5.13Z" transform="translate(-12.97 -16.98)"/><path class="cls-6" d="M38.14,56.57s-1.15.09-2.72,4-2.79,7.85-2.32,11,3.49,13.62,6.6,14.53c2.32.56,6.39-1.22,6.39-1.22A31.07,31.07,0,0,0,55,87.6c1.62-.12,0-2.92.28-5.57s1.44-11.22,3.46-12.78c1.25-1.34-1.92-1.59-3.25-1.58S50,65.45,49,63.2,43.55,54.45,38.14,56.57Z" transform="translate(-12.97 -16.98)"/><path class="cls-4" d="M50.21,78.45s-6.18.29-6.48-.24-2.43-6.95-4.49-8.78c1,1.72,2.68,7.72,3,8.93S43.24,80.14,50.21,78.45Z" transform="translate(-12.97 -16.98)"/><path class="cls-4" d="M55.34,84,48.83,86a27.72,27.72,0,0,1-2.74-1.16L55.28,82A8.18,8.18,0,0,0,55.34,84Z" transform="translate(-12.97 -16.98)"/><path class="cls-2" d="M42.67,59.7s-.83-.06-.94.63,1,2.32-.86,3.51c-1.62.81-4.82-2.89-4.12-4.64s.86-.94,1.39-2.63l1-1.88Z" transform="translate(-12.97 -16.98)"/><path class="cls-3" d="M48.69,50.21a11.37,11.37,0,0,1-.69,4c-.08,1.58-.22,6.26-2.94,6s-5.41-1.75-5.49-4.51l-.46-1.06-2.64-2.93S47.09,48.35,48.69,50.21Z" transform="translate(-12.97 -16.98)"/><path class="cls-7" d="M41.88,54.4s-.35-3.5.86-3.54,5.87.29,7.69-1.76.08-5.51-2.54-5.12c-4.35,1.27-8.51-1.93-10.57,2.18a4.14,4.14,0,0,0-3,4.59c.21,2.07,4,4.89,3.84,5.82a11.06,11.06,0,0,0,1-1.88s-.9-1.79.33-2.21,1.62,2,1.62,2Z" transform="translate(-12.97 -16.98)"/><path class="cls-3" d="M54.48,77.88a41.18,41.18,0,0,0,3.41-2.51c.88-.81,3.08,0,5.3-.52,1.24-.3-.81,3.41-2.49,3.85a15.82,15.82,0,0,0-5.33,2.55A4.22,4.22,0,0,0,54.48,77.88Z" transform="translate(-12.97 -16.98)"/><path class="cls-8" d="M80.24,73.35A10.8,10.8,0,0,0,84.15,77a14.24,14.24,0,0,0,4.53,1.19c0,.25,0,.51,0,.78A63.52,63.52,0,0,0,81,78.35,46.62,46.62,0,0,0,80.24,73.35Z" transform="translate(-12.97 -16.98)"/><path class="cls-9" d="M59.24,76.19l.8-3.87a.85.85,0,0,1,.51-.57l8.53-2.81c.34-.09.39,0,.33.3l-.8,3.86a.83.83,0,0,1-.51.57l-8.53,2.81C59.22,76.59,59.17,76.49,59.24,76.19Z" transform="translate(-12.97 -16.98)"/><path class="cls-10" d="M69.54,68.78a.26.26,0,0,1,.07.27l-.87,4.12a.89.89,0,0,1-.53.59l-8.79,2.89a.28.28,0,0,1-.27,0h0l.22.2h0a.29.29,0,0,0,.28,0L68.44,74a.88.88,0,0,0,.52-.59l.87-4.12a.26.26,0,0,0-.06-.27h0l-.23-.2Z" transform="translate(-12.97 -16.98)"/><path d="M59.43,76.66l8.79-2.9a.86.86,0,0,0,.52-.59l.87-4.11c0-.25-.1-.39-.34-.31l-8.79,2.9a.86.86,0,0,0-.52.59l-.87,4.11C59,76.6,59.19,76.74,59.43,76.66Zm9.79-6.45a.64.64,0,0,1-.19.14.43.43,0,0,0-.24.24l-.25,1.27a.25.25,0,0,0,.11.25c.12.08.14.13.14.13l-.18.87a.85.85,0,0,1-.51.57l-8.53,2.81c-.35.1-.4,0-.33-.3l.81-3.86a.83.83,0,0,1,.51-.57L69.09,69c.33-.09.38,0,.33.29" transform="translate(-12.97 -16.98)"/><path class="cls-11" d="M59.63,75h0s0,0,0-.09L60,73.24s0-.07,0,0h0s0,0,0,.08l-.35,1.64S59.62,75,59.63,75Z" transform="translate(-12.97 -16.98)"/><path class="cls-12" d="M46.3,23.7c0-3.71,4.05-6.72,9-6.72s9,3,9,6.72-4,6.73-9,6.73a11.59,11.59,0,0,1-4-.7l-1.8,2.46L48.37,28A5.77,5.77,0,0,1,46.3,23.7Z" transform="translate(-12.97 -16.98)"/></svg>