<svg id="Layer_1" data-name="Layer 1" xmlns="http://www.w3.org/2000/svg" xmlns:xlink="http://www.w3.org/1999/xlink" viewBox="0 0 1033.3 1408.08"><defs><style>.cls-1{fill:none;}.cls-2{fill:#46838f;}.cls-3{fill:#60b6c8;}.cls-4{fill:#86d4ec;}.cls-5{fill:#66bfd1;}.cls-6{fill:#4bc6e3;}.cls-7{opacity:0.6;}.cls-8{fill:#417b87;}.cls-9{isolation:isolate;}.cls-10{clip-path:url(#clip-path);}.cls-11{fill:#478590;}.cls-12{clip-path:url(#clip-path-2);}.cls-13{fill:#3f7781;}.cls-14{fill:#417c87;}.cls-15{fill:#44808c;}.cls-16{fill:#488995;}.cls-17{fill:#4c8d9a;}.cls-18{fill:#4e919f;}.cls-19{fill:#5096a4;}.cls-20{fill:#529ba9;}.cls-21{fill:#54a0af;}.cls-22{fill:#57a3b3;}.cls-23{clip-path:url(#clip-path-3);}.cls-24{clip-path:url(#clip-path-4);}.cls-25{clip-path:url(#clip-path-5);}.cls-26{fill:#59aabb;}.cls-27{clip-path:url(#clip-path-6);}.cls-28{clip-path:url(#clip-path-7);}.cls-29{fill:#5dafc0;}.cls-30{fill:#68c3d7;}.cls-31{clip-path:url(#clip-path-8);}.cls-32{clip-path:url(#clip-path-9);}.cls-33{clip-path:url(#clip-path-10);}.cls-34{clip-path:url(#clip-path-11);}.cls-35{clip-path:url(#clip-path-12);}.cls-36{clip-path:url(#clip-path-13);}.cls-37{clip-path:url(#clip-path-14);}.cls-38{clip-path:url(#clip-path-15);}.cls-39{clip-path:url(#clip-path-16);}.cls-40{clip-path:url(#clip-path-17);}.cls-41{clip-path:url(#clip-path-18);}.cls-42{clip-path:url(#clip-path-19);}.cls-43{clip-path:url(#clip-path-20);}.cls-44{clip-path:url(#clip-path-21);}.cls-45{clip-path:url(#clip-path-22);}.cls-46{clip-path:url(#clip-path-23);}.cls-47{clip-path:url(#clip-path-24);}.cls-48{clip-path:url(#clip-path-25);}.cls-49{clip-path:url(#clip-path-26);}.cls-50{clip-path:url(#clip-path-27);}.cls-51{clip-path:url(#clip-path-28);}.cls-52{clip-path:url(#clip-path-29);}.cls-53{clip-path:url(#clip-path-30);}.cls-54{clip-path:url(#clip-path-31);}.cls-55{clip-path:url(#clip-path-32);}.cls-56{clip-path:url(#clip-path-33);}.cls-57{fill:#5badbd;}.cls-58{clip-path:url(#clip-path-34);}.cls-59{clip-path:url(#clip-path-35);}.cls-60{fill:#5cb0c1;}.cls-61{clip-path:url(#clip-path-36);}.cls-62{clip-path:url(#clip-path-37);}.cls-63{fill:#5db1c2;}.cls-64{fill:#5aadbc;}.cls-65{fill:#59a8b8;}.cls-66{clip-path:url(#clip-path-38);}.cls-67{fill:#6d96b9;}.cls-68{fill:#84afdd;}.cls-69{fill:#bcbcbc;}.cls-70{fill:#363652;}.cls-71{fill:#5a63a9;}.cls-72{fill:#515896;}.cls-73{fill:gray;}.cls-74{fill:#d7e7f6;}.cls-75{fill:#f48485;}.cls-76{fill:#96bbe3;}.cls-77{fill:#fbba14;}.cls-78{fill:#d1d2d2;}.cls-79{fill:#d2edf4;}.cls-80{fill:#484d6a;}.cls-81{fill:#e5807f;}.cls-82{fill:#36475d;}.cls-83{fill:#456bb3;}.cls-84{fill:#698cc8;}.cls-85{clip-path:url(#clip-path-39);}.cls-86{clip-path:url(#clip-path-40);}.cls-87{clip-path:url(#clip-path-41);}.cls-88{fill:#73cee4;}.cls-89{fill:#b6dfe7;}.cls-90{fill:#5d86bf;}.cls-91{fill:#415e87;}.cls-92{fill:#6996cf;}.cls-93{clip-path:url(#clip-path-42);}.cls-94{clip-path:url(#clip-path-43);}.cls-95{clip-path:url(#clip-path-44);}.cls-96{fill:#6dadc1;}.cls-97{fill:#4c8d9c;}.cls-98{clip-path:url(#clip-path-45);}.cls-99{fill:#f69ea0;}.cls-100{fill:#f48283;}.cls-101{fill:#f7a9ab;}.cls-102{clip-path:url(#clip-path-46);}.cls-103{fill:#fed35f;}.cls-104{fill:#fdcc40;}.cls-105{fill:#ffd159;}.cls-106{clip-path:url(#clip-path-47);}.cls-107{fill:#f8aeaf;}</style><clipPath id="clip-path" transform="translate(-107.65 -68.85)"><path class="cls-1" d="M914.77,569c.29,162.19.46,246.19.55,288.31C915.23,815.18,915.06,731.18,914.77,569Z"/></clipPath><clipPath id="clip-path-2" transform="translate(-107.65 -68.85)"><path class="cls-1" d="M910.55,568.54v1.69a20.32,20.32,0,0,1,11.28-2.5,16.65,16.65,0,0,1,10.11,3.79v-1.7A16.72,16.72,0,0,0,921.82,566,20.2,20.2,0,0,0,910.55,568.54Z"/></clipPath><clipPath id="clip-path-3" transform="translate(-107.65 -68.85)"><path class="cls-1" d="M730.53,675.8v1.7c0-2.14,1.56-4.22,4.49-5.91v-1.7C732.09,671.58,730.52,673.66,730.53,675.8Z"/></clipPath><clipPath id="clip-path-4" transform="translate(-107.65 -68.85)"><path class="cls-1" d="M729.49,675.8v1.69a4.4,4.4,0,0,0,.06.73v-1.7A4.37,4.37,0,0,1,729.49,675.8Z"/></clipPath><clipPath id="clip-path-5" transform="translate(-107.65 -68.85)"><path class="cls-1" d="M729.55,676.52v1.7c.4,2.56,2.82,4.85,6.83,6.44V683C732.37,681.37,729.94,679.08,729.55,676.52Z"/></clipPath><clipPath id="clip-path-6" transform="translate(-107.65 -68.85)"><path class="cls-1" d="M1120.38,743v-1.69a8.77,8.77,0,0,0-3.19-6.53v1.7A8.72,8.72,0,0,1,1120.38,743Z"/></clipPath><clipPath id="clip-path-7" transform="translate(-107.65 -68.85)"><path class="cls-1" d="M1121.41,743v-1.69c0,3.46-2.17,6.95-6.34,9.36v1.7C1119.24,750,1121.42,746.47,1121.41,743Z"/></clipPath><clipPath id="clip-path-8" transform="translate(-107.65 -68.85)"><path class="cls-1" d="M1015.41,793.68v1.7c8.23,3.26,20.7,2.59,27.79-1.51v-1.69C1036.11,796.27,1023.65,796.94,1015.41,793.68Z"/></clipPath><clipPath id="clip-path-9" transform="translate(-107.65 -68.85)"><path class="cls-1" d="M910.55,609.39v1.7a20.24,20.24,0,0,1,11.28-2.51,16.71,16.71,0,0,1,10.11,3.79v-1.7a16.72,16.72,0,0,0-10.12-3.79A20.37,20.37,0,0,0,910.55,609.39Z"/></clipPath><clipPath id="clip-path-10" transform="translate(-107.65 -68.85)"><path class="cls-1" d="M730.53,716.66v1.69c0-2.14,1.56-4.22,4.49-5.91v-1.7C732.09,712.43,730.52,714.51,730.53,716.66Z"/></clipPath><clipPath id="clip-path-11" transform="translate(-107.65 -68.85)"><path class="cls-1" d="M729.49,716.64c0,.57,0,1.13,0,1.7a4.49,4.49,0,0,0,.06.73v-1.69A4.62,4.62,0,0,1,729.49,716.64Z"/></clipPath><clipPath id="clip-path-12" transform="translate(-107.65 -68.85)"><path class="cls-1" d="M729.55,717.38v1.69c.39,2.56,2.81,4.85,6.82,6.44v-1.7C732.37,722.22,729.94,719.94,729.55,717.38Z"/></clipPath><clipPath id="clip-path-13" transform="translate(-107.65 -68.85)"><path class="cls-1" d="M1120.39,783.88c0-.57,0-1.14,0-1.7a8.71,8.71,0,0,0-3.19-6.52v1.69A8.77,8.77,0,0,1,1120.39,783.88Z"/></clipPath><clipPath id="clip-path-14" transform="translate(-107.65 -68.85)"><path class="cls-1" d="M1121.41,783.87v-1.7c0,3.46-2.17,7-6.34,9.36v1.7C1119.24,790.82,1121.42,787.33,1121.41,783.87Z"/></clipPath><clipPath id="clip-path-15" transform="translate(-107.65 -68.85)"><path class="cls-1" d="M1015.41,834.53v1.7c8.23,3.26,20.7,2.59,27.79-1.5V833C1036.11,837.12,1023.65,837.79,1015.41,834.53Z"/></clipPath><clipPath id="clip-path-16" transform="translate(-107.65 -68.85)"><path class="cls-1" d="M910.55,650.24v1.7a20.41,20.41,0,0,1,11.28-2.51,16.71,16.71,0,0,1,10.11,3.79v-1.69a16.72,16.72,0,0,0-10.12-3.8A20.37,20.37,0,0,0,910.55,650.24Z"/></clipPath><clipPath id="clip-path-17" transform="translate(-107.65 -68.85)"><path class="cls-1" d="M730.53,757.5c0,.57,0,1.13,0,1.7,0-2.14,1.56-4.22,4.48-5.91V751.6C732.09,753.28,730.53,755.36,730.53,757.5Z"/></clipPath><clipPath id="clip-path-18" transform="translate(-107.65 -68.85)"><path class="cls-1" d="M729.49,757.5c0,.56,0,1.13,0,1.69a4.62,4.62,0,0,0,.06.74v-1.7A4.59,4.59,0,0,1,729.49,757.5Z"/></clipPath><clipPath id="clip-path-19" transform="translate(-107.65 -68.85)"><path class="cls-1" d="M729.55,758.23v1.7c.39,2.56,2.81,4.84,6.82,6.43v-1.7C732.37,763.08,729.94,760.79,729.55,758.23Z"/></clipPath><clipPath id="clip-path-20" transform="translate(-107.65 -68.85)"><path class="cls-1" d="M1120.39,824.73c0-.57,0-1.13,0-1.7a8.72,8.72,0,0,0-3.19-6.52v1.7A8.74,8.74,0,0,1,1120.39,824.73Z"/></clipPath><clipPath id="clip-path-21" transform="translate(-107.65 -68.85)"><path class="cls-1" d="M1121.41,824.72V823c0,3.46-2.17,7-6.34,9.36v1.7C1119.24,831.68,1121.42,828.18,1121.41,824.72Z"/></clipPath><clipPath id="clip-path-22" transform="translate(-107.65 -68.85)"><path class="cls-1" d="M1015.41,875.38v1.7c8.23,3.26,20.7,2.59,27.79-1.5v-1.7C1036.11,878,1023.65,878.65,1015.41,875.38Z"/></clipPath><clipPath id="clip-path-23" transform="translate(-107.65 -68.85)"><path class="cls-1" d="M910.55,691.1v1.69a20.41,20.41,0,0,1,11.28-2.51,16.77,16.77,0,0,1,10.11,3.79v-1.69a16.72,16.72,0,0,0-10.12-3.79A20.2,20.2,0,0,0,910.55,691.1Z"/></clipPath><clipPath id="clip-path-24" transform="translate(-107.65 -68.85)"><path class="cls-1" d="M730.53,798.35c0,.57,0,1.14,0,1.7,0-2.14,1.56-4.22,4.48-5.91v-1.69C732.09,794.14,730.53,796.21,730.53,798.35Z"/></clipPath><clipPath id="clip-path-25" transform="translate(-107.65 -68.85)"><path class="cls-1" d="M729.49,798.35c0,.56,0,1.13,0,1.7a4.59,4.59,0,0,0,.06.73v-1.7A4.49,4.49,0,0,1,729.49,798.35Z"/></clipPath><clipPath id="clip-path-26" transform="translate(-107.65 -68.85)"><path class="cls-1" d="M729.55,799.08v1.7c.39,2.56,2.81,4.84,6.82,6.44v-1.7C732.37,803.93,729.94,801.64,729.55,799.08Z"/></clipPath><clipPath id="clip-path-27" transform="translate(-107.65 -68.85)"><path class="cls-1" d="M1120.39,865.58c0-.57,0-1.13,0-1.7a8.74,8.74,0,0,0-3.19-6.52v1.7A8.74,8.74,0,0,1,1120.39,865.58Z"/></clipPath><clipPath id="clip-path-28" transform="translate(-107.65 -68.85)"><path class="cls-1" d="M1121.41,865.57v-1.7c0,3.46-2.17,7-6.34,9.37v1.69C1119.24,872.53,1121.42,869,1121.41,865.57Z"/></clipPath><clipPath id="clip-path-29" transform="translate(-107.65 -68.85)"><path class="cls-1" d="M1015.41,916.24v1.7c8.23,3.26,20.7,2.59,27.79-1.51v-1.7C1036.11,918.83,1023.65,919.5,1015.41,916.24Z"/></clipPath><clipPath id="clip-path-30" transform="translate(-107.65 -68.85)"><path class="cls-1" d="M910.57,861.84v1.7a21.7,21.7,0,0,1,11.61-2.64,19.25,19.25,0,0,1,10.87,3.5v-1.7a19.33,19.33,0,0,0-10.87-3.5A21.88,21.88,0,0,0,910.57,861.84Z"/></clipPath><clipPath id="clip-path-31" transform="translate(-107.65 -68.85)"><path class="cls-1" d="M730.39,969.43c0,.57,0,1.13,0,1.7,0-2.3,1.62-4.5,4.64-6.24v-1.7C732,964.94,730.39,967.13,730.39,969.43Z"/></clipPath><clipPath id="clip-path-32" transform="translate(-107.65 -68.85)"><path class="cls-1" d="M729.36,969.43v1.7a4.71,4.71,0,0,0,0,.53V970C729.37,969.79,729.36,969.61,729.36,969.43Z"/></clipPath><clipPath id="clip-path-33" transform="translate(-107.65 -68.85)"><path class="cls-1" d="M729.38,970v1.7c.27,2.65,2.54,5.06,6.36,6.78v-1.7C731.92,975,729.66,972.61,729.38,970Z"/></clipPath><clipPath id="clip-path-34" transform="translate(-107.65 -68.85)"><path class="cls-1" d="M1139.92,1025.57v-1.7c0-2.43-1.27-4.85-3.84-6.81v1.7A8.68,8.68,0,0,1,1139.92,1025.57Z"/></clipPath><clipPath id="clip-path-35" transform="translate(-107.65 -68.85)"><path class="cls-1" d="M1141,1025.56v-1.69c0,3.17-2,6.35-5.93,8.61v1.7C1139,1031.91,1141,1028.73,1141,1025.56Z"/></clipPath><clipPath id="clip-path-36" transform="translate(-107.65 -68.85)"><path class="cls-1" d="M1000,1095.72v1.7c7.9,3.55,20.09,3.11,27.2-1v-1.69C1020.11,1098.83,1007.91,1099.27,1000,1095.72Z"/></clipPath><clipPath id="clip-path-37" transform="translate(-107.65 -68.85)"><path class="cls-1" d="M859.26,454.61,675.86,561.19c1.3-.75,3.1-.65,5.08.5l183.4-106.58C862.35,454,860.56,453.86,859.26,454.61Z"/></clipPath><clipPath id="clip-path-38" transform="translate(-107.65 -68.85)"><path class="cls-1" d="M686,578.59,869.37,472c1.28-.74,2.08-2.33,2.08-4.58a15.66,15.66,0,0,0-7.11-12.32L680.94,561.69A15.7,15.7,0,0,1,688.06,574C688.05,576.26,687.25,577.85,686,578.59Z"/></clipPath><clipPath id="clip-path-39" transform="translate(-107.65 -68.85)"><path class="cls-2" d="M253.5,265.12,510.26,115.91a1.24,1.24,0,0,1,1.26.14L254.77,265.26A1.26,1.26,0,0,0,253.5,265.12Z"/></clipPath><clipPath id="clip-path-40" transform="translate(-107.65 -68.85)"><path class="cls-2" d="M711.54,318.29,454.78,467.5a1.55,1.55,0,0,0,.65-1.41L712.18,316.88A1.53,1.53,0,0,1,711.54,318.29Z"/></clipPath><clipPath id="clip-path-41" transform="translate(-107.65 -68.85)"><path class="cls-2" d="M453.36,423.63,710.12,274.41a6.22,6.22,0,0,1,2.17,4.29L455.53,427.91A6.2,6.2,0,0,0,453.36,423.63Z"/></clipPath><clipPath id="clip-path-42" transform="translate(-107.65 -68.85)"><polygon class="cls-1" points="230.81 1201.28 382.78 1289.6 503.3 1220.02 351.32 1131.7 230.81 1201.28"/></clipPath><clipPath id="clip-path-43" transform="translate(-107.65 -68.85)"><polygon class="cls-1" points="109.51 1270.74 261.49 1359.06 382.01 1289.48 230.03 1201.16 109.51 1270.74"/></clipPath><clipPath id="clip-path-44" transform="translate(-107.65 -68.85)"><polygon class="cls-1" points="391.07 1258.04 239.09 1346.36 118.58 1276.78 270.56 1188.46 391.07 1258.04"/></clipPath><clipPath id="clip-path-45" transform="translate(-107.65 -68.85)"><polygon class="cls-1" points="420.88 1108.49 268.9 1196.81 148.39 1127.23 300.37 1038.91 420.88 1108.49"/></clipPath><clipPath id="clip-path-46" transform="translate(-107.65 -68.85)"><polygon class="cls-1" points="1047.93 1086.16 946.2 1145.27 865.54 1098.7 967.26 1039.58 1047.93 1086.16"/></clipPath><clipPath id="clip-path-47" transform="translate(-107.65 -68.85)"><polygon class="cls-1" points="864.18 1016.13 965.9 1075.25 1046.57 1028.67 944.85 969.56 864.18 1016.13"/></clipPath></defs><path class="cls-3" d="M982.42,918.47c0-.22,0-.44-.08-.66s-.07-.47-.12-.7-.05-.32-.09-.48-.07-.3-.11-.44-.11-.44-.17-.66l-.11-.35c-.08-.25-.16-.49-.25-.73l-.09-.26c-.12-.33-.26-.67-.4-1l0-.07c-.14-.3-.28-.61-.43-.91l-.12-.23c-.14-.28-.3-.56-.46-.84l-.06-.12c-.18-.31-.37-.62-.57-.92l-.15-.23-.46-.66c-.08-.11-.16-.21-.23-.32l-.41-.52-.34-.42-.34-.38c-.19-.21-.39-.42-.59-.62l-.39-.39a3.45,3.45,0,0,0-.28-.26l-.52-.46-.29-.24-.57-.43c-.09-.06-.17-.13-.26-.18a9.88,9.88,0,0,0-.84-.54,10.63,10.63,0,0,0-1.12-.56l-.34-.14-.63-.21-.39-.11-.37-.08-.46-.07-.28,0h-.69a4.62,4.62,0,0,0-.65.08l-.17,0-.47.14a1,1,0,0,0-.16.06,3.38,3.38,0,0,0-.58.27l7.34-4.26,0,0,.44-.22.09,0,.16,0,.22-.08a1.83,1.83,0,0,1,.25-.06l.17,0,.08,0a4.52,4.52,0,0,1,.53-.06h.59l.15,0,.26,0,.25,0,.22.05.36.07.2.05.21.07q.3.09.6.21a2.09,2.09,0,0,1,.23.08l.13.06c.37.16.73.34,1.11.55s.57.35.84.54a2.83,2.83,0,0,1,.28.2c.19.13.37.27.55.42l.31.25.5.44.29.27.19.18.2.2c.2.21.4.42.59.64a1.62,1.62,0,0,1,.18.19l.15.17.36.44.21.27a2,2,0,0,1,.17.23c.09.11.17.22.25.34s.12.15.17.23l.27.39.18.27a.61.61,0,0,0,.07.1l.46.75a.08.08,0,0,0,0,0,1.09,1.09,0,0,1,.08.15c.11.18.21.37.31.55l.13.25.14.28c0,.07.08.15.11.22s.2.43.3.65a.3.3,0,0,0,0,.08v0c.12.27.23.53.33.8,0,0,0,.09.05.14a2.47,2.47,0,0,1,.1.29c0,.13.11.27.15.4s.06.21.1.32.07.24.11.37l.06.22c0,.13.07.26.1.39s.08.3.11.45a1.36,1.36,0,0,1,0,.17c0,.12,0,.23.06.35s.09.45.12.68a1.2,1.2,0,0,1,0,.2c0,.15,0,.3,0,.45l0,.3c0,.33,0,.66,0,1,0,2.8-1,4.76-2.59,5.69l-7.33,4.26c1.59-.92,2.57-2.89,2.58-5.69,0-.32,0-.65,0-1Z" transform="translate(-107.65 -68.85)"/><path class="cls-4" d="M973.66,904.45c-4.9-2.83-8.88-.56-8.89,5.06s3.94,12.48,8.83,15.3,8.88.56,8.89-5.07S978.55,907.27,973.66,904.45Z" transform="translate(-107.65 -68.85)"/><path class="cls-5" d="M979.35,918.53c0,4-2.84,5.59-6.3,3.59a13.82,13.82,0,0,1-6.26-10.84c0-4,2.84-5.58,6.3-3.59A13.84,13.84,0,0,1,979.35,918.53Zm-6.3,1.89c2.65,1.53,4.81.3,4.82-2.74a10.56,10.56,0,0,0-4.79-8.29c-2.64-1.53-4.8-.3-4.81,2.74a10.54,10.54,0,0,0,4.78,8.29" transform="translate(-107.65 -68.85)"/><path class="cls-6" d="M965.48,888.27c-1.21-.7-1.82,0-1.35,1.57l2.75,9.09c.48,1.56,1.25,4.12,1.72,5.68l2.75,9.08a2.58,2.58,0,0,0,.87,1.47c.31.18.63,0,.87-.47l2.79-5.88c.48-1,1.27-2.66,1.75-3.68l2.8-5.88a2.6,2.6,0,0,0-1.34-3.12l-4.59-2.65-4.43-2.56Z" transform="translate(-107.65 -68.85)"/><g class="cls-7"><path class="cls-8" d="M779.18,698.44a2.41,2.41,0,0,0-1.1,1.92c.12,39.62.28,92.29.37,123.26v1.28L960.67,719.69v-1.28c0-38.54-.07-105.54-.08-123.42,0-.71-.5-1-1.11-.65a2.44,2.44,0,0,0-1.1,1.92c0,17.68,0,83.42.07,122.16L780.66,821.07c-.09-31.13-.25-82.91-.36-122C780.29,698.37,779.79,698.09,779.18,698.44Z" transform="translate(-107.65 -68.85)"/></g><g class="cls-7"><path class="cls-8" d="M1001.91,631.42a2.45,2.45,0,0,0-1.1,1.91c0,17.65.06,83.23.11,121.87L846.47,844.37c-.09-31-.23-80.76-.35-119.76,0-.7-.5-1-1.12-.63a2.43,2.43,0,0,0-1.1,1.91c.12,39.54.27,90.13.36,121v1.27l158.88-91.73v-1.27c-.06-38.45-.1-105.29-.11-123.13C1003,631.36,1002.52,631.07,1001.91,631.42Z" transform="translate(-107.65 -68.85)"/></g><g class="cls-7"><path class="cls-8" d="M1046.22,669.89a2.43,2.43,0,0,0-1.1,1.91c0,18,.08,84.77.15,124.1L913.18,872.16c-.09-31.51-.23-79.61-.35-119.33,0-.7-.5-1-1.11-.63a2.44,2.44,0,0,0-1.11,1.91c.12,40.27.27,89.13.36,120.61V876l136.51-78.81V795.9c-.07-39.16-.14-107.2-.16-125.37C1047.33,669.83,1046.84,669.54,1046.22,669.89Z" transform="translate(-107.65 -68.85)"/></g><g class="cls-7"><path class="cls-8" d="M972.86,776a2.44,2.44,0,0,0-1.11,1.91c.12,39.26.28,91.45.36,122.14v1.28L1090.45,833v-1.28c-.07-38.18-.15-104.53-.18-122.24,0-.7-.5-1-1.11-.64a2.45,2.45,0,0,0-1.1,1.91c0,17.51.1,82.6.17,121l-113.9,65.75c-.09-30.84-.25-82.14-.36-120.86C974,775.88,973.47,775.6,972.86,776Z" transform="translate(-107.65 -68.85)"/></g><g class="cls-7"><path class="cls-8" d="M1106.34,752.91a2.45,2.45,0,0,1,1.11,1.92c-.12,39.62-.28,92.29-.37,123.26v1.28L853,725V723.7c0-38.55.07-105.55.08-123.43,0-.71.49-1,1.1-.64a2.42,2.42,0,0,1,1.11,1.91c0,17.69,0,83.43-.07,122.16l249.63,151.84c.1-31.13.25-82.91.37-122C1105.23,752.84,1105.73,752.56,1106.34,752.91Z" transform="translate(-107.65 -68.85)"/></g><g class="cls-7"><path class="cls-8" d="M1052.74,783.62a2.41,2.41,0,0,1,1.1,1.91c-.12,39.62-.28,92.3-.37,123.27v1.27L799.4,755.68V754.4c.05-38.54.07-105.54.08-123.42,0-.71.5-1,1.11-.65a2.48,2.48,0,0,1,1.11,1.92c0,17.68,0,83.42-.08,122.16l249.64,151.83c.09-31.12.25-82.91.36-122C1051.63,783.55,1052.13,783.26,1052.74,783.62Z" transform="translate(-107.65 -68.85)"/></g><g class="cls-9"><g class="cls-9"><g class="cls-10"><g class="cls-9"><path class="cls-11" d="M914.77,569c.29,162.19.46,246.19.55,288.31-.09-42.12-.26-126.12-.55-288.31" transform="translate(-107.65 -68.85)"/></g></g></g><path class="cls-8" d="M917,566.44c.3,164.67.47,249.07.56,290.86v1.27L735.32,963.77l-.85-293.24L917,565.16ZM737.53,960,915.32,857.3c-.09-42.12-.26-126.12-.55-288.31L736.69,671.8,737.53,960" transform="translate(-107.65 -68.85)"/></g><g class="cls-9"><g class="cls-9"><g class="cls-12"><g class="cls-9"><path class="cls-13" d="M910.55,568.54v1.69a18.08,18.08,0,0,1,2.39-1.14v-1.7a17.55,17.55,0,0,0-2.39,1.15" transform="translate(-107.65 -68.85)"/><path class="cls-14" d="M912.94,567.39v1.7c.59-.23,1.19-.43,1.8-.61v-1.7c-.61.18-1.21.38-1.79.61" transform="translate(-107.65 -68.85)"/><path class="cls-15" d="M914.73,566.78v1.7c.47-.13,1-.25,1.44-.35v-1.7c-.49.1-1,.22-1.45.35" transform="translate(-107.65 -68.85)"/><path class="cls-11" d="M916.18,566.43v1.7c.44-.09.87-.17,1.31-.23v-1.7c-.44.06-.88.14-1.31.23" transform="translate(-107.65 -68.85)"/><path class="cls-16" d="M917.49,566.2v1.7c.41-.06.83-.11,1.24-.14v-1.7c-.42,0-.83.08-1.24.14" transform="translate(-107.65 -68.85)"/><path class="cls-17" d="M918.73,566.06v1.7c.41,0,.82-.06,1.24-.07V566l-1.23.06" transform="translate(-107.65 -68.85)"/><path class="cls-18" d="M920,566v1.69c.42,0,.85,0,1.28,0V566c-.43,0-.85,0-1.28,0" transform="translate(-107.65 -68.85)"/><path class="cls-19" d="M921.24,566v1.7l.58,0,.84.06V566.1l-.85-.07-.58,0" transform="translate(-107.65 -68.85)"/><path class="cls-20" d="M922.67,566.1v1.69c.55.06,1.09.13,1.61.23v-1.7c-.53-.09-1.07-.17-1.61-.22" transform="translate(-107.65 -68.85)"/><path class="cls-21" d="M924.28,566.32V568a18.21,18.21,0,0,1,2.42.6v-1.7a18.6,18.6,0,0,0-2.42-.6" transform="translate(-107.65 -68.85)"/><path class="cls-22" d="M926.7,566.92v1.7a15.55,15.55,0,0,1,3.33,1.5v-1.7a16,16,0,0,0-3.33-1.5" transform="translate(-107.65 -68.85)"/><path class="cls-21" d="M930,568.42v1.7a12.36,12.36,0,0,1,1.91,1.4v-1.7a13.61,13.61,0,0,0-1.91-1.4" transform="translate(-107.65 -68.85)"/></g></g></g><polygon class="cls-8" points="627.36 601.04 627.37 602.74 802.9 501.39 802.9 499.69 627.36 601.04"/><g class="cls-9"><g class="cls-23"><g class="cls-9"><path class="cls-13" d="M730.53,675.8v1.7c0-2.14,1.56-4.22,4.49-5.91v-1.7c-2.92,1.69-4.49,3.77-4.48,5.91" transform="translate(-107.65 -68.85)"/></g></g></g><g class="cls-9"><g class="cls-24"><g class="cls-9"><path class="cls-11" d="M729.49,675.8v1.69a.53.53,0,0,0,0,.13V675.8" transform="translate(-107.65 -68.85)"/><path class="cls-16" d="M729.49,675.92v1.7a4,4,0,0,0,0,.6v-1.7a4.07,4.07,0,0,1-.06-.6" transform="translate(-107.65 -68.85)"/></g></g></g><g class="cls-9"><g class="cls-25"><g class="cls-9"><path class="cls-16" d="M729.55,676.52v1.7c0,.07,0,.14,0,.21v-1.69a2.07,2.07,0,0,1,0-.22" transform="translate(-107.65 -68.85)"/><path class="cls-17" d="M729.59,676.74v1.69a4.55,4.55,0,0,0,.23.8v-1.7a5.45,5.45,0,0,1-.22-.79" transform="translate(-107.65 -68.85)"/><path class="cls-18" d="M729.81,677.53v1.7a6.4,6.4,0,0,0,.37.8v-1.69a6.6,6.6,0,0,1-.38-.81" transform="translate(-107.65 -68.85)"/><path class="cls-19" d="M730.19,678.34V680a6.72,6.72,0,0,0,.58.85v-1.69a6.31,6.31,0,0,1-.57-.85" transform="translate(-107.65 -68.85)"/><path class="cls-20" d="M730.76,679.19v1.69a6.92,6.92,0,0,0,.91,1v-1.69a10.27,10.27,0,0,1-.91-1" transform="translate(-107.65 -68.85)"/><path class="cls-21" d="M731.67,680.17v1.69a12.1,12.1,0,0,0,1.94,1.45v-1.7a12.17,12.17,0,0,1-2-1.44" transform="translate(-107.65 -68.85)"/><path class="cls-22" d="M733.62,681.61v1.7a18.67,18.67,0,0,0,2.76,1.35V683a19,19,0,0,1-2.75-1.35" transform="translate(-107.65 -68.85)"/></g></g></g><polygon class="cls-26" points="824.29 500.97 824.29 502.67 1009.54 667.65 1009.54 665.95 824.29 500.97"/><g class="cls-9"><g class="cls-27"><g class="cls-9"><path class="cls-21" d="M1117.19,734.8v1.7l.17.15V735l-.17-.15" transform="translate(-107.65 -68.85)"/><path class="cls-20" d="M1117.36,735v1.7a11.24,11.24,0,0,1,1.16,1.25v-1.69a10.49,10.49,0,0,0-1.16-1.26" transform="translate(-107.65 -68.85)"/><path class="cls-19" d="M1118.52,736.21v1.69a8.85,8.85,0,0,1,.8,1.19v-1.7a8.67,8.67,0,0,0-.79-1.18" transform="translate(-107.65 -68.85)"/><path class="cls-18" d="M1119.31,737.39v1.7a8.54,8.54,0,0,1,.56,1.19v-1.7a8.54,8.54,0,0,0-.56-1.19" transform="translate(-107.65 -68.85)"/><path class="cls-17" d="M1119.87,738.58v1.7a7.91,7.91,0,0,1,.35,1.24v-1.7a9.65,9.65,0,0,0-.36-1.24" transform="translate(-107.65 -68.85)"/><path class="cls-16" d="M1120.23,739.82v1.7a7.1,7.1,0,0,1,.15,1.3v-1.7a8.2,8.2,0,0,0-.14-1.3" transform="translate(-107.65 -68.85)"/><path class="cls-11" d="M1120.37,741.12v.21a1.48,1.48,0,0,0,0-.21" transform="translate(-107.65 -68.85)"/></g></g></g><g class="cls-9"><g class="cls-28"><g class="cls-9"><path class="cls-13" d="M1115.07,750.68v1.7c4.16-2.41,6.34-5.91,6.33-9.37v-1.69c0,3.46-2.17,6.95-6.34,9.36" transform="translate(-107.65 -68.85)"/></g></g></g><polygon class="cls-8" points="935.55 723.33 935.56 725.02 1007.43 683.53 1007.42 681.83 935.55 723.33"/><polygon class="cls-29" points="628.72 614.11 628.73 615.81 907.77 726.53 907.76 724.83 628.72 614.11"/><path class="cls-30" d="M734.28,669.46,909.82,568.11a21.88,21.88,0,0,1,12.12-2.68,17.92,17.92,0,0,1,10.87,4.06l185.25,165c5.44,4.85,4.1,12.11-3,16.21l-71.87,41.5c-7.09,4.09-19.55,4.76-27.79,1.5L736.37,683c-4-1.59-6.43-3.88-6.82-6.44S730.83,671.45,734.28,669.46Zm2.68,13,279,110.72c7.83,3.11,19.71,2.47,26.46-1.43l71.87-41.5c6.76-3.9,8-10.83,2.85-15.45l-185.25-165A16.72,16.72,0,0,0,921.82,566a20.2,20.2,0,0,0-11.27,2.51L735,669.89c-3.22,1.86-4.8,4.2-4.43,6.58s2.64,4.5,6.38,6" transform="translate(-107.65 -68.85)"/><g class="cls-9"><g class="cls-31"><g class="cls-9"><path class="cls-22" d="M1015.41,793.68v1.7c.48.19,1,.37,1.49.53v-1.7c-.51-.16-1-.34-1.49-.53" transform="translate(-107.65 -68.85)"/><path class="cls-21" d="M1016.9,794.21v1.7a30.08,30.08,0,0,0,3.85,1v-1.7a28.5,28.5,0,0,1-3.85-.95" transform="translate(-107.65 -68.85)"/><path class="cls-20" d="M1020.75,795.16v1.7q1.38.25,2.82.39v-1.7q-1.44-.13-2.82-.39" transform="translate(-107.65 -68.85)"/><path class="cls-19" d="M1023.57,795.55v1.7c.84.08,1.69.14,2.54.17v-1.7c-.86,0-1.71-.08-2.55-.17" transform="translate(-107.65 -68.85)"/><path class="cls-18" d="M1026.12,795.72v1.7c.81,0,1.62,0,2.43,0v-1.7c-.81,0-1.62,0-2.42,0" transform="translate(-107.65 -68.85)"/><path class="cls-17" d="M1028.54,795.73v1.7q1.17,0,2.34-.12v-1.7c-.78.06-1.56.1-2.35.12" transform="translate(-107.65 -68.85)"/><path class="cls-16" d="M1030.89,795.61v1.7c.78-.07,1.55-.16,2.31-.26v-1.7c-.76.11-1.53.19-2.31.26" transform="translate(-107.65 -68.85)"/><path class="cls-11" d="M1033.2,795.35v1.7c.78-.11,1.55-.25,2.3-.4V795c-.75.16-1.52.29-2.29.4" transform="translate(-107.65 -68.85)"/><path class="cls-15" d="M1035.49,795v1.7c.8-.17,1.59-.36,2.35-.58v-1.7c-.77.22-1.55.42-2.36.58" transform="translate(-107.65 -68.85)"/><path class="cls-14" d="M1037.85,794.37v1.7c.89-.25,1.74-.54,2.56-.86v-1.7c-.81.32-1.67.61-2.55.86" transform="translate(-107.65 -68.85)"/><path class="cls-13" d="M1040.4,793.51v1.7a20.14,20.14,0,0,0,2.8-1.34v-1.69a21.32,21.32,0,0,1-2.8,1.33" transform="translate(-107.65 -68.85)"/></g></g></g></g><g class="cls-9"><g class="cls-9"><g class="cls-32"><g class="cls-9"><path class="cls-13" d="M910.55,609.39v1.7a18.13,18.13,0,0,1,2.39-1.15v-1.7a17.55,17.55,0,0,0-2.39,1.15" transform="translate(-107.65 -68.85)"/><path class="cls-14" d="M912.94,608.24v1.7c.59-.23,1.18-.43,1.8-.61v-1.69a17.9,17.9,0,0,0-1.79.6" transform="translate(-107.65 -68.85)"/><path class="cls-15" d="M914.73,607.64v1.69c.47-.13,1-.25,1.44-.35v-1.7c-.49.1-1,.22-1.45.36" transform="translate(-107.65 -68.85)"/><path class="cls-11" d="M916.18,607.28V609c.44-.09.87-.17,1.31-.23v-1.7c-.44.07-.88.14-1.31.23" transform="translate(-107.65 -68.85)"/><path class="cls-16" d="M917.49,607.05v1.7c.41-.06.83-.1,1.24-.14v-1.69c-.42,0-.83.08-1.24.13" transform="translate(-107.65 -68.85)"/><path class="cls-17" d="M918.73,606.92v1.69c.41,0,.83-.05,1.24-.06v-1.7c-.41,0-.82,0-1.23.07" transform="translate(-107.65 -68.85)"/><path class="cls-18" d="M920,606.85v1.7h1.28v-1.7H920" transform="translate(-107.65 -68.85)"/><path class="cls-19" d="M921.25,606.85v1.7l.58,0,.84.07V607l-.85-.07-.57,0" transform="translate(-107.65 -68.85)"/><path class="cls-20" d="M922.67,607v1.7c.55.05,1.09.13,1.61.22v-1.7c-.53-.09-1.07-.17-1.61-.22" transform="translate(-107.65 -68.85)"/><path class="cls-21" d="M924.28,607.17v1.7a18.6,18.6,0,0,1,2.42.6v-1.7a18.45,18.45,0,0,0-2.41-.6" transform="translate(-107.65 -68.85)"/><path class="cls-22" d="M926.69,607.77v1.7A16.09,16.09,0,0,1,930,611v-1.69a15.88,15.88,0,0,0-3.34-1.51" transform="translate(-107.65 -68.85)"/><path class="cls-21" d="M930,609.28V611a13.51,13.51,0,0,1,1.9,1.4v-1.7a12.8,12.8,0,0,0-1.91-1.39" transform="translate(-107.65 -68.85)"/></g></g></g><polygon class="cls-8" points="627.36 641.89 627.37 643.59 802.9 542.24 802.9 540.54 627.36 641.89"/><g class="cls-9"><g class="cls-33"><g class="cls-9"><path class="cls-13" d="M730.53,716.66v1.69c0-2.14,1.56-4.22,4.49-5.91v-1.7c-2.92,1.69-4.49,3.77-4.48,5.92" transform="translate(-107.65 -68.85)"/></g></g></g><g class="cls-9"><g class="cls-34"><g class="cls-9"><path class="cls-11" d="M729.49,716.64v.13a.53.53,0,0,1,0-.13" transform="translate(-107.65 -68.85)"/><path class="cls-16" d="M729.5,716.77v1.7a4.07,4.07,0,0,0,.06.6v-1.69a4.3,4.3,0,0,1,0-.61" transform="translate(-107.65 -68.85)"/></g></g></g><g class="cls-9"><g class="cls-35"><g class="cls-9"><path class="cls-16" d="M729.55,717.38v1.69a1.57,1.57,0,0,0,0,.23v-1.7c0-.07,0-.15,0-.22" transform="translate(-107.65 -68.85)"/><path class="cls-17" d="M729.59,717.6v1.7a4.45,4.45,0,0,0,.23.79V718.4a5.61,5.61,0,0,1-.23-.8" transform="translate(-107.65 -68.85)"/><path class="cls-18" d="M729.82,718.4v1.69a5.23,5.23,0,0,0,.37.8v-1.7a6.28,6.28,0,0,1-.37-.79" transform="translate(-107.65 -68.85)"/><path class="cls-19" d="M730.19,719.19v1.7a6.31,6.31,0,0,0,.57.85V720a6.72,6.72,0,0,1-.58-.85" transform="translate(-107.65 -68.85)"/><path class="cls-20" d="M730.77,720v1.7a9.19,9.19,0,0,0,.91,1V721a7.46,7.46,0,0,1-.9-1" transform="translate(-107.65 -68.85)"/><path class="cls-21" d="M731.67,721v1.7a11.74,11.74,0,0,0,2,1.44v-1.69a12.67,12.67,0,0,1-2-1.45" transform="translate(-107.65 -68.85)"/><path class="cls-22" d="M733.62,722.47v1.69a18.54,18.54,0,0,0,2.75,1.35v-1.7a19,19,0,0,1-2.75-1.34" transform="translate(-107.65 -68.85)"/></g></g></g><polygon class="cls-26" points="824.29 541.83 824.29 543.52 1009.55 708.51 1009.54 706.81 824.29 541.83"/><g class="cls-9"><g class="cls-36"><g class="cls-9"><path class="cls-21" d="M1117.19,775.66v1.69l.17.15v-1.69l-.17-.15" transform="translate(-107.65 -68.85)"/><path class="cls-20" d="M1117.36,775.81v1.69a12.27,12.27,0,0,1,1.16,1.26v-1.7a10.36,10.36,0,0,0-1.16-1.25" transform="translate(-107.65 -68.85)"/><path class="cls-19" d="M1118.52,777.06v1.7a8.67,8.67,0,0,1,.79,1.18v-1.69a8.85,8.85,0,0,0-.8-1.19" transform="translate(-107.65 -68.85)"/><path class="cls-18" d="M1119.32,778.25v1.69a8.14,8.14,0,0,1,.56,1.2v-1.7a9.19,9.19,0,0,0-.56-1.19" transform="translate(-107.65 -68.85)"/><path class="cls-17" d="M1119.88,779.44v1.7a7.5,7.5,0,0,1,.35,1.23v-1.7a8.11,8.11,0,0,0-.35-1.23" transform="translate(-107.65 -68.85)"/><path class="cls-16" d="M1120.23,780.67v1.7a7.2,7.2,0,0,1,.15,1.3V782a8.22,8.22,0,0,0-.15-1.3" transform="translate(-107.65 -68.85)"/><path class="cls-11" d="M1120.38,782v1.7c0,.07,0,.14,0,.21V782" transform="translate(-107.65 -68.85)"/></g></g></g><g class="cls-9"><g class="cls-37"><g class="cls-9"><path class="cls-13" d="M1115.07,791.53v1.7c4.16-2.41,6.34-5.9,6.33-9.36v-1.7c0,3.46-2.17,7-6.34,9.36" transform="translate(-107.65 -68.85)"/></g></g></g><polygon class="cls-8" points="935.55 764.18 935.56 765.88 1007.43 724.38 1007.42 722.68 935.55 764.18"/><polygon class="cls-29" points="628.72 654.96 628.73 656.66 907.77 767.38 907.76 765.68 628.72 654.96"/><path class="cls-30" d="M734.28,710.32,909.82,609a21.8,21.8,0,0,1,12.12-2.69,17.87,17.87,0,0,1,10.87,4.07l185.25,165c5.44,4.85,4.1,12.12-3,16.21L1043.2,833c-7.09,4.09-19.55,4.76-27.79,1.5l-279-110.72c-4-1.59-6.43-3.87-6.82-6.43S730.83,712.31,734.28,710.32Zm2.68,13L1016,834c7.83,3.12,19.71,2.47,26.46-1.43l71.87-41.5c6.76-3.9,8-10.83,2.85-15.44l-185.25-165a16.72,16.72,0,0,0-10.12-3.79,20.37,20.37,0,0,0-11.27,2.51L735,710.74c-3.22,1.87-4.8,4.2-4.43,6.58s2.64,4.5,6.38,6" transform="translate(-107.65 -68.85)"/><g class="cls-9"><g class="cls-38"><g class="cls-9"><path class="cls-22" d="M1015.41,834.53v1.7c.48.19,1,.37,1.49.53v-1.69c-.51-.17-1-.35-1.49-.54" transform="translate(-107.65 -68.85)"/><path class="cls-21" d="M1016.9,835.07v1.69a28.5,28.5,0,0,0,3.85,1V836a30.5,30.5,0,0,1-3.85-.95" transform="translate(-107.65 -68.85)"/><path class="cls-20" d="M1020.75,836v1.69q1.38.25,2.82.39v-1.69c-1-.1-1.9-.23-2.82-.39" transform="translate(-107.65 -68.85)"/><path class="cls-19" d="M1023.57,836.41v1.69c.84.09,1.69.14,2.54.17v-1.69c-.86,0-1.71-.09-2.55-.17" transform="translate(-107.65 -68.85)"/><path class="cls-18" d="M1026.12,836.58v1.69c.81,0,1.62,0,2.43,0v-1.69c-.81,0-1.62,0-2.42,0" transform="translate(-107.65 -68.85)"/><path class="cls-17" d="M1028.54,836.59v1.69c.78,0,1.57-.06,2.34-.12v-1.7c-.78.06-1.56.11-2.35.13" transform="translate(-107.65 -68.85)"/><path class="cls-16" d="M1030.89,836.46v1.7c.78-.07,1.55-.15,2.31-.26v-1.7c-.76.11-1.53.2-2.31.26" transform="translate(-107.65 -68.85)"/><path class="cls-11" d="M1033.2,836.2v1.7c.78-.11,1.55-.24,2.3-.4v-1.7c-.75.16-1.52.29-2.29.4" transform="translate(-107.65 -68.85)"/><path class="cls-15" d="M1035.49,835.8v1.7c.8-.17,1.59-.36,2.35-.58v-1.69c-.77.22-1.55.41-2.36.57" transform="translate(-107.65 -68.85)"/><path class="cls-14" d="M1037.85,835.23v1.69c.89-.25,1.74-.54,2.56-.86v-1.69c-.81.32-1.67.6-2.55.86" transform="translate(-107.65 -68.85)"/><path class="cls-13" d="M1040.4,834.37v1.69a21.32,21.32,0,0,0,2.8-1.33V833a22.7,22.7,0,0,1-2.8,1.34" transform="translate(-107.65 -68.85)"/></g></g></g></g><g class="cls-9"><g class="cls-9"><g class="cls-39"><g class="cls-9"><path class="cls-13" d="M910.55,650.24v1.7a18.13,18.13,0,0,1,2.39-1.15V649.1a17.5,17.5,0,0,0-2.39,1.14" transform="translate(-107.65 -68.85)"/><path class="cls-14" d="M912.94,649.1v1.69q.88-.35,1.8-.6v-1.7a18,18,0,0,0-1.79.61" transform="translate(-107.65 -68.85)"/><path class="cls-15" d="M914.73,648.49v1.7q.71-.21,1.44-.36v-1.7c-.49.11-1,.22-1.45.36" transform="translate(-107.65 -68.85)"/><path class="cls-11" d="M916.18,648.13v1.7c.44-.09.87-.16,1.31-.23v-1.69c-.44.06-.88.13-1.31.22" transform="translate(-107.65 -68.85)"/><path class="cls-16" d="M917.49,647.91v1.69l1.24-.14v-1.69c-.42,0-.83.08-1.24.14" transform="translate(-107.65 -68.85)"/><path class="cls-17" d="M918.73,647.77v1.69c.41,0,.82-.05,1.24-.06v-1.7c-.41,0-.82,0-1.23.07" transform="translate(-107.65 -68.85)"/><path class="cls-18" d="M920,647.7v1.7h1.28v-1.69c-.42,0-.85,0-1.28,0" transform="translate(-107.65 -68.85)"/><path class="cls-19" d="M921.24,647.71v1.69l.58,0,.84.07v-1.7l-.85-.07-.58,0" transform="translate(-107.65 -68.85)"/><path class="cls-20" d="M922.67,647.8v1.7c.55,0,1.09.13,1.61.22V648c-.53-.1-1.07-.17-1.61-.23" transform="translate(-107.65 -68.85)"/><path class="cls-21" d="M924.28,648v1.69a18.21,18.21,0,0,1,2.42.6v-1.69a18.45,18.45,0,0,0-2.41-.6" transform="translate(-107.65 -68.85)"/><path class="cls-22" d="M926.69,648.63v1.69a15.61,15.61,0,0,1,3.34,1.51v-1.7a15.37,15.37,0,0,0-3.34-1.5" transform="translate(-107.65 -68.85)"/><path class="cls-21" d="M930,650.13v1.7a12.71,12.71,0,0,1,1.9,1.39v-1.69a12.86,12.86,0,0,0-1.91-1.4" transform="translate(-107.65 -68.85)"/></g></g></g><polygon class="cls-8" points="627.36 682.75 627.37 684.44 802.9 583.09 802.9 581.4 627.36 682.75"/><g class="cls-9"><g class="cls-40"><g class="cls-9"><path class="cls-13" d="M730.53,757.5v1.7c0-2.14,1.56-4.22,4.48-5.91V751.6c-2.92,1.68-4.48,3.76-4.48,5.9" transform="translate(-107.65 -68.85)"/></g></g></g><g class="cls-9"><g class="cls-41"><g class="cls-9"><path class="cls-11" d="M729.49,757.5v.12a.49.49,0,0,1,0-.12" transform="translate(-107.65 -68.85)"/><path class="cls-16" d="M729.5,757.62v1.7a4.34,4.34,0,0,0,.06.61v-1.7a4.18,4.18,0,0,1,0-.61" transform="translate(-107.65 -68.85)"/></g></g></g><g class="cls-9"><g class="cls-42"><g class="cls-9"><path class="cls-16" d="M729.55,758.23v1.7a1.7,1.7,0,0,0,0,.22v-1.69a1.85,1.85,0,0,0,0-.23" transform="translate(-107.65 -68.85)"/><path class="cls-17" d="M729.59,758.46v1.69a4.55,4.55,0,0,0,.23.8v-1.7a5.88,5.88,0,0,1-.23-.79" transform="translate(-107.65 -68.85)"/><path class="cls-18" d="M729.82,759.25V761a5.13,5.13,0,0,0,.37.79v-1.69a6.4,6.4,0,0,1-.37-.8" transform="translate(-107.65 -68.85)"/><path class="cls-19" d="M730.19,760.05v1.69a5.74,5.74,0,0,0,.57.85V760.9a7.53,7.53,0,0,1-.58-.85" transform="translate(-107.65 -68.85)"/><path class="cls-20" d="M730.77,760.9v1.69a8.26,8.26,0,0,0,.91,1v-1.7a8.09,8.09,0,0,1-.9-1" transform="translate(-107.65 -68.85)"/><path class="cls-21" d="M731.67,761.87v1.7a12.07,12.07,0,0,0,1.94,1.44v-1.69a12.2,12.2,0,0,1-2-1.45" transform="translate(-107.65 -68.85)"/><path class="cls-22" d="M733.62,763.32V765a17.73,17.73,0,0,0,2.76,1.35v-1.7a18.05,18.05,0,0,1-2.75-1.34" transform="translate(-107.65 -68.85)"/></g></g></g><polygon class="cls-26" points="824.29 582.68 824.29 584.37 1009.55 749.36 1009.54 747.66 824.29 582.68"/><g class="cls-9"><g class="cls-43"><g class="cls-9"><path class="cls-21" d="M1117.19,816.51v1.7l.17.15v-1.7l-.17-.15" transform="translate(-107.65 -68.85)"/><path class="cls-20" d="M1117.36,816.66v1.7a11.24,11.24,0,0,1,1.16,1.25v-1.69a9.73,9.73,0,0,0-1.16-1.26" transform="translate(-107.65 -68.85)"/><path class="cls-19" d="M1118.52,817.92v1.69a9.34,9.34,0,0,1,.79,1.18V819.1a8.17,8.17,0,0,0-.8-1.18" transform="translate(-107.65 -68.85)"/><path class="cls-18" d="M1119.32,819.1v1.69a8.65,8.65,0,0,1,.56,1.2v-1.7a8.54,8.54,0,0,0-.56-1.19" transform="translate(-107.65 -68.85)"/><path class="cls-17" d="M1119.88,820.29V822a7.79,7.79,0,0,1,.35,1.23v-1.69a7.91,7.91,0,0,0-.35-1.24" transform="translate(-107.65 -68.85)"/><path class="cls-16" d="M1120.23,821.53v1.69a7.2,7.2,0,0,1,.15,1.3v-1.69a7.1,7.1,0,0,0-.15-1.3" transform="translate(-107.65 -68.85)"/><path class="cls-11" d="M1120.38,822.83v1.69c0,.07,0,.14,0,.21v-1.9" transform="translate(-107.65 -68.85)"/></g></g></g><g class="cls-9"><g class="cls-44"><g class="cls-9"><path class="cls-13" d="M1115.07,832.38v1.7c4.16-2.4,6.34-5.9,6.33-9.36V823c0,3.46-2.17,7-6.34,9.36" transform="translate(-107.65 -68.85)"/></g></g></g><polygon class="cls-8" points="935.55 805.03 935.56 806.73 1007.43 765.23 1007.42 763.54 935.55 805.03"/><polygon class="cls-29" points="628.72 695.82 628.73 697.51 907.77 808.24 907.76 806.54 628.72 695.82"/><path class="cls-30" d="M734.28,751.17,909.82,649.82a21.8,21.8,0,0,1,12.12-2.69,17.93,17.93,0,0,1,10.87,4.07l185.25,165c5.44,4.84,4.1,12.11-3,16.2l-71.87,41.5c-7.09,4.1-19.55,4.77-27.79,1.5l-279-110.72c-4-1.58-6.43-3.87-6.82-6.43S730.83,753.16,734.28,751.17Zm2.69,13,279,110.71c7.83,3.12,19.71,2.47,26.46-1.42l71.87-41.5c6.76-3.9,8-10.83,2.85-15.45l-185.25-165a16.72,16.72,0,0,0-10.12-3.8,20.37,20.37,0,0,0-11.27,2.51L735,751.6c-3.22,1.86-4.8,4.2-4.42,6.58s2.63,4.5,6.38,6" transform="translate(-107.65 -68.85)"/><g class="cls-9"><g class="cls-45"><g class="cls-9"><path class="cls-22" d="M1015.41,875.38v1.7c.48.19,1,.37,1.49.54v-1.7c-.51-.17-1-.34-1.49-.54" transform="translate(-107.65 -68.85)"/><path class="cls-21" d="M1016.9,875.92v1.7a31.85,31.85,0,0,0,3.85,1v-1.7a30.08,30.08,0,0,1-3.85-1" transform="translate(-107.65 -68.85)"/><path class="cls-20" d="M1020.75,876.87v1.7q1.38.24,2.82.39v-1.7c-1-.1-1.9-.23-2.82-.39" transform="translate(-107.65 -68.85)"/><path class="cls-19" d="M1023.57,877.26V879c.84.08,1.69.14,2.54.17v-1.7c-.86,0-1.71-.09-2.55-.17" transform="translate(-107.65 -68.85)"/><path class="cls-18" d="M1026.12,877.43v1.7c.81,0,1.62,0,2.43,0v-1.7c-.81,0-1.62,0-2.42,0" transform="translate(-107.65 -68.85)"/><path class="cls-17" d="M1028.54,877.44v1.7c.78,0,1.56-.07,2.34-.13v-1.7c-.78.07-1.56.11-2.35.13" transform="translate(-107.65 -68.85)"/><path class="cls-16" d="M1030.89,877.31V879c.78-.06,1.55-.15,2.31-.26v-1.69c-.76.1-1.53.19-2.31.25" transform="translate(-107.65 -68.85)"/><path class="cls-11" d="M1033.2,877.06v1.69c.78-.11,1.55-.24,2.3-.4v-1.69c-.75.15-1.52.29-2.29.4" transform="translate(-107.65 -68.85)"/><path class="cls-15" d="M1035.49,876.66v1.69c.8-.16,1.59-.35,2.35-.57v-1.7c-.77.22-1.55.41-2.36.58" transform="translate(-107.65 -68.85)"/><path class="cls-14" d="M1037.85,876.08v1.7c.89-.26,1.74-.54,2.56-.86v-1.7c-.81.32-1.67.61-2.55.86" transform="translate(-107.65 -68.85)"/><path class="cls-13" d="M1040.4,875.22v1.7a21.34,21.34,0,0,0,2.8-1.34v-1.7a21.34,21.34,0,0,1-2.8,1.34" transform="translate(-107.65 -68.85)"/></g></g></g></g><g class="cls-9"><g class="cls-9"><g class="cls-46"><g class="cls-9"><path class="cls-13" d="M910.55,691.1v1.69a19.49,19.49,0,0,1,2.39-1.15V690a17.55,17.55,0,0,0-2.39,1.15" transform="translate(-107.65 -68.85)"/><path class="cls-14" d="M912.94,690v1.69c.59-.22,1.19-.43,1.8-.6v-1.7c-.61.18-1.21.38-1.79.61" transform="translate(-107.65 -68.85)"/><path class="cls-15" d="M914.73,689.34V691c.47-.14,1-.26,1.45-.36V689c-.49.1-1,.22-1.45.35" transform="translate(-107.65 -68.85)"/><path class="cls-11" d="M916.18,689v1.69c.43-.09.86-.16,1.3-.22v-1.7c-.44.06-.88.14-1.31.23" transform="translate(-107.65 -68.85)"/><path class="cls-16" d="M917.49,688.76v1.7c.41-.06.83-.11,1.24-.14v-1.7c-.42,0-.83.08-1.24.14" transform="translate(-107.65 -68.85)"/><path class="cls-17" d="M918.73,688.62v1.7c.41,0,.83-.06,1.24-.07v-1.7c-.41,0-.82,0-1.23.07" transform="translate(-107.65 -68.85)"/><path class="cls-18" d="M920,688.55v1.7c.42,0,.85,0,1.28,0v-1.7c-.43,0-.86,0-1.29,0" transform="translate(-107.65 -68.85)"/><path class="cls-19" d="M921.25,688.56v1.7l.58,0,.84.07v-1.7c-.28,0-.56,0-.85-.06l-.57,0" transform="translate(-107.65 -68.85)"/><path class="cls-20" d="M922.67,688.65v1.7c.55.06,1.09.13,1.62.23v-1.7c-.53-.1-1.07-.17-1.61-.23" transform="translate(-107.65 -68.85)"/><path class="cls-21" d="M924.28,688.88v1.7a19,19,0,0,1,2.42.6v-1.7a18.21,18.21,0,0,0-2.42-.6" transform="translate(-107.65 -68.85)"/><path class="cls-22" d="M926.7,689.48v1.7a15.42,15.42,0,0,1,3.32,1.5V691a16,16,0,0,0-3.33-1.5" transform="translate(-107.65 -68.85)"/><path class="cls-21" d="M930,691v1.7a12.8,12.8,0,0,1,1.91,1.39v-1.69A12.86,12.86,0,0,0,930,691" transform="translate(-107.65 -68.85)"/></g></g></g><polygon class="cls-8" points="627.36 723.6 627.37 725.3 802.9 623.95 802.9 622.25 627.36 723.6"/><g class="cls-9"><g class="cls-47"><g class="cls-9"><path class="cls-13" d="M730.53,798.35v1.7c0-2.14,1.56-4.22,4.48-5.91v-1.69c-2.92,1.69-4.48,3.76-4.48,5.9" transform="translate(-107.65 -68.85)"/></g></g></g><g class="cls-9"><g class="cls-48"><g class="cls-9"><path class="cls-11" d="M729.49,798.35v.12a.49.49,0,0,1,0-.12" transform="translate(-107.65 -68.85)"/><path class="cls-16" d="M729.5,798.47v1.7a4.2,4.2,0,0,0,.06.61v-1.7a4.07,4.07,0,0,1,0-.61" transform="translate(-107.65 -68.85)"/></g></g></g><g class="cls-9"><g class="cls-49"><g class="cls-9"><path class="cls-16" d="M729.55,799.08v1.7a2.23,2.23,0,0,0,0,.23v-1.7c0-.08,0-.15,0-.23" transform="translate(-107.65 -68.85)"/><path class="cls-17" d="M729.59,799.31V801a4.71,4.71,0,0,0,.23.79v-1.7a5.48,5.48,0,0,1-.23-.79" transform="translate(-107.65 -68.85)"/><path class="cls-18" d="M729.82,800.1v1.7a5.71,5.71,0,0,0,.37.8v-1.7a6.4,6.4,0,0,1-.37-.8" transform="translate(-107.65 -68.85)"/><path class="cls-19" d="M730.19,800.9v1.7a7,7,0,0,0,.57.85v-1.7a7.53,7.53,0,0,1-.58-.85" transform="translate(-107.65 -68.85)"/><path class="cls-20" d="M730.77,801.75v1.7a8.2,8.2,0,0,0,.91,1v-1.69a9,9,0,0,1-.9-1" transform="translate(-107.65 -68.85)"/><path class="cls-21" d="M731.67,802.73v1.69a11.77,11.77,0,0,0,2,1.45v-1.7a12.17,12.17,0,0,1-2-1.44" transform="translate(-107.65 -68.85)"/><path class="cls-22" d="M733.62,804.17v1.7a19,19,0,0,0,2.75,1.35v-1.7a18.67,18.67,0,0,1-2.76-1.35" transform="translate(-107.65 -68.85)"/></g></g></g><polygon class="cls-26" points="824.29 623.53 824.29 625.23 1009.55 790.21 1009.54 788.51 824.29 623.53"/><g class="cls-9"><g class="cls-50"><g class="cls-9"><path class="cls-21" d="M1117.19,857.36v1.7l.17.15v-1.7l-.17-.15" transform="translate(-107.65 -68.85)"/><path class="cls-20" d="M1117.36,857.51v1.7a11.24,11.24,0,0,1,1.16,1.25v-1.69a10.43,10.43,0,0,0-1.16-1.26" transform="translate(-107.65 -68.85)"/><path class="cls-19" d="M1118.52,858.77v1.69a8.76,8.76,0,0,1,.79,1.19V860a8.76,8.76,0,0,0-.8-1.18" transform="translate(-107.65 -68.85)"/><path class="cls-18" d="M1119.32,860v1.7a8.54,8.54,0,0,1,.56,1.19v-1.7a8.54,8.54,0,0,0-.56-1.19" transform="translate(-107.65 -68.85)"/><path class="cls-17" d="M1119.88,861.14v1.7a7.91,7.91,0,0,1,.35,1.24v-1.7a7.91,7.91,0,0,0-.35-1.24" transform="translate(-107.65 -68.85)"/><path class="cls-16" d="M1120.23,862.38v1.7a7.1,7.1,0,0,1,.15,1.3v-1.7a8.09,8.09,0,0,0-.15-1.3" transform="translate(-107.65 -68.85)"/><path class="cls-11" d="M1120.38,863.68v1.7c0,.06,0,.13,0,.2v-1.9" transform="translate(-107.65 -68.85)"/></g></g></g><g class="cls-9"><g class="cls-51"><g class="cls-9"><path class="cls-13" d="M1115.07,873.24v1.69c4.16-2.4,6.34-5.9,6.33-9.36v-1.7c0,3.46-2.17,7-6.34,9.37" transform="translate(-107.65 -68.85)"/></g></g></g><polygon class="cls-8" points="935.55 845.89 935.56 847.58 1007.43 806.09 1007.42 804.39 935.55 845.89"/><polygon class="cls-29" points="628.73 736.67 628.73 738.37 907.77 849.09 907.76 847.39 628.73 736.67"/><path class="cls-30" d="M734.28,792,909.82,690.67A22,22,0,0,1,921.94,688a18,18,0,0,1,10.87,4.07l185.26,165c5.43,4.85,4.09,12.11-3,16.21l-71.87,41.49c-7.09,4.1-19.55,4.77-27.79,1.51l-279-110.72c-4-1.59-6.44-3.88-6.83-6.44S730.83,794,734.28,792ZM737,805l279,110.72c7.83,3.11,19.71,2.47,26.46-1.43l71.87-41.5c6.76-3.9,8-10.83,2.85-15.45l-185.25-165a16.72,16.72,0,0,0-10.12-3.79,20.2,20.2,0,0,0-11.27,2.51L735,792.45c-3.22,1.86-4.8,4.2-4.42,6.58s2.63,4.5,6.38,6" transform="translate(-107.65 -68.85)"/><g class="cls-9"><g class="cls-52"><g class="cls-9"><path class="cls-22" d="M1015.41,916.24v1.7c.48.19,1,.36,1.49.53v-1.7c-.51-.16-1-.34-1.49-.53" transform="translate(-107.65 -68.85)"/><path class="cls-21" d="M1016.9,916.77v1.7a30.08,30.08,0,0,0,3.85.95v-1.7a30.08,30.08,0,0,1-3.85-1" transform="translate(-107.65 -68.85)"/><path class="cls-20" d="M1020.75,917.72v1.7q1.38.24,2.82.39v-1.7c-1-.09-1.9-.22-2.82-.39" transform="translate(-107.65 -68.85)"/><path class="cls-19" d="M1023.57,918.11v1.7c.84.08,1.69.14,2.54.17v-1.7c-.86,0-1.71-.08-2.55-.17" transform="translate(-107.65 -68.85)"/><path class="cls-18" d="M1026.12,918.28V920c.81,0,1.62,0,2.43,0v-1.7c-.81,0-1.62,0-2.42,0" transform="translate(-107.65 -68.85)"/><path class="cls-17" d="M1028.54,918.29V920c.78,0,1.56-.06,2.34-.13v-1.69c-.78.06-1.56.1-2.35.12" transform="translate(-107.65 -68.85)"/><path class="cls-16" d="M1030.89,918.17v1.69c.78-.06,1.55-.15,2.31-.25v-1.7c-.76.11-1.53.19-2.31.26" transform="translate(-107.65 -68.85)"/><path class="cls-11" d="M1033.2,917.91v1.7c.78-.12,1.55-.25,2.3-.4v-1.7c-.75.15-1.52.29-2.29.4" transform="translate(-107.65 -68.85)"/><path class="cls-15" d="M1035.49,917.51v1.7c.8-.17,1.59-.36,2.35-.58v-1.7c-.77.22-1.55.41-2.36.58" transform="translate(-107.65 -68.85)"/><path class="cls-14" d="M1037.85,916.93v1.7c.89-.25,1.74-.54,2.56-.86v-1.7c-.81.32-1.67.61-2.55.86" transform="translate(-107.65 -68.85)"/><path class="cls-13" d="M1040.4,916.07v1.7a21.34,21.34,0,0,0,2.8-1.34v-1.7a20.14,20.14,0,0,1-2.8,1.34" transform="translate(-107.65 -68.85)"/></g></g></g></g><g class="cls-9"><g class="cls-9"><g class="cls-53"><g class="cls-9"><path class="cls-13" d="M910.57,861.84v1.7a17.41,17.41,0,0,1,2.42-1.16v-1.7a18.62,18.62,0,0,0-2.42,1.16" transform="translate(-107.65 -68.85)"/><path class="cls-14" d="M913,860.68v1.7a18.65,18.65,0,0,1,1.87-.63v-1.7a18.84,18.84,0,0,0-1.88.63" transform="translate(-107.65 -68.85)"/><path class="cls-15" d="M914.87,860.05v1.7q.76-.22,1.56-.39v-1.69c-.53.11-1,.23-1.55.38" transform="translate(-107.65 -68.85)"/><path class="cls-11" d="M916.42,859.67v1.69c.47-.09.94-.18,1.42-.24v-1.7c-.48.07-1,.15-1.43.25" transform="translate(-107.65 -68.85)"/><path class="cls-16" d="M917.85,859.42v1.7c.46-.07.91-.12,1.38-.16v-1.7c-.46,0-.92.09-1.37.16" transform="translate(-107.65 -68.85)"/><path class="cls-17" d="M919.22,859.26V861c.46,0,.92-.06,1.38-.07v-1.7c-.47,0-.93,0-1.39.07" transform="translate(-107.65 -68.85)"/><path class="cls-18" d="M920.61,859.19v1.7c.49,0,1,0,1.47,0v-1.7c-.49,0-1,0-1.47,0" transform="translate(-107.65 -68.85)"/><path class="cls-19" d="M922.08,859.2v1.7h.11c.5,0,1,.05,1.48.1v-1.7c-.49,0-1-.08-1.48-.1h-.1" transform="translate(-107.65 -68.85)"/><path class="cls-20" d="M923.66,859.3V861c.61.06,1.22.15,1.81.25v-1.69c-.6-.11-1.2-.2-1.82-.26" transform="translate(-107.65 -68.85)"/><path class="cls-21" d="M925.48,859.56v1.69a22.16,22.16,0,0,1,2.67.66v-1.69a19.29,19.29,0,0,0-2.67-.66" transform="translate(-107.65 -68.85)"/><path class="cls-22" d="M928.15,860.22v1.69a17.37,17.37,0,0,1,3.68,1.65v-1.69a16.8,16.8,0,0,0-3.67-1.65" transform="translate(-107.65 -68.85)"/><path class="cls-21" d="M931.82,861.87v1.69a13.31,13.31,0,0,1,1.23.84v-1.7c-.39-.29-.8-.57-1.23-.83" transform="translate(-107.65 -68.85)"/></g></g></g><polygon class="cls-8" points="627.39 894.35 627.39 896.04 802.93 794.69 802.92 792.99 627.39 894.35"/><g class="cls-9"><g class="cls-54"><g class="cls-9"><path class="cls-13" d="M730.39,969.43v1.7c0-2.3,1.62-4.5,4.64-6.24v-1.7c-3,1.75-4.65,3.94-4.65,6.24" transform="translate(-107.65 -68.85)"/></g></g></g><g class="cls-9"><g class="cls-55"><g class="cls-9"><path class="cls-11" d="M729.36,969.43v0" transform="translate(-107.65 -68.85)"/><path class="cls-16" d="M729.36,969.57v1.7l0,.39V970c0-.13,0-.26,0-.39" transform="translate(-107.65 -68.85)"/></g></g></g><g class="cls-9"><g class="cls-56"><g class="cls-9"><path class="cls-16" d="M729.38,970v1.7a4.5,4.5,0,0,0,.08.51v-1.7c0-.17-.06-.34-.08-.51" transform="translate(-107.65 -68.85)"/><path class="cls-17" d="M729.46,970.47v1.7a5.24,5.24,0,0,0,.24.86v-1.7a5.27,5.27,0,0,1-.25-.86" transform="translate(-107.65 -68.85)"/><path class="cls-18" d="M729.71,971.33V973a6.9,6.9,0,0,0,.41.87v-1.69a6.35,6.35,0,0,1-.41-.88" transform="translate(-107.65 -68.85)"/><path class="cls-19" d="M730.12,972.21v1.69a7.91,7.91,0,0,0,.62.93v-1.7a7.42,7.42,0,0,1-.62-.92" transform="translate(-107.65 -68.85)"/><path class="cls-20" d="M730.74,973.13v1.7a10.75,10.75,0,0,0,1,1.06v-1.7a9.62,9.62,0,0,1-1-1.06" transform="translate(-107.65 -68.85)"/><path class="cls-21" d="M731.72,974.19v1.7a13.36,13.36,0,0,0,2.08,1.54v-1.7a12.86,12.86,0,0,1-2.09-1.54" transform="translate(-107.65 -68.85)"/><path class="cls-22" d="M733.81,975.73v1.7a16.77,16.77,0,0,0,1.94,1v-1.7a16.77,16.77,0,0,1-1.94-1" transform="translate(-107.65 -68.85)"/></g></g></g><polygon class="cls-57" points="825.4 793.85 825.41 795.55 1028.43 949.91 1028.43 948.21 825.4 793.85"/><g class="cls-9"><g class="cls-58"><g class="cls-9"><path class="cls-21" d="M1136.08,1017.06v1.7c.33.25.64.51.92.77v-1.7c-.29-.26-.59-.52-.92-.77" transform="translate(-107.65 -68.85)"/><path class="cls-20" d="M1137,1017.83v1.7a10.19,10.19,0,0,1,1.15,1.24v-1.7a12,12,0,0,0-1.15-1.24" transform="translate(-107.65 -68.85)"/><path class="cls-19" d="M1138.15,1019.07v1.7a8.24,8.24,0,0,1,.77,1.15v-1.7a10,10,0,0,0-.77-1.15" transform="translate(-107.65 -68.85)"/><path class="cls-18" d="M1138.92,1020.22v1.7a7.69,7.69,0,0,1,.53,1.13v-1.7a7.69,7.69,0,0,0-.53-1.13" transform="translate(-107.65 -68.85)"/><path class="cls-17" d="M1139.45,1021.35v1.7a6.82,6.82,0,0,1,.33,1.15v-1.7a7.91,7.91,0,0,0-.33-1.15" transform="translate(-107.65 -68.85)"/><path class="cls-16" d="M1139.78,1022.5v1.7a6.78,6.78,0,0,1,.14,1.19v-1.7a6.77,6.77,0,0,0-.13-1.19" transform="translate(-107.65 -68.85)"/><path class="cls-11" d="M1139.91,1023.69v.18a1.09,1.09,0,0,0,0-.18" transform="translate(-107.65 -68.85)"/></g></g></g><g class="cls-9"><g class="cls-59"><g class="cls-9"><path class="cls-13" d="M1135,1032.48v1.7c3.93-2.27,5.94-5.45,5.93-8.62v-1.69c0,3.17-2,6.35-5.93,8.61" transform="translate(-107.65 -68.85)"/></g></g></g><polygon class="cls-8" points="919.56 1025.88 919.57 1027.58 1027.37 965.33 1027.37 963.63 919.56 1025.88"/><polygon class="cls-60" points="628.1 907.9 628.1 909.6 892.37 1028.57 892.37 1026.87 628.1 907.9"/><path class="cls-30" d="M734.31,962.77,909.84,861.42a23.22,23.22,0,0,1,12.42-2.82,20.56,20.56,0,0,1,11.62,3.74l203,154.36c6,4.6,5.2,11.68-1.89,15.78l-107.81,62.25c-7.1,4.1-19.3,4.54-27.19,1l-264.27-119c-3.83-1.72-6.09-4.13-6.37-6.78S730.86,964.76,734.31,962.77Zm2.07,13.5,264.28,119c7.49,3.38,19.07,3,25.82-.94l107.8-62.24c6.75-3.9,7.55-10.63,1.8-15l-203-154.36a19.33,19.33,0,0,0-10.87-3.5,21.88,21.88,0,0,0-11.61,2.64L735,963.19c-3.24,1.87-4.88,4.26-4.62,6.73s2.38,4.73,6,6.35" transform="translate(-107.65 -68.85)"/><g class="cls-9"><g class="cls-61"><g class="cls-9"><path class="cls-22" d="M1000,1095.72v1.7a24.75,24.75,0,0,0,2.42.92v-1.69a24.78,24.78,0,0,1-2.42-.93" transform="translate(-107.65 -68.85)"/><path class="cls-21" d="M1002.44,1096.65v1.69a28.89,28.89,0,0,0,3.72.92v-1.7a30.47,30.47,0,0,1-3.71-.91" transform="translate(-107.65 -68.85)"/><path class="cls-20" d="M1006.15,1097.56v1.7c.88.16,1.78.28,2.69.37v-1.69c-.92-.09-1.82-.22-2.7-.38" transform="translate(-107.65 -68.85)"/><path class="cls-19" d="M1008.85,1097.94v1.69c.79.08,1.59.14,2.39.16v-1.69c-.8,0-1.6-.08-2.39-.16" transform="translate(-107.65 -68.85)"/><path class="cls-18" d="M1011.24,1098.1v1.69c.75,0,1.49,0,2.24,0v-1.69c-.74,0-1.49,0-2.23,0" transform="translate(-107.65 -68.85)"/><path class="cls-17" d="M1013.47,1098.11v1.69c.72,0,1.44,0,2.16-.11V1098q-1.07.09-2.16.12" transform="translate(-107.65 -68.85)"/><path class="cls-16" d="M1015.63,1098v1.7c.71-.06,1.42-.14,2.11-.24v-1.7c-.7.1-1.4.18-2.12.24" transform="translate(-107.65 -68.85)"/><path class="cls-11" d="M1017.75,1097.75v1.7c.72-.1,1.43-.22,2.12-.37v-1.69c-.7.14-1.4.26-2.12.36" transform="translate(-107.65 -68.85)"/><path class="cls-15" d="M1019.87,1097.39v1.69c.75-.15,1.48-.33,2.19-.53v-1.7c-.71.2-1.45.38-2.19.54" transform="translate(-107.65 -68.85)"/><path class="cls-14" d="M1022.06,1096.85v1.7c.84-.24,1.65-.52,2.43-.82V1096c-.78.31-1.59.58-2.43.82" transform="translate(-107.65 -68.85)"/><path class="cls-13" d="M1024.49,1096v1.7a20.25,20.25,0,0,0,2.73-1.31v-1.69a21.36,21.36,0,0,1-2.72,1.3" transform="translate(-107.65 -68.85)"/></g></g></g></g><path class="cls-3" d="M770.12,1014.15c0-.22,0-.44-.08-.66l-.12-.71c0-.15-.06-.31-.1-.47s-.07-.3-.1-.44l-.18-.66c0-.12-.07-.24-.11-.35s-.16-.49-.24-.73l-.09-.26c-.13-.33-.26-.67-.41-1l0-.07c-.14-.31-.28-.61-.43-.91a2.4,2.4,0,0,1-.11-.23c-.15-.28-.3-.57-.46-.84a.75.75,0,0,0-.07-.12c-.18-.31-.37-.62-.56-.92l-.16-.23c-.15-.22-.3-.45-.46-.67l-.23-.31c-.13-.18-.27-.35-.41-.52l-.34-.42-.34-.38c-.19-.21-.38-.42-.58-.62l-.39-.39-.29-.27-.52-.45-.28-.24-.58-.43-.25-.19c-.28-.19-.56-.37-.85-.53a11.56,11.56,0,0,0-1.11-.56l-.35-.14-.63-.21-.38-.11-.38-.08-.45-.07-.28,0a5.28,5.28,0,0,0-.56,0h-.13a4.76,4.76,0,0,0-.66.08l-.17,0a4.19,4.19,0,0,0-.47.14l-.15.05a3.46,3.46,0,0,0-.58.28l7.33-4.26,0,0a3.13,3.13,0,0,1,.45-.22l.08,0,.16-.06.22-.07a2.27,2.27,0,0,1,.25-.06l.17,0,.08,0a4.69,4.69,0,0,1,.54-.06H765l.15,0,.27,0,.24,0,.22,0,.36.07.2,0a1.72,1.72,0,0,1,.21.07l.61.21c.07,0,.15,0,.23.08l.13.06c.36.16.73.34,1.11.55l.84.54.27.2c.19.13.37.27.55.41l.31.26c.17.14.34.28.5.44l.3.27.19.18c.06.06.12.14.19.2s.4.42.59.64l.19.19c0,.06.09.12.14.17l.36.44.22.27c.06.07.11.15.17.23l.25.34.17.23.26.39.18.27.07.1c.16.25.31.5.46.75l0,0a1.09,1.09,0,0,0,.08.15c.1.18.21.36.3.55s.09.17.13.25l.14.28.11.22c.11.22.21.43.3.65l0,.08,0,0c.11.26.22.53.32.79l0,.15c0,.09.07.19.11.29s.1.27.14.4.07.21.1.31.08.25.11.37,0,.15.07.22l.09.4.12.45a1,1,0,0,0,0,.17,3.43,3.43,0,0,0,.06.34c0,.23.08.46.11.69,0,.06,0,.13,0,.2s0,.3,0,.45l0,.29c0,.34,0,.67,0,1,0,2.8-1,4.76-2.58,5.69l-7.34,4.26c1.59-.92,2.58-2.89,2.59-5.69,0-.32,0-.65-.05-1A2.64,2.64,0,0,0,770.12,1014.15Z" transform="translate(-107.65 -68.85)"/><path class="cls-4" d="M761.35,1000.13c-4.89-2.83-8.87-.56-8.89,5.06s3.94,12.48,8.83,15.3,8.88.56,8.9-5.07S766.25,1003,761.35,1000.13Z" transform="translate(-107.65 -68.85)"/><path class="cls-5" d="M767,1014.21c0,4-2.84,5.59-6.3,3.59a13.81,13.81,0,0,1-6.25-10.84c0-4,2.84-5.58,6.29-3.59A13.84,13.84,0,0,1,767,1014.21Zm-6.3,1.89c2.66,1.53,4.81.3,4.82-2.75a10.54,10.54,0,0,0-4.78-8.28c-2.65-1.53-4.81-.3-4.82,2.74a10.56,10.56,0,0,0,4.78,8.29" transform="translate(-107.65 -68.85)"/><path class="cls-6" d="M753.18,984c-1.22-.7-1.83,0-1.35,1.57l2.75,9.09c.47,1.56,1.24,4.12,1.72,5.68l2.75,9.08a2.58,2.58,0,0,0,.86,1.47c.32.18.63,0,.87-.47l2.79-5.88c.49-1,1.28-2.66,1.75-3.68l2.8-5.88a2.58,2.58,0,0,0-1.34-3.12l-4.59-2.65-4.43-2.56Z" transform="translate(-107.65 -68.85)"/><path class="cls-3" d="M940.1,1091.64c0-.22-.05-.44-.08-.66s-.08-.47-.12-.7l-.09-.48c0-.15-.08-.3-.11-.44s-.11-.44-.18-.66-.07-.23-.1-.35-.16-.49-.25-.73l-.09-.26-.4-1a.16.16,0,0,1,0-.07c-.13-.3-.28-.61-.43-.91l-.11-.23c-.15-.28-.3-.56-.46-.84l-.06-.12c-.18-.31-.37-.62-.57-.92l-.15-.23-.47-.66c-.07-.11-.15-.21-.23-.32l-.4-.52-.35-.42-.34-.38c-.19-.21-.38-.42-.58-.62l-.39-.39-.28-.26-.52-.46-.29-.24-.57-.43c-.09-.06-.17-.13-.26-.18a8.65,8.65,0,0,0-.85-.54,11.56,11.56,0,0,0-1.11-.56l-.35-.14q-.32-.12-.63-.21l-.38-.11-.38-.08-.45-.07-.28,0h-.69a4.62,4.62,0,0,0-.65.08l-.17,0-.47.14a1,1,0,0,0-.16.06,3.06,3.06,0,0,0-.58.27l7.33-4.26,0,0,.45-.22.08,0,.16,0,.23-.08.24-.06.18,0,.07,0,.54-.06H935l.15,0,.26,0,.25,0,.21,0,.36.07.21.05.2.07.61.21a2.09,2.09,0,0,1,.23.08l.13.06c.36.16.73.34,1.11.55l.84.54.28.2c.18.13.37.27.55.42l.3.25.5.44.3.27.19.18c.07.06.13.14.19.2l.6.64.18.19c0,.06.09.12.14.17l.36.44.22.27c.06.07.11.15.17.23s.17.22.25.34l.17.23c.09.13.18.26.26.39l.18.27a.61.61,0,0,1,.07.1c.16.25.31.5.46.75l0,.05.08.15c.11.18.21.37.31.55l.12.25a2.44,2.44,0,0,1,.14.28l.12.22c.1.22.2.43.29.65l0,.08,0,0,.33.8a1.21,1.21,0,0,0,0,.14c0,.1.07.19.1.29l.15.4.09.32c0,.12.08.24.11.37s0,.14.07.22.07.26.1.39.08.3.11.46l0,.16c0,.12,0,.23.06.35l.12.68,0,.2c0,.15,0,.3,0,.45a1.53,1.53,0,0,1,0,.3c0,.33,0,.66,0,1,0,2.8-1,4.76-2.58,5.69l-7.34,4.26c1.59-.92,2.58-2.89,2.59-5.69,0-.32,0-.65,0-1Z" transform="translate(-107.65 -68.85)"/><path class="cls-4" d="M931.33,1077.62c-4.89-2.83-8.87-.56-8.89,5.06s3.94,12.48,8.83,15.3,8.88.56,8.9-5.07S936.23,1080.44,931.33,1077.62Z" transform="translate(-107.65 -68.85)"/><path class="cls-5" d="M937,1091.7c0,4-2.84,5.59-6.3,3.59a13.84,13.84,0,0,1-6.25-10.84c0-4,2.84-5.58,6.29-3.59A13.84,13.84,0,0,1,937,1091.7Zm-6.29,1.89c2.65,1.53,4.81.3,4.82-2.74a10.56,10.56,0,0,0-4.79-8.29c-2.65-1.53-4.81-.3-4.82,2.74a10.56,10.56,0,0,0,4.79,8.29" transform="translate(-107.65 -68.85)"/><path class="cls-6" d="M923.16,1061.44c-1.22-.7-1.83,0-1.35,1.57l2.75,9.09,1.72,5.68,2.75,9.08a2.58,2.58,0,0,0,.86,1.47c.32.18.63,0,.87-.47l2.8-5.88c.48-1,1.27-2.66,1.75-3.68l2.79-5.88a2.58,2.58,0,0,0-1.34-3.12l-4.58-2.65-4.44-2.56Z" transform="translate(-107.65 -68.85)"/><path class="cls-3" d="M1099.74,1008.38c0-.22,0-.44-.08-.66s-.07-.47-.12-.7l-.09-.48c0-.15-.07-.3-.11-.44s-.11-.44-.18-.66-.07-.23-.1-.35-.16-.49-.25-.73l-.09-.26c-.12-.33-.26-.66-.4-1l0-.08c-.14-.3-.28-.61-.43-.91l-.12-.23c-.14-.28-.3-.56-.46-.84l-.06-.12c-.18-.31-.37-.62-.57-.92l-.15-.23-.46-.66-.24-.32c-.13-.17-.26-.35-.4-.52s-.23-.28-.35-.41-.22-.26-.33-.39l-.58-.62-.4-.39-.28-.26-.52-.46-.29-.24-.57-.43c-.09-.06-.17-.13-.26-.18a8.65,8.65,0,0,0-.85-.54,9.63,9.63,0,0,0-1.11-.56l-.35-.14-.62-.21-.39-.11-.37-.08-.46-.07-.28,0h-.69a4.62,4.62,0,0,0-.65.08l-.17,0-.47.14a1,1,0,0,0-.16.06,3.38,3.38,0,0,0-.58.27l7.34-4.26,0,0,.44-.22.08,0,.17-.05.22-.08a2.1,2.1,0,0,1,.24-.06l.18,0,.08,0a4.52,4.52,0,0,1,.53-.06h.59l.15,0,.26,0,.25,0,.22,0,.36.07.2,0,.21.07.6.21a2.09,2.09,0,0,1,.23.08l.13.06c.37.16.73.34,1.11.55s.57.35.84.54a2.83,2.83,0,0,1,.28.2c.18.13.37.27.55.42l.31.25.5.44.29.27.19.18c.07.06.13.14.19.2.21.21.4.42.6.64l.18.19.14.17c.13.15.25.29.36.44l.22.27c.06.07.11.15.17.23s.17.22.25.34.12.15.17.23l.27.39.18.27a.61.61,0,0,0,.07.1c.15.25.31.5.45.75l0,0,.09.15.3.55c0,.08.08.17.13.25s.09.18.14.28l.11.22.3.65,0,.08v0c.12.27.23.53.33.8,0,0,0,.09,0,.14s.07.19.1.29l.15.4.09.32.12.37.06.22c0,.13.07.26.1.39s.08.3.11.46,0,.11,0,.16,0,.23.06.35.09.45.12.68l0,.2c0,.15,0,.3,0,.45l0,.3c0,.33,0,.66,0,1,0,2.8-1,4.76-2.59,5.69l-7.33,4.26c1.59-.92,2.57-2.89,2.58-5.68,0-.33,0-.66,0-1Z" transform="translate(-107.65 -68.85)"/><path class="cls-4" d="M1091,994.36c-4.89-2.83-8.87-.56-8.88,5.06s3.94,12.48,8.83,15.3,8.87.56,8.89-5.06S1095.87,997.19,1091,994.36Z" transform="translate(-107.65 -68.85)"/><path class="cls-5" d="M1096.66,1008.44c0,4-2.83,5.59-6.3,3.59a13.84,13.84,0,0,1-6.25-10.84c0-4,2.84-5.58,6.29-3.59A13.78,13.78,0,0,1,1096.66,1008.44Zm-6.29,1.89c2.65,1.53,4.81.3,4.82-2.74a10.56,10.56,0,0,0-4.79-8.29c-2.64-1.53-4.8-.3-4.81,2.74a10.55,10.55,0,0,0,4.78,8.29" transform="translate(-107.65 -68.85)"/><path class="cls-6" d="M1082.8,978.18c-1.22-.7-1.82,0-1.35,1.57l2.75,9.09c.48,1.56,1.25,4.12,1.72,5.68l2.75,9.08a2.52,2.52,0,0,0,.87,1.47c.31.18.63,0,.87-.47l2.79-5.88c.48-1,1.27-2.66,1.75-3.68l2.8-5.88a2.6,2.6,0,0,0-1.35-3.12l-4.58-2.65-4.43-2.56Z" transform="translate(-107.65 -68.85)"/><g class="cls-9"><g class="cls-9"><g class="cls-62"><g class="cls-9"><path class="cls-3" d="M680.94,561.69l183.4-106.58a8.47,8.47,0,0,0-1-.5L679.94,561.19a8.47,8.47,0,0,1,1,.5" transform="translate(-107.65 -68.85)"/><path class="cls-63" d="M679.94,561.19l183.4-106.58a8.41,8.41,0,0,0-.84-.29L679.1,560.9a8.41,8.41,0,0,1,.84.29" transform="translate(-107.65 -68.85)"/><path class="cls-64" d="M679.1,560.9,862.5,454.32c-.22-.05-.43-.1-.63-.13L678.47,560.77a5,5,0,0,1,.63.13" transform="translate(-107.65 -68.85)"/><path class="cls-65" d="M678.47,560.77l183.4-106.58a3.27,3.27,0,0,0-.53-.05L677.94,560.71l.53.06" transform="translate(-107.65 -68.85)"/><path class="cls-22" d="M677.94,560.71l183.4-106.57h-.48L677.47,560.72h.47" transform="translate(-107.65 -68.85)"/><path class="cls-21" d="M677.47,560.72,860.86,454.14l-.43.05L677,560.77l.44,0" transform="translate(-107.65 -68.85)"/><path class="cls-20" d="M677,560.77l183.4-106.58a2.88,2.88,0,0,0-.4.09L676.63,560.86a2.88,2.88,0,0,1,.4-.09" transform="translate(-107.65 -68.85)"/><path class="cls-19" d="M676.63,560.86,860,454.28l-.37.13L676.26,561l.37-.13" transform="translate(-107.65 -68.85)"/><path class="cls-18" d="M676.26,561l183.4-106.58a3,3,0,0,0-.36.18L675.9,561.17l.36-.18" transform="translate(-107.65 -68.85)"/><path class="cls-17" d="M675.9,561.17,859.3,454.59l0,0L675.86,561.19l0,0" transform="translate(-107.65 -68.85)"/></g></g></g><g class="cls-9"><g class="cls-66"><g class="cls-9"><path class="cls-13" d="M686,578.59,869.37,472c1.28-.74,2.08-2.33,2.08-4.58a11.33,11.33,0,0,0-.09-1.4L688,572.61a11.25,11.25,0,0,1,.1,1.4c0,2.25-.81,3.84-2.09,4.58" transform="translate(-107.65 -68.85)"/><path class="cls-14" d="M688,572.61,871.36,466c0-.32-.1-.65-.17-1L687.79,571.62c.07.34.13.67.17,1" transform="translate(-107.65 -68.85)"/><path class="cls-15" d="M687.79,571.62,871.19,465c-.06-.27-.12-.54-.2-.82L687.59,570.8c.08.28.15.55.2.82" transform="translate(-107.65 -68.85)"/><path class="cls-11" d="M687.59,570.8,871,464.22c-.07-.24-.14-.48-.22-.72L687.37,570.08c.08.24.15.48.22.72" transform="translate(-107.65 -68.85)"/><path class="cls-16" d="M687.37,570.08,870.77,463.5l-.24-.68L687.13,569.4c.09.23.16.45.24.68" transform="translate(-107.65 -68.85)"/><path class="cls-17" d="M687.13,569.4l183.4-106.58c-.08-.21-.17-.42-.26-.64L686.87,568.76c.09.22.18.43.26.64" transform="translate(-107.65 -68.85)"/><path class="cls-18" d="M686.87,568.76l183.4-106.58c-.09-.2-.19-.41-.29-.61L686.58,568.15c.1.2.2.41.29.61" transform="translate(-107.65 -68.85)"/><path class="cls-19" d="M686.58,568.15,870,461.57l-.3-.61L686.28,567.54c.1.2.21.4.3.61" transform="translate(-107.65 -68.85)"/><path class="cls-20" d="M686.28,567.54,869.68,461c-.11-.2-.22-.4-.34-.6L685.94,566.94c.12.2.23.4.34.6" transform="translate(-107.65 -68.85)"/><path class="cls-21" d="M685.94,566.94l183.4-106.58c-.12-.2-.24-.41-.37-.6L685.57,566.34c.13.19.25.4.37.6" transform="translate(-107.65 -68.85)"/><path class="cls-22" d="M685.57,566.34,869,459.76c-.13-.21-.27-.42-.41-.62L685.16,565.72c.14.2.28.41.41.62" transform="translate(-107.65 -68.85)"/><path class="cls-65" d="M685.16,565.72l183.4-106.58-.47-.64L684.69,565.08c.16.21.32.42.47.64" transform="translate(-107.65 -68.85)"/><path class="cls-64" d="M684.69,565.08,868.09,458.5c-.19-.25-.39-.48-.58-.71L684.11,564.37c.19.23.39.46.58.71" transform="translate(-107.65 -68.85)"/><path class="cls-63" d="M684.11,564.37l183.4-106.58c-.26-.29-.52-.57-.78-.83L683.33,563.54c.26.26.53.54.78.83" transform="translate(-107.65 -68.85)"/><path class="cls-3" d="M683.33,563.54,866.73,457a11.72,11.72,0,0,0-2.39-1.85L680.94,561.69a11.72,11.72,0,0,1,2.39,1.85" transform="translate(-107.65 -68.85)"/></g></g></g><path class="cls-60" d="M680.94,561.69c-3.94-2.28-7.15-.46-7.16,4.08a15.67,15.67,0,0,0,7.11,12.32c3.94,2.28,7.15.45,7.17-4.08A15.7,15.7,0,0,0,680.94,561.69Z" transform="translate(-107.65 -68.85)"/></g><path class="cls-30" d="M917.49,568.94a1,1,0,0,0,.92-1.52L864.34,463.35a1,1,0,0,0-1.41-.44,1,1,0,0,0-.44,1.4l54.08,104.07A1,1,0,0,0,917.49,568.94Z" transform="translate(-107.65 -68.85)"/><path class="cls-30" d="M735.69,674.41a1.2,1.2,0,0,0,.48-.11,1.05,1.05,0,0,0,.44-1.41L682.53,568.82a1,1,0,0,0-1.84,1l54.07,104.07A1,1,0,0,0,735.69,674.41Z" transform="translate(-107.65 -68.85)"/><path class="cls-67" d="M578.59,1011.88c11.38,6.56,11.44,17.3.14,23.87L241.24,1231.88c-11.3,6.56-29.85,6.56-41.22,0l-34-19.62c-11.37-6.56-11.43-17.3-.13-23.87L503.41,992.26c11.29-6.56,29.84-6.56,41.21,0Z" transform="translate(-107.65 -68.85)"/><path class="cls-68" d="M532.5,78.87l-26.64-8.56h0c-8.43-2.91-18.64-1.59-29.61,4.75L231.07,216.61c-28.76,16.61-52.29,61.57-52.29,99.92v826c0,24.55,9.64,40.67,24.13,44.74h0l25.66,8.27,3.89-14.27,243.78-140.75c28.76-16.61,52.29-61.57,52.29-99.92v-826A78,78,0,0,0,527,99Z" transform="translate(-107.65 -68.85)"/><path class="cls-69" d="M503.06,1049.13,257.89,1190.68c-28.76,16.6-52.29-1.19-52.29-39.54v-826c0-38.35,23.53-83.31,52.29-99.92L503.06,83.69c28.76-16.61,52.29,1.18,52.29,39.53v826c0,38.35-23.53,83.31-52.29,99.91" transform="translate(-107.65 -68.85)"/><path class="cls-70" d="M498.84,1046.17,262.11,1182.85c-28.67,16.55-52.13-1.18-52.13-39.4V327.79c0-38.22,23.46-83,52.13-99.59L498.84,91.51C527.51,75,551,92.69,551,130.92V946.58c0,38.22-23.46,83-52.13,99.59" transform="translate(-107.65 -68.85)"/><path class="cls-71" d="M497.87,569.4,263.08,705c-20.65,11.92-37.54-.85-37.54-28.38V307.8c0-27.53,16.89-59.81,37.54-71.73L497.87,100.51c20.65-11.92,37.54.85,37.54,28.38V497.67c0,27.53-16.89,59.81-37.54,71.73" transform="translate(-107.65 -68.85)"/><path class="cls-72" d="M499,387.46,261.93,524.35c-14.88,8.59-27.06-.61-27.06-20.46V298.38c0-19.84,12.18-43.1,27.06-51.69L499,109.8c14.89-8.59,27.06.61,27.06,20.45V335.77c0,19.84-12.17,43.1-27.06,51.69" transform="translate(-107.65 -68.85)"/><path class="cls-73" d="M402,179.07,358.91,204c-1.37.79-2.5-.06-2.5-1.88a6,6,0,0,1,2.5-4.77L402,172.42c1.37-.79,2.5.05,2.5,1.88a6,6,0,0,1-2.5,4.77" transform="translate(-107.65 -68.85)"/><path class="cls-73" d="M326.34,226.24l-.62.36c-2.74,1.58-5-.11-5-3.77V222c0-3.65,2.24-7.93,5-9.51l.62-.36c2.74-1.58,5,.12,5,3.77v.83c0,3.65-2.24,7.93-5,9.51" transform="translate(-107.65 -68.85)"/><path class="cls-73" d="M435.23,163.37l-.62.36c-2.74,1.58-5-.11-5-3.77v-.82c0-3.66,2.24-7.94,5-9.52l.62-.35c2.74-1.59,5,.11,5,3.76v.83c0,3.65-2.24,7.93-5,9.51" transform="translate(-107.65 -68.85)"/><path class="cls-74" d="M547.56,159.1c0-37.13-22.78-54.36-50.63-38.28L473.75,134.2l-17.63,24.85L383.6,200.92,311.07,242.8l-17.63-4.5-23.17,13.38c-27.85,16.08-50.64,59.62-50.64,96.75v782.65c0,37.13,22.79,54.36,50.64,38.28L496.93,1038.5c27.85-16.08,50.63-59.62,50.63-96.75Z" transform="translate(-107.65 -68.85)"/><path class="cls-75" d="M271.06,805.61l-4.79,29,9.18,39-29.8,107.9c.6.65,12,12.87,51.8-10.11s51.09-48.3,51.69-49.63l-30.33-73.19,8.95-49.44-4.95-23.42-13.89,8c-.07.78-1.42,15.58-11.94,22.38-10.53,5.35-12-7.84-12-8.53Z" transform="translate(-107.65 -68.85)"/><polygon class="cls-76" points="331.56 734.17 331.59 744.65 413.71 697.23 413.68 686.75 331.56 734.17"/><polygon class="cls-76" points="331.61 753.74 331.64 764.22 413.77 716.8 413.74 706.32 331.61 753.74"/><polygon class="cls-76" points="299.26 733.2 299.29 743.68 413.66 677.65 413.63 667.17 299.26 733.2"/><polygon class="cls-76" points="299.11 680.77 299.14 691.26 413.51 625.24 413.48 614.74 299.11 680.77"/><polygon class="cls-76" points="245.19 746.62 245.22 757.28 325.08 711.17 325.05 700.51 245.19 746.62"/><polygon class="cls-76" points="245.14 729.91 245.17 740.59 321.23 696.67 321.2 686 245.14 729.91"/><polygon class="cls-76" points="245.34 800.39 245.36 805.74 321.41 761.83 321.39 756.48 245.34 800.39"/><polygon class="cls-76" points="245.31 790.19 245.33 795.52 321.38 751.61 321.37 746.28 245.31 790.19"/><polygon class="cls-76" points="245.24 763.33 245.26 773.99 294.48 745.58 294.45 734.91 245.24 763.33"/><polygon class="cls-77" points="198.56 1021.22 201.75 1030.55 211.97 1024.65 203.72 1036.32 206.91 1045.66 198.63 1043.54 190.38 1055.2 193.51 1042.22 185.23 1040.09 195.44 1034.19 198.56 1021.22"/><path class="cls-77" d="M306.2,1084c9.9-5.72,18-1.11,18,10.28s-8,25.3-17.91,31-18,1.11-18-10.28S296.29,1089.74,306.2,1084Zm.11,40.38c9.46-5.47,17.14-18.77,17.11-29.64s-7.76-15.28-17.22-9.81-17.14,18.75-17.1,29.63,7.75,15.28,17.21,9.82" transform="translate(-107.65 -68.85)"/><polygon class="cls-77" points="244.28 994.82 247.47 1004.16 257.68 998.26 249.43 1009.93 252.62 1019.27 244.34 1017.14 236.1 1028.81 239.22 1015.83 230.94 1013.69 241.15 1007.8 244.28 994.82"/><path class="cls-77" d="M351.91,1057.63c9.91-5.72,18-1.11,18,10.27s-8,25.31-17.91,31-18,1.1-18-10.28S342,1063.35,351.91,1057.63ZM352,1098c9.46-5.46,17.14-18.76,17.1-29.63s-7.75-15.28-17.22-9.82-17.13,18.76-17.1,29.64,7.75,15.28,17.22,9.81" transform="translate(-107.65 -68.85)"/><polygon class="cls-77" points="289.99 968.43 293.18 977.76 303.39 971.87 295.15 983.54 298.33 992.88 290.06 990.75 281.81 1002.41 284.94 989.43 276.66 987.3 286.87 981.41 289.99 968.43"/><path class="cls-77" d="M397.62,1031.24c9.91-5.72,18-1.12,18,10.27s-8,25.3-17.91,31-18,1.12-18-10.27S387.72,1037,397.62,1031.24Zm.12,40.37c9.46-5.46,17.14-18.76,17.11-29.64s-7.76-15.27-17.22-9.81-17.14,18.76-17.11,29.64,7.76,15.27,17.22,9.81" transform="translate(-107.65 -68.85)"/><path class="cls-77" d="M443.34,1004.84c9.91-5.72,18-1.11,18,10.28s-8,25.3-17.91,31-18,1.11-18-10.27S433.43,1010.56,443.34,1004.84Zm.11,40.38c9.47-5.47,17.14-18.77,17.11-29.64s-7.75-15.28-17.22-9.81-17.14,18.76-17.11,29.63,7.76,15.28,17.22,9.82" transform="translate(-107.65 -68.85)"/><polygon class="cls-77" points="335.71 942.04 338.89 951.37 349.1 945.48 340.86 957.15 344.05 966.48 335.77 964.36 327.53 976.02 330.65 963.04 322.37 960.91 332.58 955.01 335.71 942.04"/><polygon class="cls-77" points="381.42 915.64 384.61 924.98 394.82 919.08 386.58 930.75 389.76 940.09 381.49 937.96 373.24 949.63 376.37 936.65 368.09 934.51 378.3 928.62 381.42 915.64"/><path class="cls-77" d="M489.05,978.45c9.91-5.72,18-1.11,18,10.27s-8,25.31-17.91,31-18,1.11-18-10.28S479.15,984.17,489.05,978.45Zm.12,40.37c9.46-5.46,17.13-18.76,17.1-29.63s-7.75-15.28-17.21-9.82S471.92,998.13,472,1009s7.76,15.28,17.22,9.81" transform="translate(-107.65 -68.85)"/><polygon class="cls-76" points="213.84 449.85 213.91 471.91 140.81 514.12 140.74 492.06 213.84 449.85"/><g class="cls-9"><polygon class="cls-76" points="418.5 374.19 418.56 396.25 358.75 430.78 358.69 408.72 418.5 374.19"/><polygon class="cls-76" points="418.38 330.91 418.44 352.98 324.67 407.12 324.6 385.05 418.38 330.91"/><polygon class="cls-76" points="418.03 207.89 418.09 229.95 358.28 264.48 358.22 242.42 418.03 207.89"/><polygon class="cls-76" points="315.74 390.17 315.8 412.23 224.25 465.09 224.18 443.03 315.74 390.17"/><polygon class="cls-76" points="351.31 413.83 351.37 435.89 140.93 557.39 140.87 535.33 351.31 413.83"/><polygon class="cls-76" points="417.91 164.61 417.97 186.67 324.19 240.81 324.13 218.75 417.91 164.61"/><polygon class="cls-76" points="418.26 291.04 418.33 313.1 191.64 443.98 191.58 421.91 418.26 291.04"/><polygon class="cls-76" points="184.2 426.18 184.26 448.24 140.69 473.39 140.63 451.33 184.2 426.18"/><polygon class="cls-76" points="418.15 250.31 418.21 272.37 140.57 432.66 140.51 410.61 418.15 250.31"/><polygon class="cls-76" points="350.84 247.53 350.9 269.59 140.46 391.09 140.39 369.03 350.84 247.53"/><polygon class="cls-76" points="417.79 124.73 417.86 146.8 191.17 277.67 191.11 255.61 417.79 124.73"/><polygon class="cls-76" points="213.37 283.55 213.44 305.61 140.33 347.81 140.27 325.75 213.37 283.55"/><polygon class="cls-76" points="183.72 259.88 183.79 281.94 140.22 307.09 140.16 285.03 183.72 259.88"/><polygon class="cls-76" points="417.68 84.01 417.74 106.07 140.1 266.37 140.04 244.31 417.68 84.01"/></g><polygon class="cls-76" points="315.27 223.87 315.33 245.93 223.77 298.79 223.71 276.73 315.27 223.87"/><path class="cls-78" d="M501,527.94c13.4-7.74,24.4-1.47,24.44,13.93l.15,52.26c0,15.4-10.89,34.33-24.28,42.06L286.35,760.28C273,768,262,761.74,261.91,746.34l-.15-52.25c-.05-15.41,10.88-34.34,24.28-42.07Z" transform="translate(-107.65 -68.85)"/><path class="cls-79" d="M516.11,528.52c13.4-7.74,24.4-1.47,24.44,13.93l.15,52.26c0,15.4-10.88,34.33-24.28,42.07L301.5,760.86c-13.4,7.73-24.4,1.46-24.44-13.94l-.15-52.25c0-15.41,10.89-34.34,24.28-42.07Z" transform="translate(-107.65 -68.85)"/><path class="cls-77" d="M334.6,695.22c.93,1,1.39,2.86,1.4,5.71v1.28a21.82,21.82,0,0,1-2.85,11.53,21.37,21.37,0,0,1-7.75,7.56l-11.27,6.51a3,3,0,0,1-2.18.53,1.14,1.14,0,0,1-.86-1.22L311,687.41a3.89,3.89,0,0,1,.9-2.36,7.09,7.09,0,0,1,2.12-1.9l10.26-5.92Q335,671.07,335,681.81a17.38,17.38,0,0,1-4.49,12.32A4.64,4.64,0,0,1,334.6,695.22Zm-5.51,10.31v-1c0-2.27-.44-3.67-1.32-4.19s-2.15-.29-3.86.7l-6,3.46,0,14.12,6-3.47c3.44-2,5.15-5.19,5.14-9.64m-11.23-17.62,0,10.38,5.95-3.44a7.92,7.92,0,0,0,3.16-3.23,9.23,9.23,0,0,0,1.08-4.47c0-1.59-.39-2.63-1.15-3.1s-1.82-.33-3.17.45l-5.9,3.41" transform="translate(-107.65 -68.85)"/><path class="cls-77" d="M362.76,655a4.8,4.8,0,0,1,2.45-.8c.67,0,1,.44,1,1.25l.08,28.58a22.69,22.69,0,0,1-3.45,12.61,26.76,26.76,0,0,1-9.27,8.75q-5.79,3.35-9.29,2c-2.32-.9-3.5-3.77-3.51-8.62l-.08-28.59a3.72,3.72,0,0,1,1-2.42,9.16,9.16,0,0,1,2.45-2,4.84,4.84,0,0,1,2.44-.8c.68,0,1,.44,1,1.25l.08,28.59q0,7,5.87,3.65A11.17,11.17,0,0,0,359.4,688l-.08-28.59a3.72,3.72,0,0,1,1-2.42A9.27,9.27,0,0,1,362.76,655Z" transform="translate(-107.65 -68.85)"/><path class="cls-77" d="M394.72,636.56a5.34,5.34,0,0,1,3.06-.79c1,.07,1.51.55,1.52,1.45a2.23,2.23,0,0,1-.16.88l-10.89,28.2a2.3,2.3,0,0,0-.21.91l0,15.4a3.86,3.86,0,0,1-1,2.42,8.66,8.66,0,0,1-2.45,2.08,4.35,4.35,0,0,1-2.42.72c-.69,0-1-.45-1-1.23l0-15.4a1.09,1.09,0,0,0-.16-.7L369.9,655a1.84,1.84,0,0,1-.16-.71,5.45,5.45,0,0,1,1.51-3.19,11.33,11.33,0,0,1,3.05-2.74c1-.56,1.67-.43,2.13.36l8.13,13,8.09-22.36A5,5,0,0,1,394.72,636.56Z" transform="translate(-107.65 -68.85)"/><path class="cls-77" d="M435.92,612.77a4.85,4.85,0,0,1,2.45-.8c.67,0,1,.44,1,1.25l.11,39.71a3.82,3.82,0,0,1-1,2.43,8.71,8.71,0,0,1-2.42,2.07c-1.88,1.08-3.21,1-4-.21l-11.5-18,.07,24.55a3.92,3.92,0,0,1-1,2.44,8.81,8.81,0,0,1-2.42,2.06,4.21,4.21,0,0,1-2.45.74c-.67,0-1-.47-1-1.25l-.11-39.64a3.83,3.83,0,0,1,1-2.45,9,9,0,0,1,2.44-2.05,4.66,4.66,0,0,1,2.93-.9c.67.15,1.42.86,2.24,2.14l10.33,16.86-.07-24.56a3.77,3.77,0,0,1,1-2.42A9.16,9.16,0,0,1,435.92,612.77Z" transform="translate(-107.65 -68.85)"/><path class="cls-77" d="M466.87,598.27q3.4,1.4,3.43,8.66l.05,17.05A22.86,22.86,0,0,1,467,636.57a26,26,0,0,1-9.08,8.61q-5.7,3.29-9.08,1.87t-3.4-8.68l-.05-17a22.87,22.87,0,0,1,3.34-12.58,25.77,25.77,0,0,1,9.06-8.59C461.56,598,464.6,597.34,466.87,598.27ZM463.44,628l-.05-17.05q0-7-5.6-3.8t-5.51,10.22l.05,17q0,7,5.55,3.83T463.44,628" transform="translate(-107.65 -68.85)"/><path class="cls-77" d="M515,567.1a5.09,5.09,0,0,1,3-.77c1,.08,1.44.54,1.44,1.4a3.33,3.33,0,0,1-.11.79L508.93,613c-.53,2.11-2,3.87-4.52,5.3a6.35,6.35,0,0,1-2.87,1,1.37,1.37,0,0,1-1.55-1.1l-3.44-14.53-3.41,18.49A6.1,6.1,0,0,1,491.6,625a11.92,11.92,0,0,1-2.87,2.36,6.37,6.37,0,0,1-2.92,1,1.44,1.44,0,0,1-1.61-1.06L473.57,595a2,2,0,0,1-.11-.67,5.23,5.23,0,0,1,1.43-3.06,11,11,0,0,1,3-2.67c1.28-.73,2-.64,2.29.27l8.5,28.26,4.46-23.87a6.26,6.26,0,0,1,3.39-4.16q2.88-1.66,3.36.27L504.44,608l8.3-38A4.35,4.35,0,0,1,515,567.1Z" transform="translate(-107.65 -68.85)"/><path class="cls-80" d="M661,1167.48c.41,2.89.69,5.51.79,7.72a11.14,11.14,0,0,0,4,6.2h0l3.68,10.52c25.53,9.7,28.66-4.53,28.66-4.53h0a61.37,61.37,0,0,0,2.22,10.79c1.86,4.87,5.58,29.49-22.05,26.24-12.31-2.33-17.65-21.37-23.22-24.15-2.13-1.07-6-2.72-10.33-5-.48-9.63-1.32-20.66-2.42-32.51,4.78.41,10.91,1.86,18.69,4.72" transform="translate(-107.65 -68.85)"/><path class="cls-81" d="M669.48,1191.92l-3.68-10.52h0c8,6.93,25.42,9.63,31.3-2.48,0,0,.38,4,1,8.48h0s-3.13,14.23-28.66,4.53" transform="translate(-107.65 -68.85)"/><path class="cls-81" d="M603.45,1237.29c-.35.15-.73.29-1.11.43.39-.14.76-.28,1.11-.43" transform="translate(-107.65 -68.85)"/><path class="cls-81" d="M587.52,1239.52c1.71,0,3.26,0,4.76,0-1.49.07-3,.1-4.76,0" transform="translate(-107.65 -68.85)"/><path class="cls-81" d="M600.78,1238.22a29.7,29.7,0,0,1-3,.69,29.09,29.09,0,0,0,3-.69" transform="translate(-107.65 -68.85)"/><path class="cls-81" d="M642,1208.15h0l3.77,32.53c-14.4,7.66-36-1.58-37.48-6.36h0c6.88-6.3,4.33-16.87,2.94-23.74h.06c8.49,5.87,23.56,5.36,30.72-2.42" transform="translate(-107.65 -68.85)"/><path class="cls-81" d="M596.63,1239.07c-1,.13-2,.24-3,.32,1.07-.08,2.07-.19,3-.32" transform="translate(-107.65 -68.85)"/><path class="cls-80" d="M608.31,1234.32c1.52,4.78,23.09,14,37.49,6.36,0,0,10.91,12.77.46,29.72-3.71,5.07-19.73,9.06-41.79.7-10.68-4.88-36.46-3.95-43-13.47-3.25-5.57-4.87-19,26-18.11,1.71,0,3.27,0,4.76,0l1.32-.08c1.07-.08,2.07-.19,3-.32.37-.06.78-.1,1.13-.16,1.08-.19,2.08-.42,3-.68.55-.16,1.06-.33,1.56-.51s.76-.28,1.11-.43a16.54,16.54,0,0,0,4.85-3h0" transform="translate(-107.65 -68.85)"/><path class="cls-81" d="M412.21,726.84c3.72-13.47,6.27-36.23,2.09-40.4s9.18-6.73,18.58.23,7.2,23.91,5.8,44.81c10.45,7.66,59.56,24.39,60.61,24.39s20.12-37.15,20.12-37.15l.1.07C535,744.51,555.71,743,555.71,743s-29.49,54.69-44.82,51-83.12-38.54-83.12-38.54c-8.82,0-19.27-15.1-15.56-28.56" transform="translate(-107.65 -68.85)"/><path class="cls-81" d="M698.12,686.76c1.46.37,2.91.69,4.35.93,4,14.53,12.37,49.38.56,54.59-9.34,4.13-24.1,4.59-33.89,4.36.4-16.51,1.63-33.77,4.64-45.81,5.15,1,17.91-3.23,24.34-14.07" transform="translate(-107.65 -68.85)"/><path class="cls-82" d="M670,795.91s29.64,54,13.08,104.84C672.73,929.31,670,1016.38,670,1016.38s22.52,81.27,27.16,162.54c-5.87,12.11-23.31,9.41-31.29,2.48a11.14,11.14,0,0,1-4-6.2c-.09-2.21-.38-4.83-.79-7.72-5.47-38.26-36.43-130-37.29-133.45,8.07,39.65,14.9,89,18.6,128.73,1.1,11.85,1.94,22.88,2.42,32.51.14,2.71.26,5.32.34,7.79a14.69,14.69,0,0,1-3.08,5.09c-7.16,7.78-22.23,8.29-30.72,2.42a13.69,13.69,0,0,1-5.67-7.51c-5.11-49.68-36.22-177.39-42.72-201.07s-28.1-107.28-2.68-194.58C626.76,840.5,670,795.91,670,795.91" transform="translate(-107.65 -68.85)"/><path class="cls-83" d="M698.12,686.76c-6.43,10.84-19.19,15.11-24.34,14.07,1.83-7.31,3.61-15.26,5.08-23.18a53.64,53.64,0,0,0,19.26,9.11" transform="translate(-107.65 -68.85)"/><path class="cls-84" d="M519.51,718.79c-.59-1-1.18-1.92-1.76-3,10.79-26.47,19.85-46,67.56-69.66,1.74,5.23,45.28,11.15,48.76-18.46,0,0,24.91-6.92,39.56-3.16-2.41,9.59-4.74,18.64-6.24,25.91-2.37,11.51,3.06,20.73,11.46,27.21-1.46,7.92-3.24,15.87-5.07,23.18-3,12-4.24,29.3-4.64,45.81-.6,25.52.81,49.27.81,49.27s-43.19,44.59-109.72,11.5c1.06-23.68-2.78-68.26-2.78-68.26L555.71,743s-20.67,1.53-36.2-24.19" transform="translate(-107.65 -68.85)"/><path class="cls-81" d="M590.07,559.89c1.63,3,.29,18.17.29,18.17s.18,2.44,3.49,2.62c1-6.1,7.83-11.33,13.41-6.63,10.45,9.41-3.14,22.29-3.14,22.29s3.83,11.85,18.46,23.34c2,.24,3.9.27,5.8.34.52,3.79,1.94,7.86,5.69,7.67-3.48,29.61-47,23.69-48.76,18.46,15.33-5.22,10.45-21.94,7-29.6-27.86-7.67-22.64-40.06-17.41-58.17,0-18.8,12.88-32.74,12.88-32.74,8.13,7.09.7,31.24,2.32,34.25" transform="translate(-107.65 -68.85)"/><path class="cls-80" d="M673.78,555.71a9.81,9.81,0,0,1,2,0c5.63,29.51-8.05,65.56-47.44,64.27-1.9-.07-3.78-.1-5.8-.34-14.63-11.49-18.46-23.33-18.46-23.33s13.59-12.89,3.14-22.3c-5.58-4.7-12.37.53-13.41,6.62-3.31-.17-3.49-2.61-3.49-2.61s1.34-15.15-.29-18.17,5.81-27.16-2.32-34.25c0,0-3.83-28.21,40.75-17.76,12.83.48,25.65,5.36,35.32,18.92a35.3,35.3,0,0,0-4.67,2.44Z" transform="translate(-107.65 -68.85)"/><path class="cls-80" d="M678.85,677.65c-8.4-6.48-13.83-15.69-11.46-27.21,1.5-7.27,3.83-16.32,6.24-25.91,7.73-30.69,16.43-67,2.19-68.78a9.81,9.81,0,0,0-2,0l-14.63-26.47a34.48,34.48,0,0,1,4.67-2.44c7.49-3.33,23.48-8.1,44.21-.81,29,10.22,30.88,67.61,20.2,94.18s-25.08,51.64-3.72,63.71c-4,4.27-12.61,5.41-22,3.81-1.43-.25-2.89-.57-4.35-.94a53.5,53.5,0,0,1-19.27-9.1" transform="translate(-107.65 -68.85)"/><g class="cls-9"><g class="cls-9"><path class="cls-2" d="M253.5,265.12,510.26,115.91a1.24,1.24,0,0,1,1.26.14L254.77,265.26A1.26,1.26,0,0,0,253.5,265.12Z" transform="translate(-107.65 -68.85)"/><g class="cls-85"><g class="cls-9"><path class="cls-2" d="M253.5,265.12,510.26,115.91l.13-.07L253.63,265.06a.38.38,0,0,0-.13.06" transform="translate(-107.65 -68.85)"/><path class="cls-2" d="M253.63,265.06,510.39,115.84l.12,0L253.75,265l-.12,0" transform="translate(-107.65 -68.85)"/><path class="cls-2" d="M253.75,265,510.51,115.81h.1L253.85,265h-.1" transform="translate(-107.65 -68.85)"/><path class="cls-2" d="M253.85,265,510.61,115.8h.09L253.94,265h-.09" transform="translate(-107.65 -68.85)"/><path class="cls-2" d="M253.94,265,510.7,115.79h.08L254,265h-.08" transform="translate(-107.65 -68.85)"/><path class="cls-2" d="M254,265,510.78,115.8h.07L254.1,265H254" transform="translate(-107.65 -68.85)"/><path class="cls-2" d="M254.1,265,510.85,115.8l.08,0L254.17,265h-.07" transform="translate(-107.65 -68.85)"/><path class="cls-2" d="M254.17,265,510.93,115.82H511L254.25,265.05l-.08,0" transform="translate(-107.65 -68.85)"/><path class="cls-2" d="M254.25,265.05,511,115.83l.07,0L254.32,265.07l-.07,0" transform="translate(-107.65 -68.85)"/><path class="cls-2" d="M254.32,265.07,511.08,115.85l.07,0L254.4,265.09l-.08,0" transform="translate(-107.65 -68.85)"/><path class="cls-2" d="M254.4,265.09,511.15,115.88l.08,0L254.47,265.12l-.07,0" transform="translate(-107.65 -68.85)"/><path class="cls-2" d="M254.47,265.12,511.23,115.91l.08,0L254.55,265.15l-.08,0" transform="translate(-107.65 -68.85)"/><path class="cls-2" d="M254.55,265.15,511.31,115.94l.07,0L254.62,265.19l-.07,0" transform="translate(-107.65 -68.85)"/><path class="cls-2" d="M254.62,265.19,511.38,116a.2.2,0,0,1,.08,0L254.7,265.23a.2.2,0,0,0-.08,0" transform="translate(-107.65 -68.85)"/><path class="cls-2" d="M254.7,265.23,511.46,116l.06,0L254.77,265.26l-.07,0" transform="translate(-107.65 -68.85)"/></g></g></g><g class="cls-9"><path class="cls-2" d="M711.54,318.29,454.78,467.5a1.55,1.55,0,0,0,.65-1.41L712.18,316.88A1.53,1.53,0,0,1,711.54,318.29Z" transform="translate(-107.65 -68.85)"/><g class="cls-86"><g class="cls-9"><polyline class="cls-2" points="347.78 397.24 604.53 248.03 604.53 248.04 347.78 397.25 347.78 397.24"/><path class="cls-2" d="M455.43,466.1,712.18,316.88V317L455.42,466.2a.34.34,0,0,0,0-.1" transform="translate(-107.65 -68.85)"/><path class="cls-2" d="M455.42,466.2,712.18,317v.1L455.42,466.3v-.1" transform="translate(-107.65 -68.85)"/><path class="cls-2" d="M455.42,466.3,712.18,317.09s0,.07,0,.11L455.41,466.41s0-.07,0-.11" transform="translate(-107.65 -68.85)"/><path class="cls-2" d="M455.41,466.41,712.16,317.2a.34.34,0,0,1,0,.1L455.39,466.51s0-.06,0-.1" transform="translate(-107.65 -68.85)"/><path class="cls-2" d="M455.39,466.51,712.15,317.3s0,.08,0,.11L455.37,466.62a.36.36,0,0,0,0-.11" transform="translate(-107.65 -68.85)"/><path class="cls-2" d="M455.37,466.62,712.13,317.41l0,.11L455.34,466.73l0-.11" transform="translate(-107.65 -68.85)"/><path class="cls-2" d="M455.34,466.73,712.1,317.52s0,.08,0,.12L455.3,466.85a.56.56,0,0,0,0-.12" transform="translate(-107.65 -68.85)"/><path class="cls-2" d="M455.3,466.85,712.06,317.64l0,.12L455.25,467a.69.69,0,0,0,.05-.13" transform="translate(-107.65 -68.85)"/><path class="cls-2" d="M455.25,467,712,317.76l-.09.16L455.17,467.13l.08-.15" transform="translate(-107.65 -68.85)"/><path class="cls-2" d="M455.17,467.13,711.92,317.92a1.12,1.12,0,0,1-.38.37L454.78,467.5a1.14,1.14,0,0,0,.39-.37" transform="translate(-107.65 -68.85)"/></g></g></g><polygon class="cls-2" points="347.88 359.06 604.64 209.85 604.53 248.03 347.78 397.24 347.88 359.06"/><polygon class="cls-2" points="147.12 196.42 403.88 47.2 602.47 205.57 345.71 354.78 147.12 196.42"/><g class="cls-9"><path class="cls-2" d="M453.36,423.63,710.12,274.41a6.22,6.22,0,0,1,2.17,4.29L455.53,427.91A6.2,6.2,0,0,0,453.36,423.63Z" transform="translate(-107.65 -68.85)"/><g class="cls-87"><g class="cls-9"><path class="cls-2" d="M453.36,423.63,710.12,274.41l.09.08L453.46,423.7l-.1-.07" transform="translate(-107.65 -68.85)"/><path class="cls-2" d="M453.46,423.7,710.21,274.49l.11.09L453.56,423.79l-.1-.09" transform="translate(-107.65 -68.85)"/><path class="cls-2" d="M453.56,423.79,710.32,274.58l.1.1L453.67,423.89l-.11-.1" transform="translate(-107.65 -68.85)"/><path class="cls-2" d="M453.67,423.89,710.42,274.68l.11.1L453.77,424l-.1-.1" transform="translate(-107.65 -68.85)"/><path class="cls-2" d="M453.77,424,710.53,274.78l.1.11L453.87,424.1l-.1-.11" transform="translate(-107.65 -68.85)"/><path class="cls-2" d="M453.87,424.1,710.63,274.89l.1.11L454,424.21l-.1-.11" transform="translate(-107.65 -68.85)"/><path class="cls-2" d="M454,424.21,710.73,275l.1.12L454.07,424.33l-.1-.12" transform="translate(-107.65 -68.85)"/><path class="cls-2" d="M454.07,424.33,710.83,275.12l.1.12L454.17,424.46a.64.64,0,0,0-.1-.13" transform="translate(-107.65 -68.85)"/><path class="cls-2" d="M454.17,424.46,710.93,275.24l.12.16L454.29,424.61l-.12-.15" transform="translate(-107.65 -68.85)"/><path class="cls-2" d="M454.29,424.61,711.05,275.4l.17.24L454.46,424.85l-.17-.24" transform="translate(-107.65 -68.85)"/><path class="cls-2" d="M454.46,424.85,711.22,275.64l.23.36L454.69,425.21c-.07-.12-.15-.24-.23-.36" transform="translate(-107.65 -68.85)"/><path class="cls-2" d="M454.69,425.21,711.45,276c0,.08.09.17.14.26L454.83,425.47c0-.09-.09-.17-.14-.26" transform="translate(-107.65 -68.85)"/><path class="cls-2" d="M454.83,425.47,711.59,276.26l.09.17L454.92,425.64l-.09-.17" transform="translate(-107.65 -68.85)"/><path class="cls-2" d="M454.92,425.64,711.68,276.43l.07.15L455,425.79l-.08-.15" transform="translate(-107.65 -68.85)"/><path class="cls-2" d="M455,425.79,711.75,276.58l.07.14L455.06,425.94l-.06-.15" transform="translate(-107.65 -68.85)"/><path class="cls-2" d="M455.06,425.94,711.82,276.72l.06.14L455.12,426.08l-.06-.14" transform="translate(-107.65 -68.85)"/><path class="cls-2" d="M455.12,426.08,711.88,276.86a1.21,1.21,0,0,1,0,.14L455.18,426.22l-.06-.14" transform="translate(-107.65 -68.85)"/><path class="cls-2" d="M455.18,426.22,711.93,277l.06.15L455.23,426.36a1.21,1.21,0,0,1-.05-.14" transform="translate(-107.65 -68.85)"/><path class="cls-2" d="M455.23,426.36,712,277.15s0,.09,0,.14L455.28,426.5c0-.05,0-.1,0-.14" transform="translate(-107.65 -68.85)"/><path class="cls-2" d="M455.28,426.5,712,277.29s0,.1,0,.14L455.33,426.65s0-.1-.05-.15" transform="translate(-107.65 -68.85)"/><path class="cls-2" d="M455.33,426.65,712.08,277.43l0,.15L455.37,426.79a1,1,0,0,1,0-.14" transform="translate(-107.65 -68.85)"/><path class="cls-2" d="M455.37,426.79,712.13,277.58l0,.14L455.41,426.93a.57.57,0,0,1,0-.14" transform="translate(-107.65 -68.85)"/><path class="cls-2" d="M455.41,426.93,712.16,277.72a1,1,0,0,1,0,.14L455.44,427.07l0-.14" transform="translate(-107.65 -68.85)"/><path class="cls-2" d="M455.44,427.07,712.2,277.86c0,.05,0,.09,0,.14L455.47,427.21l0-.14" transform="translate(-107.65 -68.85)"/><path class="cls-2" d="M455.47,427.21,712.22,278l0,.12L455.49,427.34a.69.69,0,0,1,0-.13" transform="translate(-107.65 -68.85)"/><path class="cls-2" d="M455.49,427.34,712.25,278.12c0,.05,0,.09,0,.13L455.51,427.46a.5.5,0,0,1,0-.12" transform="translate(-107.65 -68.85)"/><path class="cls-2" d="M455.51,427.46,712.26,278.25s0,.08,0,.12L455.52,427.58s0-.08,0-.12" transform="translate(-107.65 -68.85)"/><path class="cls-2" d="M455.52,427.58,712.28,278.37a.37.37,0,0,0,0,.11L455.53,427.7s0-.08,0-.12" transform="translate(-107.65 -68.85)"/><path class="cls-2" d="M455.53,427.7,712.29,278.48v.11L455.53,427.81v-.11" transform="translate(-107.65 -68.85)"/><path class="cls-2" d="M455.53,427.81,712.29,278.59v.11L455.53,427.91v-.1" transform="translate(-107.65 -68.85)"/></g></g></g><path class="cls-2" d="M254.77,265.26,453.36,423.63a6.2,6.2,0,0,1,2.17,4.28l-.1,38.18c0,1.4-1,2-2.23,1.26L255,352.9a4.9,4.9,0,0,1-2.22-3.83l.24-82.72C253,265.1,253.76,264.68,254.77,265.26Z" transform="translate(-107.65 -68.85)"/></g><path class="cls-88" d="M611.36,334.55l-51.43,29.88C529.82,340.74,417,252,352.12,200.88L403.53,171Z" transform="translate(-107.65 -68.85)"/><path class="cls-89" d="M559.93,364.43,508.5,394.32,300.68,230.77l51.43-29.89Z" transform="translate(-107.65 -68.85)"/><path class="cls-88" d="M508.5,394.32,457,424.26,249.25,260.66l51.43-29.89Z" transform="translate(-107.65 -68.85)"/><path class="cls-89" d="M662.79,304.66l-51.43,29.89C581.24,310.85,468.46,222.09,403.55,171L455,141.11Z" transform="translate(-107.65 -68.85)"/><path class="cls-88" d="M714.22,274.77l-51.43,29.89L455,141.1l51.44-29.89C571.32,162.32,684.11,251.07,714.22,274.77Z" transform="translate(-107.65 -68.85)"/><path class="cls-60" d="M610.76,334.18c0,5.39.17,29.2.19,35.23,0,16.27-11.4,36.1-25.56,44.27S559.7,415.29,559.66,399c0-6-.16-29.84-.19-35.23Z" transform="translate(-107.65 -68.85)"/><path class="cls-89" d="M559.47,363.79c0,5.39.17,29.21.19,35.23,0,16.27-11.4,36.1-25.57,44.28s-25.68,1.61-25.73-14.66c0-6-.15-29.85-.18-35.24Z" transform="translate(-107.65 -68.85)"/><path class="cls-60" d="M508.18,393.4c0,5.39.17,29.21.18,35.24.05,16.27-11.39,36.09-25.56,44.27s-25.68,1.61-25.73-14.66c0-6-.15-29.84-.18-35.23Z" transform="translate(-107.65 -68.85)"/><path class="cls-60" d="M713.43,274.9c0,12.73.09,31,.1,35.28,0,16.28-11.4,36.1-25.56,44.28s-25.69,1.61-25.73-14.66c0-6-.16-29.84-.19-35.23Z" transform="translate(-107.65 -68.85)"/><path class="cls-89" d="M662.05,304.57c0,5.39.17,29.2.19,35.23,0,16.27-11.4,36.09-25.56,44.27S611,385.68,611,369.41c0-6-.16-29.84-.19-35.23Z" transform="translate(-107.65 -68.85)"/><g class="cls-9"><polygon class="cls-90" points="397.19 1150.42 396.86 1268.79 277.12 1338.38 277.45 1220.01 397.19 1150.42"/><polygon class="cls-91" points="277.45 1220.01 277.12 1338.38 124.15 1250.07 124.49 1131.69 277.45 1220.01"/><polygon class="cls-92" points="397.19 1150.42 277.45 1220.01 124.49 1131.69 244.23 1062.11 397.19 1150.42"/></g><g class="cls-9"><polygon class="cls-90" points="273.04 1220.12 272.71 1338.49 152.97 1408.08 153.3 1289.71 273.04 1220.12"/><polygon class="cls-91" points="153.3 1289.71 152.97 1408.08 0 1319.76 0.33 1201.39 153.3 1289.71"/><polygon class="cls-92" points="273.04 1220.12 153.3 1289.71 0.33 1201.39 120.08 1131.81 273.04 1220.12"/></g><g class="cls-93"><polygon class="cls-30" points="167.6 1091.34 334.96 1188.6 349.03 1180.48 181.67 1083.22 167.6 1091.34"/><polygon class="cls-63" points="177.52 1089.96 344.9 1187.23 347.93 1185.48 180.55 1088.21 177.52 1089.96"/></g><g class="cls-94"><polygon class="cls-30" points="46.31 1160.8 213.67 1258.06 227.74 1249.94 60.38 1152.68 46.31 1160.8"/><polygon class="cls-63" points="56.23 1159.42 223.6 1256.69 226.63 1254.94 59.25 1157.68 56.23 1159.42"/></g><g class="cls-95"><polygon class="cls-30" points="238.98 1148.1 71.61 1245.36 57.54 1237.24 224.91 1139.98 238.98 1148.1"/></g><polygon class="cls-90" points="313.23 1039.12 312.89 1157.49 160.91 1245.81 161.25 1127.44 313.23 1039.12"/><path class="cls-96" d="M319.58,1324.35l14-8.06.33,118.54c-4.37,2.56-11.95,7.05-14,8.24Z" transform="translate(-107.65 -68.85)"/><path class="cls-97" d="M167.18,1423.25c2,1.15,9.62,5.41,14,7.9l.34-118.54-14-8.08Z" transform="translate(-107.65 -68.85)"/><path class="cls-96" d="M440.88,1255.92l14-8.05.33,118.53c-4.36,2.56-11.95,7-14,8.24Z" transform="translate(-107.65 -68.85)"/><polygon class="cls-91" points="161.25 1127.44 160.91 1245.81 40.4 1176.23 40.74 1057.86 161.25 1127.44"/><path class="cls-97" d="M197,1273.7c2,1.15,9.61,5.42,14,7.9l.34-118.54-14-8.08Z" transform="translate(-107.65 -68.85)"/><polygon class="cls-92" points="313.23 1039.12 161.25 1127.44 40.74 1057.86 192.71 969.54 313.23 1039.12"/><g class="cls-98"><polygon class="cls-30" points="268.79 998.55 101.42 1095.82 87.35 1087.69 254.72 990.43 268.79 998.55"/><polygon class="cls-63" points="258.86 997.18 91.49 1094.44 88.46 1092.69 255.84 995.43 258.86 997.18"/></g><polygon class="cls-99" points="940.28 1016.96 940.05 1096.19 838.33 1155.31 838.55 1076.08 940.28 1016.96"/><polygon class="cls-100" points="838.55 1076.08 838.33 1155.31 757.66 1108.73 757.89 1029.51 838.55 1076.08"/><path class="cls-77" d="M898.07,1196.74c1.36.77,6.43,3.62,9.35,5.28l.23-79.34-9.35-5.4Z" transform="translate(-107.65 -68.85)"/><polygon class="cls-101" points="940.28 1016.96 838.55 1076.08 757.89 1029.51 859.61 970.39 940.28 1016.96"/><g class="cls-102"><polygon class="cls-103" points="910.53 989.81 798.51 1054.91 789.09 1049.47 901.11 984.37 910.53 989.81"/><polygon class="cls-104" points="903.89 988.89 791.86 1053.99 789.83 1052.82 901.86 987.72 903.89 988.89"/></g><polygon class="cls-104" points="756.53 946.94 756.76 1026.16 858.48 1085.28 858.25 1006.05 756.53 946.94"/><polygon class="cls-77" points="858.25 1006.05 858.48 1085.28 939.15 1038.71 938.92 959.48 858.25 1006.05"/><path class="cls-100" d="M1014,1126.71c-1.36.77-6.44,3.63-9.35,5.29l-.23-79.34,9.35-5.41Z" transform="translate(-107.65 -68.85)"/><polygon class="cls-105" points="756.53 946.94 858.25 1006.05 938.92 959.48 837.2 900.37 756.53 946.94"/><g class="cls-106"><polygon class="cls-107" points="786.28 919.78 898.3 984.88 907.72 979.45 795.7 914.35 786.28 919.78"/><polygon class="cls-99" points="792.92 918.86 904.95 983.97 906.98 982.79 794.95 917.69 792.92 918.86"/></g></svg>